%TF.GenerationSoftware,KiCad,Pcbnew,8.0.5*%
%TF.CreationDate,2026-02-13T21:56:33+07:00*%
%TF.ProjectId,Temperature_sensor,54656d70-6572-4617-9475-72655f73656e,rev?*%
%TF.SameCoordinates,Original*%
%TF.FileFunction,Legend,Top*%
%TF.FilePolarity,Positive*%
%FSLAX46Y46*%
G04 Gerber Fmt 4.6, Leading zero omitted, Abs format (unit mm)*
G04 Created by KiCad (PCBNEW 8.0.5) date 2026-02-13 21:56:33*
%MOMM*%
%LPD*%
G01*
G04 APERTURE LIST*
%ADD10C,0.150000*%
%ADD11C,0.075000*%
%ADD12C,0.000000*%
%ADD13C,0.120000*%
%ADD14C,0.152400*%
%ADD15C,0.127000*%
%ADD16C,0.254000*%
%ADD17C,0.200000*%
G04 APERTURE END LIST*
D10*
X128060180Y-71235350D02*
X129060180Y-71235350D01*
X128107800Y-71235350D02*
X128060180Y-71140112D01*
X128060180Y-71140112D02*
X128060180Y-70949636D01*
X128060180Y-70949636D02*
X128107800Y-70854398D01*
X128107800Y-70854398D02*
X128155419Y-70806779D01*
X128155419Y-70806779D02*
X128250657Y-70759160D01*
X128250657Y-70759160D02*
X128536371Y-70759160D01*
X128536371Y-70759160D02*
X128631609Y-70806779D01*
X128631609Y-70806779D02*
X128679228Y-70854398D01*
X128679228Y-70854398D02*
X128726847Y-70949636D01*
X128726847Y-70949636D02*
X128726847Y-71140112D01*
X128726847Y-71140112D02*
X128679228Y-71235350D01*
X128107800Y-72092493D02*
X128060180Y-71997255D01*
X128060180Y-71997255D02*
X128060180Y-71806779D01*
X128060180Y-71806779D02*
X128107800Y-71711541D01*
X128107800Y-71711541D02*
X128203038Y-71663922D01*
X128203038Y-71663922D02*
X128583990Y-71663922D01*
X128583990Y-71663922D02*
X128679228Y-71711541D01*
X128679228Y-71711541D02*
X128726847Y-71806779D01*
X128726847Y-71806779D02*
X128726847Y-71997255D01*
X128726847Y-71997255D02*
X128679228Y-72092493D01*
X128679228Y-72092493D02*
X128583990Y-72140112D01*
X128583990Y-72140112D02*
X128488752Y-72140112D01*
X128488752Y-72140112D02*
X128393514Y-71663922D01*
X128107800Y-72521065D02*
X128060180Y-72616303D01*
X128060180Y-72616303D02*
X128060180Y-72806779D01*
X128060180Y-72806779D02*
X128107800Y-72902017D01*
X128107800Y-72902017D02*
X128203038Y-72949636D01*
X128203038Y-72949636D02*
X128250657Y-72949636D01*
X128250657Y-72949636D02*
X128345895Y-72902017D01*
X128345895Y-72902017D02*
X128393514Y-72806779D01*
X128393514Y-72806779D02*
X128393514Y-72663922D01*
X128393514Y-72663922D02*
X128441133Y-72568684D01*
X128441133Y-72568684D02*
X128536371Y-72521065D01*
X128536371Y-72521065D02*
X128583990Y-72521065D01*
X128583990Y-72521065D02*
X128679228Y-72568684D01*
X128679228Y-72568684D02*
X128726847Y-72663922D01*
X128726847Y-72663922D02*
X128726847Y-72806779D01*
X128726847Y-72806779D02*
X128679228Y-72902017D01*
X128060180Y-73378208D02*
X128726847Y-73378208D01*
X129060180Y-73378208D02*
X129012561Y-73330589D01*
X129012561Y-73330589D02*
X128964942Y-73378208D01*
X128964942Y-73378208D02*
X129012561Y-73425827D01*
X129012561Y-73425827D02*
X129060180Y-73378208D01*
X129060180Y-73378208D02*
X128964942Y-73378208D01*
X128726847Y-74282969D02*
X127917323Y-74282969D01*
X127917323Y-74282969D02*
X127822085Y-74235350D01*
X127822085Y-74235350D02*
X127774466Y-74187731D01*
X127774466Y-74187731D02*
X127726847Y-74092493D01*
X127726847Y-74092493D02*
X127726847Y-73949636D01*
X127726847Y-73949636D02*
X127774466Y-73854398D01*
X128107800Y-74282969D02*
X128060180Y-74187731D01*
X128060180Y-74187731D02*
X128060180Y-73997255D01*
X128060180Y-73997255D02*
X128107800Y-73902017D01*
X128107800Y-73902017D02*
X128155419Y-73854398D01*
X128155419Y-73854398D02*
X128250657Y-73806779D01*
X128250657Y-73806779D02*
X128536371Y-73806779D01*
X128536371Y-73806779D02*
X128631609Y-73854398D01*
X128631609Y-73854398D02*
X128679228Y-73902017D01*
X128679228Y-73902017D02*
X128726847Y-73997255D01*
X128726847Y-73997255D02*
X128726847Y-74187731D01*
X128726847Y-74187731D02*
X128679228Y-74282969D01*
X128726847Y-74759160D02*
X128060180Y-74759160D01*
X128631609Y-74759160D02*
X128679228Y-74806779D01*
X128679228Y-74806779D02*
X128726847Y-74902017D01*
X128726847Y-74902017D02*
X128726847Y-75044874D01*
X128726847Y-75044874D02*
X128679228Y-75140112D01*
X128679228Y-75140112D02*
X128583990Y-75187731D01*
X128583990Y-75187731D02*
X128060180Y-75187731D01*
X128060180Y-76425827D02*
X129060180Y-76425827D01*
X128679228Y-76425827D02*
X128726847Y-76521065D01*
X128726847Y-76521065D02*
X128726847Y-76711541D01*
X128726847Y-76711541D02*
X128679228Y-76806779D01*
X128679228Y-76806779D02*
X128631609Y-76854398D01*
X128631609Y-76854398D02*
X128536371Y-76902017D01*
X128536371Y-76902017D02*
X128250657Y-76902017D01*
X128250657Y-76902017D02*
X128155419Y-76854398D01*
X128155419Y-76854398D02*
X128107800Y-76806779D01*
X128107800Y-76806779D02*
X128060180Y-76711541D01*
X128060180Y-76711541D02*
X128060180Y-76521065D01*
X128060180Y-76521065D02*
X128107800Y-76425827D01*
X128726847Y-77235351D02*
X128060180Y-77473446D01*
X128726847Y-77711541D02*
X128060180Y-77473446D01*
X128060180Y-77473446D02*
X127822085Y-77378208D01*
X127822085Y-77378208D02*
X127774466Y-77330589D01*
X127774466Y-77330589D02*
X127726847Y-77235351D01*
X128060180Y-78854399D02*
X129060180Y-78854399D01*
X128060180Y-79425827D02*
X128631609Y-78997256D01*
X129060180Y-79425827D02*
X128488752Y-78854399D01*
X128726847Y-79854399D02*
X128060180Y-79854399D01*
X128631609Y-79854399D02*
X128679228Y-79902018D01*
X128679228Y-79902018D02*
X128726847Y-79997256D01*
X128726847Y-79997256D02*
X128726847Y-80140113D01*
X128726847Y-80140113D02*
X128679228Y-80235351D01*
X128679228Y-80235351D02*
X128583990Y-80282970D01*
X128583990Y-80282970D02*
X128060180Y-80282970D01*
X128726847Y-80759161D02*
X128060180Y-80759161D01*
X128631609Y-80759161D02*
X128679228Y-80806780D01*
X128679228Y-80806780D02*
X128726847Y-80902018D01*
X128726847Y-80902018D02*
X128726847Y-81044875D01*
X128726847Y-81044875D02*
X128679228Y-81140113D01*
X128679228Y-81140113D02*
X128583990Y-81187732D01*
X128583990Y-81187732D02*
X128060180Y-81187732D01*
X128726847Y-81521066D02*
X128726847Y-81902018D01*
X129060180Y-81663923D02*
X128203038Y-81663923D01*
X128203038Y-81663923D02*
X128107800Y-81711542D01*
X128107800Y-81711542D02*
X128060180Y-81806780D01*
X128060180Y-81806780D02*
X128060180Y-81902018D01*
X128060180Y-82235352D02*
X129060180Y-82235352D01*
X128060180Y-82663923D02*
X128583990Y-82663923D01*
X128583990Y-82663923D02*
X128679228Y-82616304D01*
X128679228Y-82616304D02*
X128726847Y-82521066D01*
X128726847Y-82521066D02*
X128726847Y-82378209D01*
X128726847Y-82378209D02*
X128679228Y-82282971D01*
X128679228Y-82282971D02*
X128631609Y-82235352D01*
X128060180Y-83140114D02*
X128726847Y-83140114D01*
X129060180Y-83140114D02*
X129012561Y-83092495D01*
X129012561Y-83092495D02*
X128964942Y-83140114D01*
X128964942Y-83140114D02*
X129012561Y-83187733D01*
X129012561Y-83187733D02*
X129060180Y-83140114D01*
X129060180Y-83140114D02*
X128964942Y-83140114D01*
X128726847Y-83473447D02*
X128726847Y-83854399D01*
X129060180Y-83616304D02*
X128203038Y-83616304D01*
X128203038Y-83616304D02*
X128107800Y-83663923D01*
X128107800Y-83663923D02*
X128060180Y-83759161D01*
X128060180Y-83759161D02*
X128060180Y-83854399D01*
X128060180Y-84187733D02*
X128726847Y-84187733D01*
X129060180Y-84187733D02*
X129012561Y-84140114D01*
X129012561Y-84140114D02*
X128964942Y-84187733D01*
X128964942Y-84187733D02*
X129012561Y-84235352D01*
X129012561Y-84235352D02*
X129060180Y-84187733D01*
X129060180Y-84187733D02*
X128964942Y-84187733D01*
X141991666Y-90967700D02*
X142091666Y-91001033D01*
X142091666Y-91001033D02*
X142258333Y-91001033D01*
X142258333Y-91001033D02*
X142324999Y-90967700D01*
X142324999Y-90967700D02*
X142358333Y-90934366D01*
X142358333Y-90934366D02*
X142391666Y-90867700D01*
X142391666Y-90867700D02*
X142391666Y-90801033D01*
X142391666Y-90801033D02*
X142358333Y-90734366D01*
X142358333Y-90734366D02*
X142324999Y-90701033D01*
X142324999Y-90701033D02*
X142258333Y-90667700D01*
X142258333Y-90667700D02*
X142124999Y-90634366D01*
X142124999Y-90634366D02*
X142058333Y-90601033D01*
X142058333Y-90601033D02*
X142024999Y-90567700D01*
X142024999Y-90567700D02*
X141991666Y-90501033D01*
X141991666Y-90501033D02*
X141991666Y-90434366D01*
X141991666Y-90434366D02*
X142024999Y-90367700D01*
X142024999Y-90367700D02*
X142058333Y-90334366D01*
X142058333Y-90334366D02*
X142124999Y-90301033D01*
X142124999Y-90301033D02*
X142291666Y-90301033D01*
X142291666Y-90301033D02*
X142391666Y-90334366D01*
X142625000Y-90301033D02*
X142791666Y-91001033D01*
X142791666Y-91001033D02*
X142925000Y-90501033D01*
X142925000Y-90501033D02*
X143058333Y-91001033D01*
X143058333Y-91001033D02*
X143225000Y-90301033D01*
X143458333Y-90367700D02*
X143491666Y-90334366D01*
X143491666Y-90334366D02*
X143558333Y-90301033D01*
X143558333Y-90301033D02*
X143725000Y-90301033D01*
X143725000Y-90301033D02*
X143791666Y-90334366D01*
X143791666Y-90334366D02*
X143825000Y-90367700D01*
X143825000Y-90367700D02*
X143858333Y-90434366D01*
X143858333Y-90434366D02*
X143858333Y-90501033D01*
X143858333Y-90501033D02*
X143825000Y-90601033D01*
X143825000Y-90601033D02*
X143425000Y-91001033D01*
X143425000Y-91001033D02*
X143858333Y-91001033D01*
X157284580Y-71501666D02*
X157332200Y-71549285D01*
X157332200Y-71549285D02*
X157379819Y-71692142D01*
X157379819Y-71692142D02*
X157379819Y-71787380D01*
X157379819Y-71787380D02*
X157332200Y-71930237D01*
X157332200Y-71930237D02*
X157236961Y-72025475D01*
X157236961Y-72025475D02*
X157141723Y-72073094D01*
X157141723Y-72073094D02*
X156951247Y-72120713D01*
X156951247Y-72120713D02*
X156808390Y-72120713D01*
X156808390Y-72120713D02*
X156617914Y-72073094D01*
X156617914Y-72073094D02*
X156522676Y-72025475D01*
X156522676Y-72025475D02*
X156427438Y-71930237D01*
X156427438Y-71930237D02*
X156379819Y-71787380D01*
X156379819Y-71787380D02*
X156379819Y-71692142D01*
X156379819Y-71692142D02*
X156427438Y-71549285D01*
X156427438Y-71549285D02*
X156475057Y-71501666D01*
X156713152Y-70644523D02*
X157379819Y-70644523D01*
X156332200Y-70882618D02*
X157046485Y-71120713D01*
X157046485Y-71120713D02*
X157046485Y-70501666D01*
X138866365Y-66834473D02*
X139666783Y-66834473D01*
X139266574Y-68235205D02*
X139266574Y-66834473D01*
X140934111Y-68101802D02*
X140867410Y-68168504D01*
X140867410Y-68168504D02*
X140667305Y-68235205D01*
X140667305Y-68235205D02*
X140533902Y-68235205D01*
X140533902Y-68235205D02*
X140333798Y-68168504D01*
X140333798Y-68168504D02*
X140200395Y-68035100D01*
X140200395Y-68035100D02*
X140133693Y-67901697D01*
X140133693Y-67901697D02*
X140066992Y-67634891D01*
X140066992Y-67634891D02*
X140066992Y-67434787D01*
X140066992Y-67434787D02*
X140133693Y-67167981D01*
X140133693Y-67167981D02*
X140200395Y-67034578D01*
X140200395Y-67034578D02*
X140333798Y-66901175D01*
X140333798Y-66901175D02*
X140533902Y-66834473D01*
X140533902Y-66834473D02*
X140667305Y-66834473D01*
X140667305Y-66834473D02*
X140867410Y-66901175D01*
X140867410Y-66901175D02*
X140934111Y-66967876D01*
X141401022Y-66834473D02*
X142334843Y-66834473D01*
X142334843Y-66834473D02*
X141734530Y-68235205D01*
X143468769Y-66834473D02*
X143201963Y-66834473D01*
X143201963Y-66834473D02*
X143068560Y-66901175D01*
X143068560Y-66901175D02*
X143001858Y-66967876D01*
X143001858Y-66967876D02*
X142868455Y-67167981D01*
X142868455Y-67167981D02*
X142801754Y-67434787D01*
X142801754Y-67434787D02*
X142801754Y-67968399D01*
X142801754Y-67968399D02*
X142868455Y-68101802D01*
X142868455Y-68101802D02*
X142935157Y-68168504D01*
X142935157Y-68168504D02*
X143068560Y-68235205D01*
X143068560Y-68235205D02*
X143335366Y-68235205D01*
X143335366Y-68235205D02*
X143468769Y-68168504D01*
X143468769Y-68168504D02*
X143535470Y-68101802D01*
X143535470Y-68101802D02*
X143602172Y-67968399D01*
X143602172Y-67968399D02*
X143602172Y-67634891D01*
X143602172Y-67634891D02*
X143535470Y-67501488D01*
X143535470Y-67501488D02*
X143468769Y-67434787D01*
X143468769Y-67434787D02*
X143335366Y-67368085D01*
X143335366Y-67368085D02*
X143068560Y-67368085D01*
X143068560Y-67368085D02*
X142935157Y-67434787D01*
X142935157Y-67434787D02*
X142868455Y-67501488D01*
X142868455Y-67501488D02*
X142801754Y-67634891D01*
X144802799Y-66834473D02*
X144535993Y-66834473D01*
X144535993Y-66834473D02*
X144402590Y-66901175D01*
X144402590Y-66901175D02*
X144335888Y-66967876D01*
X144335888Y-66967876D02*
X144202485Y-67167981D01*
X144202485Y-67167981D02*
X144135784Y-67434787D01*
X144135784Y-67434787D02*
X144135784Y-67968399D01*
X144135784Y-67968399D02*
X144202485Y-68101802D01*
X144202485Y-68101802D02*
X144269187Y-68168504D01*
X144269187Y-68168504D02*
X144402590Y-68235205D01*
X144402590Y-68235205D02*
X144669396Y-68235205D01*
X144669396Y-68235205D02*
X144802799Y-68168504D01*
X144802799Y-68168504D02*
X144869500Y-68101802D01*
X144869500Y-68101802D02*
X144936202Y-67968399D01*
X144936202Y-67968399D02*
X144936202Y-67634891D01*
X144936202Y-67634891D02*
X144869500Y-67501488D01*
X144869500Y-67501488D02*
X144802799Y-67434787D01*
X144802799Y-67434787D02*
X144669396Y-67368085D01*
X144669396Y-67368085D02*
X144402590Y-67368085D01*
X144402590Y-67368085D02*
X144269187Y-67434787D01*
X144269187Y-67434787D02*
X144202485Y-67501488D01*
X144202485Y-67501488D02*
X144135784Y-67634891D01*
X145803321Y-66834473D02*
X145936724Y-66834473D01*
X145936724Y-66834473D02*
X146070127Y-66901175D01*
X146070127Y-66901175D02*
X146136829Y-66967876D01*
X146136829Y-66967876D02*
X146203530Y-67101279D01*
X146203530Y-67101279D02*
X146270232Y-67368085D01*
X146270232Y-67368085D02*
X146270232Y-67701593D01*
X146270232Y-67701593D02*
X146203530Y-67968399D01*
X146203530Y-67968399D02*
X146136829Y-68101802D01*
X146136829Y-68101802D02*
X146070127Y-68168504D01*
X146070127Y-68168504D02*
X145936724Y-68235205D01*
X145936724Y-68235205D02*
X145803321Y-68235205D01*
X145803321Y-68235205D02*
X145669918Y-68168504D01*
X145669918Y-68168504D02*
X145603217Y-68101802D01*
X145603217Y-68101802D02*
X145536515Y-67968399D01*
X145536515Y-67968399D02*
X145469814Y-67701593D01*
X145469814Y-67701593D02*
X145469814Y-67368085D01*
X145469814Y-67368085D02*
X145536515Y-67101279D01*
X145536515Y-67101279D02*
X145603217Y-66967876D01*
X145603217Y-66967876D02*
X145669918Y-66901175D01*
X145669918Y-66901175D02*
X145803321Y-66834473D01*
X158868095Y-63514819D02*
X158868095Y-62514819D01*
X158868095Y-62991009D02*
X159439523Y-62991009D01*
X159439523Y-63514819D02*
X159439523Y-62514819D01*
X159868095Y-62610057D02*
X159915714Y-62562438D01*
X159915714Y-62562438D02*
X160010952Y-62514819D01*
X160010952Y-62514819D02*
X160249047Y-62514819D01*
X160249047Y-62514819D02*
X160344285Y-62562438D01*
X160344285Y-62562438D02*
X160391904Y-62610057D01*
X160391904Y-62610057D02*
X160439523Y-62705295D01*
X160439523Y-62705295D02*
X160439523Y-62800533D01*
X160439523Y-62800533D02*
X160391904Y-62943390D01*
X160391904Y-62943390D02*
X159820476Y-63514819D01*
X159820476Y-63514819D02*
X160439523Y-63514819D01*
X157324580Y-77616553D02*
X157372200Y-77664172D01*
X157372200Y-77664172D02*
X157419819Y-77807029D01*
X157419819Y-77807029D02*
X157419819Y-77902267D01*
X157419819Y-77902267D02*
X157372200Y-78045124D01*
X157372200Y-78045124D02*
X157276961Y-78140362D01*
X157276961Y-78140362D02*
X157181723Y-78187981D01*
X157181723Y-78187981D02*
X156991247Y-78235600D01*
X156991247Y-78235600D02*
X156848390Y-78235600D01*
X156848390Y-78235600D02*
X156657914Y-78187981D01*
X156657914Y-78187981D02*
X156562676Y-78140362D01*
X156562676Y-78140362D02*
X156467438Y-78045124D01*
X156467438Y-78045124D02*
X156419819Y-77902267D01*
X156419819Y-77902267D02*
X156419819Y-77807029D01*
X156419819Y-77807029D02*
X156467438Y-77664172D01*
X156467438Y-77664172D02*
X156515057Y-77616553D01*
X156419819Y-77283219D02*
X156419819Y-76664172D01*
X156419819Y-76664172D02*
X156800771Y-76997505D01*
X156800771Y-76997505D02*
X156800771Y-76854648D01*
X156800771Y-76854648D02*
X156848390Y-76759410D01*
X156848390Y-76759410D02*
X156896009Y-76711791D01*
X156896009Y-76711791D02*
X156991247Y-76664172D01*
X156991247Y-76664172D02*
X157229342Y-76664172D01*
X157229342Y-76664172D02*
X157324580Y-76711791D01*
X157324580Y-76711791D02*
X157372200Y-76759410D01*
X157372200Y-76759410D02*
X157419819Y-76854648D01*
X157419819Y-76854648D02*
X157419819Y-77140362D01*
X157419819Y-77140362D02*
X157372200Y-77235600D01*
X157372200Y-77235600D02*
X157324580Y-77283219D01*
X122968571Y-77704700D02*
X124111429Y-77704700D01*
D11*
X132329885Y-97394999D02*
X132187028Y-97494999D01*
X132329885Y-97566428D02*
X132029885Y-97566428D01*
X132029885Y-97566428D02*
X132029885Y-97452142D01*
X132029885Y-97452142D02*
X132044171Y-97423571D01*
X132044171Y-97423571D02*
X132058457Y-97409285D01*
X132058457Y-97409285D02*
X132087028Y-97394999D01*
X132087028Y-97394999D02*
X132129885Y-97394999D01*
X132129885Y-97394999D02*
X132158457Y-97409285D01*
X132158457Y-97409285D02*
X132172742Y-97423571D01*
X132172742Y-97423571D02*
X132187028Y-97452142D01*
X132187028Y-97452142D02*
X132187028Y-97566428D01*
X132329885Y-97109285D02*
X132329885Y-97280714D01*
X132329885Y-97194999D02*
X132029885Y-97194999D01*
X132029885Y-97194999D02*
X132072742Y-97223571D01*
X132072742Y-97223571D02*
X132101314Y-97252142D01*
X132101314Y-97252142D02*
X132115600Y-97280714D01*
X125685000Y-101709885D02*
X125585000Y-101567028D01*
X125513571Y-101709885D02*
X125513571Y-101409885D01*
X125513571Y-101409885D02*
X125627857Y-101409885D01*
X125627857Y-101409885D02*
X125656428Y-101424171D01*
X125656428Y-101424171D02*
X125670714Y-101438457D01*
X125670714Y-101438457D02*
X125685000Y-101467028D01*
X125685000Y-101467028D02*
X125685000Y-101509885D01*
X125685000Y-101509885D02*
X125670714Y-101538457D01*
X125670714Y-101538457D02*
X125656428Y-101552742D01*
X125656428Y-101552742D02*
X125627857Y-101567028D01*
X125627857Y-101567028D02*
X125513571Y-101567028D01*
X125799285Y-101438457D02*
X125813571Y-101424171D01*
X125813571Y-101424171D02*
X125842143Y-101409885D01*
X125842143Y-101409885D02*
X125913571Y-101409885D01*
X125913571Y-101409885D02*
X125942143Y-101424171D01*
X125942143Y-101424171D02*
X125956428Y-101438457D01*
X125956428Y-101438457D02*
X125970714Y-101467028D01*
X125970714Y-101467028D02*
X125970714Y-101495600D01*
X125970714Y-101495600D02*
X125956428Y-101538457D01*
X125956428Y-101538457D02*
X125785000Y-101709885D01*
X125785000Y-101709885D02*
X125970714Y-101709885D01*
D10*
X136885239Y-109532902D02*
X137009048Y-109532902D01*
X137009048Y-109532902D02*
X137070953Y-109563854D01*
X137070953Y-109563854D02*
X137132858Y-109625759D01*
X137132858Y-109625759D02*
X137163810Y-109749569D01*
X137163810Y-109749569D02*
X137163810Y-109966235D01*
X137163810Y-109966235D02*
X137132858Y-110090045D01*
X137132858Y-110090045D02*
X137070953Y-110151950D01*
X137070953Y-110151950D02*
X137009048Y-110182902D01*
X137009048Y-110182902D02*
X136885239Y-110182902D01*
X136885239Y-110182902D02*
X136823334Y-110151950D01*
X136823334Y-110151950D02*
X136761429Y-110090045D01*
X136761429Y-110090045D02*
X136730477Y-109966235D01*
X136730477Y-109966235D02*
X136730477Y-109749569D01*
X136730477Y-109749569D02*
X136761429Y-109625759D01*
X136761429Y-109625759D02*
X136823334Y-109563854D01*
X136823334Y-109563854D02*
X136885239Y-109532902D01*
X137659048Y-109842426D02*
X137442381Y-109842426D01*
X137442381Y-110182902D02*
X137442381Y-109532902D01*
X137442381Y-109532902D02*
X137751905Y-109532902D01*
X138216191Y-109842426D02*
X137999524Y-109842426D01*
X137999524Y-110182902D02*
X137999524Y-109532902D01*
X137999524Y-109532902D02*
X138309048Y-109532902D01*
X148089999Y-109532902D02*
X148213808Y-109532902D01*
X148213808Y-109532902D02*
X148275713Y-109563854D01*
X148275713Y-109563854D02*
X148337618Y-109625759D01*
X148337618Y-109625759D02*
X148368570Y-109749569D01*
X148368570Y-109749569D02*
X148368570Y-109966235D01*
X148368570Y-109966235D02*
X148337618Y-110090045D01*
X148337618Y-110090045D02*
X148275713Y-110151950D01*
X148275713Y-110151950D02*
X148213808Y-110182902D01*
X148213808Y-110182902D02*
X148089999Y-110182902D01*
X148089999Y-110182902D02*
X148028094Y-110151950D01*
X148028094Y-110151950D02*
X147966189Y-110090045D01*
X147966189Y-110090045D02*
X147935237Y-109966235D01*
X147935237Y-109966235D02*
X147935237Y-109749569D01*
X147935237Y-109749569D02*
X147966189Y-109625759D01*
X147966189Y-109625759D02*
X148028094Y-109563854D01*
X148028094Y-109563854D02*
X148089999Y-109532902D01*
X148647141Y-110182902D02*
X148647141Y-109532902D01*
X148647141Y-109532902D02*
X149018570Y-110182902D01*
X149018570Y-110182902D02*
X149018570Y-109532902D01*
D11*
X157325000Y-96811314D02*
X157310714Y-96825600D01*
X157310714Y-96825600D02*
X157267857Y-96839885D01*
X157267857Y-96839885D02*
X157239285Y-96839885D01*
X157239285Y-96839885D02*
X157196428Y-96825600D01*
X157196428Y-96825600D02*
X157167857Y-96797028D01*
X157167857Y-96797028D02*
X157153571Y-96768457D01*
X157153571Y-96768457D02*
X157139285Y-96711314D01*
X157139285Y-96711314D02*
X157139285Y-96668457D01*
X157139285Y-96668457D02*
X157153571Y-96611314D01*
X157153571Y-96611314D02*
X157167857Y-96582742D01*
X157167857Y-96582742D02*
X157196428Y-96554171D01*
X157196428Y-96554171D02*
X157239285Y-96539885D01*
X157239285Y-96539885D02*
X157267857Y-96539885D01*
X157267857Y-96539885D02*
X157310714Y-96554171D01*
X157310714Y-96554171D02*
X157325000Y-96568457D01*
X157496428Y-96668457D02*
X157467857Y-96654171D01*
X157467857Y-96654171D02*
X157453571Y-96639885D01*
X157453571Y-96639885D02*
X157439285Y-96611314D01*
X157439285Y-96611314D02*
X157439285Y-96597028D01*
X157439285Y-96597028D02*
X157453571Y-96568457D01*
X157453571Y-96568457D02*
X157467857Y-96554171D01*
X157467857Y-96554171D02*
X157496428Y-96539885D01*
X157496428Y-96539885D02*
X157553571Y-96539885D01*
X157553571Y-96539885D02*
X157582143Y-96554171D01*
X157582143Y-96554171D02*
X157596428Y-96568457D01*
X157596428Y-96568457D02*
X157610714Y-96597028D01*
X157610714Y-96597028D02*
X157610714Y-96611314D01*
X157610714Y-96611314D02*
X157596428Y-96639885D01*
X157596428Y-96639885D02*
X157582143Y-96654171D01*
X157582143Y-96654171D02*
X157553571Y-96668457D01*
X157553571Y-96668457D02*
X157496428Y-96668457D01*
X157496428Y-96668457D02*
X157467857Y-96682742D01*
X157467857Y-96682742D02*
X157453571Y-96697028D01*
X157453571Y-96697028D02*
X157439285Y-96725600D01*
X157439285Y-96725600D02*
X157439285Y-96782742D01*
X157439285Y-96782742D02*
X157453571Y-96811314D01*
X157453571Y-96811314D02*
X157467857Y-96825600D01*
X157467857Y-96825600D02*
X157496428Y-96839885D01*
X157496428Y-96839885D02*
X157553571Y-96839885D01*
X157553571Y-96839885D02*
X157582143Y-96825600D01*
X157582143Y-96825600D02*
X157596428Y-96811314D01*
X157596428Y-96811314D02*
X157610714Y-96782742D01*
X157610714Y-96782742D02*
X157610714Y-96725600D01*
X157610714Y-96725600D02*
X157596428Y-96697028D01*
X157596428Y-96697028D02*
X157582143Y-96682742D01*
X157582143Y-96682742D02*
X157553571Y-96668457D01*
X126677858Y-99569885D02*
X126849287Y-99569885D01*
X126763572Y-99869885D02*
X126763572Y-99569885D01*
X126949286Y-99869885D02*
X126949286Y-99569885D01*
X126949286Y-99569885D02*
X127063572Y-99569885D01*
X127063572Y-99569885D02*
X127092143Y-99584171D01*
X127092143Y-99584171D02*
X127106429Y-99598457D01*
X127106429Y-99598457D02*
X127120715Y-99627028D01*
X127120715Y-99627028D02*
X127120715Y-99669885D01*
X127120715Y-99669885D02*
X127106429Y-99698457D01*
X127106429Y-99698457D02*
X127092143Y-99712742D01*
X127092143Y-99712742D02*
X127063572Y-99727028D01*
X127063572Y-99727028D02*
X126949286Y-99727028D01*
X127377858Y-99669885D02*
X127377858Y-99869885D01*
X127306429Y-99555600D02*
X127235000Y-99769885D01*
X127235000Y-99769885D02*
X127420715Y-99769885D01*
X127592143Y-99569885D02*
X127620714Y-99569885D01*
X127620714Y-99569885D02*
X127649286Y-99584171D01*
X127649286Y-99584171D02*
X127663572Y-99598457D01*
X127663572Y-99598457D02*
X127677857Y-99627028D01*
X127677857Y-99627028D02*
X127692143Y-99684171D01*
X127692143Y-99684171D02*
X127692143Y-99755600D01*
X127692143Y-99755600D02*
X127677857Y-99812742D01*
X127677857Y-99812742D02*
X127663572Y-99841314D01*
X127663572Y-99841314D02*
X127649286Y-99855600D01*
X127649286Y-99855600D02*
X127620714Y-99869885D01*
X127620714Y-99869885D02*
X127592143Y-99869885D01*
X127592143Y-99869885D02*
X127563572Y-99855600D01*
X127563572Y-99855600D02*
X127549286Y-99841314D01*
X127549286Y-99841314D02*
X127535000Y-99812742D01*
X127535000Y-99812742D02*
X127520714Y-99755600D01*
X127520714Y-99755600D02*
X127520714Y-99684171D01*
X127520714Y-99684171D02*
X127535000Y-99627028D01*
X127535000Y-99627028D02*
X127549286Y-99598457D01*
X127549286Y-99598457D02*
X127563572Y-99584171D01*
X127563572Y-99584171D02*
X127592143Y-99569885D01*
X127963571Y-99569885D02*
X127820714Y-99569885D01*
X127820714Y-99569885D02*
X127806428Y-99712742D01*
X127806428Y-99712742D02*
X127820714Y-99698457D01*
X127820714Y-99698457D02*
X127849286Y-99684171D01*
X127849286Y-99684171D02*
X127920714Y-99684171D01*
X127920714Y-99684171D02*
X127949286Y-99698457D01*
X127949286Y-99698457D02*
X127963571Y-99712742D01*
X127963571Y-99712742D02*
X127977857Y-99741314D01*
X127977857Y-99741314D02*
X127977857Y-99812742D01*
X127977857Y-99812742D02*
X127963571Y-99841314D01*
X127963571Y-99841314D02*
X127949286Y-99855600D01*
X127949286Y-99855600D02*
X127920714Y-99869885D01*
X127920714Y-99869885D02*
X127849286Y-99869885D01*
X127849286Y-99869885D02*
X127820714Y-99855600D01*
X127820714Y-99855600D02*
X127806428Y-99841314D01*
X128235000Y-99569885D02*
X128177857Y-99569885D01*
X128177857Y-99569885D02*
X128149285Y-99584171D01*
X128149285Y-99584171D02*
X128135000Y-99598457D01*
X128135000Y-99598457D02*
X128106428Y-99641314D01*
X128106428Y-99641314D02*
X128092142Y-99698457D01*
X128092142Y-99698457D02*
X128092142Y-99812742D01*
X128092142Y-99812742D02*
X128106428Y-99841314D01*
X128106428Y-99841314D02*
X128120714Y-99855600D01*
X128120714Y-99855600D02*
X128149285Y-99869885D01*
X128149285Y-99869885D02*
X128206428Y-99869885D01*
X128206428Y-99869885D02*
X128235000Y-99855600D01*
X128235000Y-99855600D02*
X128249285Y-99841314D01*
X128249285Y-99841314D02*
X128263571Y-99812742D01*
X128263571Y-99812742D02*
X128263571Y-99741314D01*
X128263571Y-99741314D02*
X128249285Y-99712742D01*
X128249285Y-99712742D02*
X128235000Y-99698457D01*
X128235000Y-99698457D02*
X128206428Y-99684171D01*
X128206428Y-99684171D02*
X128149285Y-99684171D01*
X128149285Y-99684171D02*
X128120714Y-99698457D01*
X128120714Y-99698457D02*
X128106428Y-99712742D01*
X128106428Y-99712742D02*
X128092142Y-99741314D01*
D10*
X160369580Y-97966666D02*
X160417200Y-98014285D01*
X160417200Y-98014285D02*
X160464819Y-98157142D01*
X160464819Y-98157142D02*
X160464819Y-98252380D01*
X160464819Y-98252380D02*
X160417200Y-98395237D01*
X160417200Y-98395237D02*
X160321961Y-98490475D01*
X160321961Y-98490475D02*
X160226723Y-98538094D01*
X160226723Y-98538094D02*
X160036247Y-98585713D01*
X160036247Y-98585713D02*
X159893390Y-98585713D01*
X159893390Y-98585713D02*
X159702914Y-98538094D01*
X159702914Y-98538094D02*
X159607676Y-98490475D01*
X159607676Y-98490475D02*
X159512438Y-98395237D01*
X159512438Y-98395237D02*
X159464819Y-98252380D01*
X159464819Y-98252380D02*
X159464819Y-98157142D01*
X159464819Y-98157142D02*
X159512438Y-98014285D01*
X159512438Y-98014285D02*
X159560057Y-97966666D01*
X160464819Y-97490475D02*
X160464819Y-97299999D01*
X160464819Y-97299999D02*
X160417200Y-97204761D01*
X160417200Y-97204761D02*
X160369580Y-97157142D01*
X160369580Y-97157142D02*
X160226723Y-97061904D01*
X160226723Y-97061904D02*
X160036247Y-97014285D01*
X160036247Y-97014285D02*
X159655295Y-97014285D01*
X159655295Y-97014285D02*
X159560057Y-97061904D01*
X159560057Y-97061904D02*
X159512438Y-97109523D01*
X159512438Y-97109523D02*
X159464819Y-97204761D01*
X159464819Y-97204761D02*
X159464819Y-97395237D01*
X159464819Y-97395237D02*
X159512438Y-97490475D01*
X159512438Y-97490475D02*
X159560057Y-97538094D01*
X159560057Y-97538094D02*
X159655295Y-97585713D01*
X159655295Y-97585713D02*
X159893390Y-97585713D01*
X159893390Y-97585713D02*
X159988628Y-97538094D01*
X159988628Y-97538094D02*
X160036247Y-97490475D01*
X160036247Y-97490475D02*
X160083866Y-97395237D01*
X160083866Y-97395237D02*
X160083866Y-97204761D01*
X160083866Y-97204761D02*
X160036247Y-97109523D01*
X160036247Y-97109523D02*
X159988628Y-97061904D01*
X159988628Y-97061904D02*
X159893390Y-97014285D01*
X127291666Y-90787700D02*
X127391666Y-90821033D01*
X127391666Y-90821033D02*
X127558333Y-90821033D01*
X127558333Y-90821033D02*
X127624999Y-90787700D01*
X127624999Y-90787700D02*
X127658333Y-90754366D01*
X127658333Y-90754366D02*
X127691666Y-90687700D01*
X127691666Y-90687700D02*
X127691666Y-90621033D01*
X127691666Y-90621033D02*
X127658333Y-90554366D01*
X127658333Y-90554366D02*
X127624999Y-90521033D01*
X127624999Y-90521033D02*
X127558333Y-90487700D01*
X127558333Y-90487700D02*
X127424999Y-90454366D01*
X127424999Y-90454366D02*
X127358333Y-90421033D01*
X127358333Y-90421033D02*
X127324999Y-90387700D01*
X127324999Y-90387700D02*
X127291666Y-90321033D01*
X127291666Y-90321033D02*
X127291666Y-90254366D01*
X127291666Y-90254366D02*
X127324999Y-90187700D01*
X127324999Y-90187700D02*
X127358333Y-90154366D01*
X127358333Y-90154366D02*
X127424999Y-90121033D01*
X127424999Y-90121033D02*
X127591666Y-90121033D01*
X127591666Y-90121033D02*
X127691666Y-90154366D01*
X127925000Y-90121033D02*
X128091666Y-90821033D01*
X128091666Y-90821033D02*
X128225000Y-90321033D01*
X128225000Y-90321033D02*
X128358333Y-90821033D01*
X128358333Y-90821033D02*
X128525000Y-90121033D01*
X129158333Y-90821033D02*
X128758333Y-90821033D01*
X128958333Y-90821033D02*
X128958333Y-90121033D01*
X128958333Y-90121033D02*
X128891666Y-90221033D01*
X128891666Y-90221033D02*
X128825000Y-90287700D01*
X128825000Y-90287700D02*
X128758333Y-90321033D01*
X125058095Y-63624819D02*
X125058095Y-62624819D01*
X125058095Y-63101009D02*
X125629523Y-63101009D01*
X125629523Y-63624819D02*
X125629523Y-62624819D01*
X126629523Y-63624819D02*
X126058095Y-63624819D01*
X126343809Y-63624819D02*
X126343809Y-62624819D01*
X126343809Y-62624819D02*
X126248571Y-62767676D01*
X126248571Y-62767676D02*
X126153333Y-62862914D01*
X126153333Y-62862914D02*
X126058095Y-62910533D01*
X123018571Y-74744700D02*
X124161429Y-74744700D01*
X123590000Y-75316128D02*
X123590000Y-74173271D01*
D11*
X144801314Y-98454999D02*
X144815600Y-98469285D01*
X144815600Y-98469285D02*
X144829885Y-98512142D01*
X144829885Y-98512142D02*
X144829885Y-98540714D01*
X144829885Y-98540714D02*
X144815600Y-98583571D01*
X144815600Y-98583571D02*
X144787028Y-98612142D01*
X144787028Y-98612142D02*
X144758457Y-98626428D01*
X144758457Y-98626428D02*
X144701314Y-98640714D01*
X144701314Y-98640714D02*
X144658457Y-98640714D01*
X144658457Y-98640714D02*
X144601314Y-98626428D01*
X144601314Y-98626428D02*
X144572742Y-98612142D01*
X144572742Y-98612142D02*
X144544171Y-98583571D01*
X144544171Y-98583571D02*
X144529885Y-98540714D01*
X144529885Y-98540714D02*
X144529885Y-98512142D01*
X144529885Y-98512142D02*
X144544171Y-98469285D01*
X144544171Y-98469285D02*
X144558457Y-98454999D01*
X144829885Y-98169285D02*
X144829885Y-98340714D01*
X144829885Y-98254999D02*
X144529885Y-98254999D01*
X144529885Y-98254999D02*
X144572742Y-98283571D01*
X144572742Y-98283571D02*
X144601314Y-98312142D01*
X144601314Y-98312142D02*
X144615600Y-98340714D01*
X129163571Y-101699885D02*
X129163571Y-101399885D01*
X129163571Y-101399885D02*
X129235000Y-101399885D01*
X129235000Y-101399885D02*
X129277857Y-101414171D01*
X129277857Y-101414171D02*
X129306428Y-101442742D01*
X129306428Y-101442742D02*
X129320714Y-101471314D01*
X129320714Y-101471314D02*
X129335000Y-101528457D01*
X129335000Y-101528457D02*
X129335000Y-101571314D01*
X129335000Y-101571314D02*
X129320714Y-101628457D01*
X129320714Y-101628457D02*
X129306428Y-101657028D01*
X129306428Y-101657028D02*
X129277857Y-101685600D01*
X129277857Y-101685600D02*
X129235000Y-101699885D01*
X129235000Y-101699885D02*
X129163571Y-101699885D01*
X129620714Y-101699885D02*
X129449285Y-101699885D01*
X129535000Y-101699885D02*
X129535000Y-101399885D01*
X129535000Y-101399885D02*
X129506428Y-101442742D01*
X129506428Y-101442742D02*
X129477857Y-101471314D01*
X129477857Y-101471314D02*
X129449285Y-101485600D01*
D10*
X148189580Y-105482857D02*
X148237200Y-105530476D01*
X148237200Y-105530476D02*
X148284819Y-105673333D01*
X148284819Y-105673333D02*
X148284819Y-105768571D01*
X148284819Y-105768571D02*
X148237200Y-105911428D01*
X148237200Y-105911428D02*
X148141961Y-106006666D01*
X148141961Y-106006666D02*
X148046723Y-106054285D01*
X148046723Y-106054285D02*
X147856247Y-106101904D01*
X147856247Y-106101904D02*
X147713390Y-106101904D01*
X147713390Y-106101904D02*
X147522914Y-106054285D01*
X147522914Y-106054285D02*
X147427676Y-106006666D01*
X147427676Y-106006666D02*
X147332438Y-105911428D01*
X147332438Y-105911428D02*
X147284819Y-105768571D01*
X147284819Y-105768571D02*
X147284819Y-105673333D01*
X147284819Y-105673333D02*
X147332438Y-105530476D01*
X147332438Y-105530476D02*
X147380057Y-105482857D01*
X148284819Y-104530476D02*
X148284819Y-105101904D01*
X148284819Y-104816190D02*
X147284819Y-104816190D01*
X147284819Y-104816190D02*
X147427676Y-104911428D01*
X147427676Y-104911428D02*
X147522914Y-105006666D01*
X147522914Y-105006666D02*
X147570533Y-105101904D01*
X148284819Y-103578095D02*
X148284819Y-104149523D01*
X148284819Y-103863809D02*
X147284819Y-103863809D01*
X147284819Y-103863809D02*
X147427676Y-103959047D01*
X147427676Y-103959047D02*
X147522914Y-104054285D01*
X147522914Y-104054285D02*
X147570533Y-104149523D01*
X125398095Y-111354819D02*
X125398095Y-110354819D01*
X125398095Y-110831009D02*
X125969523Y-110831009D01*
X125969523Y-111354819D02*
X125969523Y-110354819D01*
X126874285Y-110688152D02*
X126874285Y-111354819D01*
X126636190Y-110307200D02*
X126398095Y-111021485D01*
X126398095Y-111021485D02*
X127017142Y-111021485D01*
X123954819Y-70190476D02*
X123954819Y-70666666D01*
X123954819Y-70666666D02*
X122954819Y-70666666D01*
X123954819Y-69857142D02*
X122954819Y-69857142D01*
X122954819Y-69857142D02*
X123669104Y-69523809D01*
X123669104Y-69523809D02*
X122954819Y-69190476D01*
X122954819Y-69190476D02*
X123954819Y-69190476D01*
X122954819Y-68809523D02*
X122954819Y-68190476D01*
X122954819Y-68190476D02*
X123335771Y-68523809D01*
X123335771Y-68523809D02*
X123335771Y-68380952D01*
X123335771Y-68380952D02*
X123383390Y-68285714D01*
X123383390Y-68285714D02*
X123431009Y-68238095D01*
X123431009Y-68238095D02*
X123526247Y-68190476D01*
X123526247Y-68190476D02*
X123764342Y-68190476D01*
X123764342Y-68190476D02*
X123859580Y-68238095D01*
X123859580Y-68238095D02*
X123907200Y-68285714D01*
X123907200Y-68285714D02*
X123954819Y-68380952D01*
X123954819Y-68380952D02*
X123954819Y-68666666D01*
X123954819Y-68666666D02*
X123907200Y-68761904D01*
X123907200Y-68761904D02*
X123859580Y-68809523D01*
X122954819Y-67285714D02*
X122954819Y-67761904D01*
X122954819Y-67761904D02*
X123431009Y-67809523D01*
X123431009Y-67809523D02*
X123383390Y-67761904D01*
X123383390Y-67761904D02*
X123335771Y-67666666D01*
X123335771Y-67666666D02*
X123335771Y-67428571D01*
X123335771Y-67428571D02*
X123383390Y-67333333D01*
X123383390Y-67333333D02*
X123431009Y-67285714D01*
X123431009Y-67285714D02*
X123526247Y-67238095D01*
X123526247Y-67238095D02*
X123764342Y-67238095D01*
X123764342Y-67238095D02*
X123859580Y-67285714D01*
X123859580Y-67285714D02*
X123907200Y-67333333D01*
X123907200Y-67333333D02*
X123954819Y-67428571D01*
X123954819Y-67428571D02*
X123954819Y-67666666D01*
X123954819Y-67666666D02*
X123907200Y-67761904D01*
X123907200Y-67761904D02*
X123859580Y-67809523D01*
X123954819Y-66809523D02*
X122954819Y-66809523D01*
X122954819Y-66809523D02*
X122954819Y-66571428D01*
X122954819Y-66571428D02*
X123002438Y-66428571D01*
X123002438Y-66428571D02*
X123097676Y-66333333D01*
X123097676Y-66333333D02*
X123192914Y-66285714D01*
X123192914Y-66285714D02*
X123383390Y-66238095D01*
X123383390Y-66238095D02*
X123526247Y-66238095D01*
X123526247Y-66238095D02*
X123716723Y-66285714D01*
X123716723Y-66285714D02*
X123811961Y-66333333D01*
X123811961Y-66333333D02*
X123907200Y-66428571D01*
X123907200Y-66428571D02*
X123954819Y-66571428D01*
X123954819Y-66571428D02*
X123954819Y-66809523D01*
X122954819Y-65904761D02*
X122954819Y-65238095D01*
X122954819Y-65238095D02*
X123954819Y-65904761D01*
X123954819Y-65904761D02*
X123954819Y-65238095D01*
D11*
X140371314Y-103537856D02*
X140385600Y-103552142D01*
X140385600Y-103552142D02*
X140399885Y-103594999D01*
X140399885Y-103594999D02*
X140399885Y-103623571D01*
X140399885Y-103623571D02*
X140385600Y-103666428D01*
X140385600Y-103666428D02*
X140357028Y-103694999D01*
X140357028Y-103694999D02*
X140328457Y-103709285D01*
X140328457Y-103709285D02*
X140271314Y-103723571D01*
X140271314Y-103723571D02*
X140228457Y-103723571D01*
X140228457Y-103723571D02*
X140171314Y-103709285D01*
X140171314Y-103709285D02*
X140142742Y-103694999D01*
X140142742Y-103694999D02*
X140114171Y-103666428D01*
X140114171Y-103666428D02*
X140099885Y-103623571D01*
X140099885Y-103623571D02*
X140099885Y-103594999D01*
X140099885Y-103594999D02*
X140114171Y-103552142D01*
X140114171Y-103552142D02*
X140128457Y-103537856D01*
X140399885Y-103252142D02*
X140399885Y-103423571D01*
X140399885Y-103337856D02*
X140099885Y-103337856D01*
X140099885Y-103337856D02*
X140142742Y-103366428D01*
X140142742Y-103366428D02*
X140171314Y-103394999D01*
X140171314Y-103394999D02*
X140185600Y-103423571D01*
X140099885Y-103066428D02*
X140099885Y-103037857D01*
X140099885Y-103037857D02*
X140114171Y-103009285D01*
X140114171Y-103009285D02*
X140128457Y-102995000D01*
X140128457Y-102995000D02*
X140157028Y-102980714D01*
X140157028Y-102980714D02*
X140214171Y-102966428D01*
X140214171Y-102966428D02*
X140285600Y-102966428D01*
X140285600Y-102966428D02*
X140342742Y-102980714D01*
X140342742Y-102980714D02*
X140371314Y-102995000D01*
X140371314Y-102995000D02*
X140385600Y-103009285D01*
X140385600Y-103009285D02*
X140399885Y-103037857D01*
X140399885Y-103037857D02*
X140399885Y-103066428D01*
X140399885Y-103066428D02*
X140385600Y-103095000D01*
X140385600Y-103095000D02*
X140371314Y-103109285D01*
X140371314Y-103109285D02*
X140342742Y-103123571D01*
X140342742Y-103123571D02*
X140285600Y-103137857D01*
X140285600Y-103137857D02*
X140214171Y-103137857D01*
X140214171Y-103137857D02*
X140157028Y-103123571D01*
X140157028Y-103123571D02*
X140128457Y-103109285D01*
X140128457Y-103109285D02*
X140114171Y-103095000D01*
X140114171Y-103095000D02*
X140099885Y-103066428D01*
D10*
X137814580Y-96171666D02*
X137862200Y-96219285D01*
X137862200Y-96219285D02*
X137909819Y-96362142D01*
X137909819Y-96362142D02*
X137909819Y-96457380D01*
X137909819Y-96457380D02*
X137862200Y-96600237D01*
X137862200Y-96600237D02*
X137766961Y-96695475D01*
X137766961Y-96695475D02*
X137671723Y-96743094D01*
X137671723Y-96743094D02*
X137481247Y-96790713D01*
X137481247Y-96790713D02*
X137338390Y-96790713D01*
X137338390Y-96790713D02*
X137147914Y-96743094D01*
X137147914Y-96743094D02*
X137052676Y-96695475D01*
X137052676Y-96695475D02*
X136957438Y-96600237D01*
X136957438Y-96600237D02*
X136909819Y-96457380D01*
X136909819Y-96457380D02*
X136909819Y-96362142D01*
X136909819Y-96362142D02*
X136957438Y-96219285D01*
X136957438Y-96219285D02*
X137005057Y-96171666D01*
X137005057Y-95790713D02*
X136957438Y-95743094D01*
X136957438Y-95743094D02*
X136909819Y-95647856D01*
X136909819Y-95647856D02*
X136909819Y-95409761D01*
X136909819Y-95409761D02*
X136957438Y-95314523D01*
X136957438Y-95314523D02*
X137005057Y-95266904D01*
X137005057Y-95266904D02*
X137100295Y-95219285D01*
X137100295Y-95219285D02*
X137195533Y-95219285D01*
X137195533Y-95219285D02*
X137338390Y-95266904D01*
X137338390Y-95266904D02*
X137909819Y-95838332D01*
X137909819Y-95838332D02*
X137909819Y-95219285D01*
X158818095Y-111314819D02*
X158818095Y-110314819D01*
X158818095Y-110791009D02*
X159389523Y-110791009D01*
X159389523Y-111314819D02*
X159389523Y-110314819D01*
X159770476Y-110314819D02*
X160389523Y-110314819D01*
X160389523Y-110314819D02*
X160056190Y-110695771D01*
X160056190Y-110695771D02*
X160199047Y-110695771D01*
X160199047Y-110695771D02*
X160294285Y-110743390D01*
X160294285Y-110743390D02*
X160341904Y-110791009D01*
X160341904Y-110791009D02*
X160389523Y-110886247D01*
X160389523Y-110886247D02*
X160389523Y-111124342D01*
X160389523Y-111124342D02*
X160341904Y-111219580D01*
X160341904Y-111219580D02*
X160294285Y-111267200D01*
X160294285Y-111267200D02*
X160199047Y-111314819D01*
X160199047Y-111314819D02*
X159913333Y-111314819D01*
X159913333Y-111314819D02*
X159818095Y-111267200D01*
X159818095Y-111267200D02*
X159770476Y-111219580D01*
D11*
X141015000Y-95169885D02*
X140915000Y-95027028D01*
X140843571Y-95169885D02*
X140843571Y-94869885D01*
X140843571Y-94869885D02*
X140957857Y-94869885D01*
X140957857Y-94869885D02*
X140986428Y-94884171D01*
X140986428Y-94884171D02*
X141000714Y-94898457D01*
X141000714Y-94898457D02*
X141015000Y-94927028D01*
X141015000Y-94927028D02*
X141015000Y-94969885D01*
X141015000Y-94969885D02*
X141000714Y-94998457D01*
X141000714Y-94998457D02*
X140986428Y-95012742D01*
X140986428Y-95012742D02*
X140957857Y-95027028D01*
X140957857Y-95027028D02*
X140843571Y-95027028D01*
X141272143Y-94869885D02*
X141215000Y-94869885D01*
X141215000Y-94869885D02*
X141186428Y-94884171D01*
X141186428Y-94884171D02*
X141172143Y-94898457D01*
X141172143Y-94898457D02*
X141143571Y-94941314D01*
X141143571Y-94941314D02*
X141129285Y-94998457D01*
X141129285Y-94998457D02*
X141129285Y-95112742D01*
X141129285Y-95112742D02*
X141143571Y-95141314D01*
X141143571Y-95141314D02*
X141157857Y-95155600D01*
X141157857Y-95155600D02*
X141186428Y-95169885D01*
X141186428Y-95169885D02*
X141243571Y-95169885D01*
X141243571Y-95169885D02*
X141272143Y-95155600D01*
X141272143Y-95155600D02*
X141286428Y-95141314D01*
X141286428Y-95141314D02*
X141300714Y-95112742D01*
X141300714Y-95112742D02*
X141300714Y-95041314D01*
X141300714Y-95041314D02*
X141286428Y-95012742D01*
X141286428Y-95012742D02*
X141272143Y-94998457D01*
X141272143Y-94998457D02*
X141243571Y-94984171D01*
X141243571Y-94984171D02*
X141186428Y-94984171D01*
X141186428Y-94984171D02*
X141157857Y-94998457D01*
X141157857Y-94998457D02*
X141143571Y-95012742D01*
X141143571Y-95012742D02*
X141129285Y-95041314D01*
X143035000Y-86101314D02*
X143020714Y-86115600D01*
X143020714Y-86115600D02*
X142977857Y-86129885D01*
X142977857Y-86129885D02*
X142949285Y-86129885D01*
X142949285Y-86129885D02*
X142906428Y-86115600D01*
X142906428Y-86115600D02*
X142877857Y-86087028D01*
X142877857Y-86087028D02*
X142863571Y-86058457D01*
X142863571Y-86058457D02*
X142849285Y-86001314D01*
X142849285Y-86001314D02*
X142849285Y-85958457D01*
X142849285Y-85958457D02*
X142863571Y-85901314D01*
X142863571Y-85901314D02*
X142877857Y-85872742D01*
X142877857Y-85872742D02*
X142906428Y-85844171D01*
X142906428Y-85844171D02*
X142949285Y-85829885D01*
X142949285Y-85829885D02*
X142977857Y-85829885D01*
X142977857Y-85829885D02*
X143020714Y-85844171D01*
X143020714Y-85844171D02*
X143035000Y-85858457D01*
X143292143Y-85829885D02*
X143235000Y-85829885D01*
X143235000Y-85829885D02*
X143206428Y-85844171D01*
X143206428Y-85844171D02*
X143192143Y-85858457D01*
X143192143Y-85858457D02*
X143163571Y-85901314D01*
X143163571Y-85901314D02*
X143149285Y-85958457D01*
X143149285Y-85958457D02*
X143149285Y-86072742D01*
X143149285Y-86072742D02*
X143163571Y-86101314D01*
X143163571Y-86101314D02*
X143177857Y-86115600D01*
X143177857Y-86115600D02*
X143206428Y-86129885D01*
X143206428Y-86129885D02*
X143263571Y-86129885D01*
X143263571Y-86129885D02*
X143292143Y-86115600D01*
X143292143Y-86115600D02*
X143306428Y-86101314D01*
X143306428Y-86101314D02*
X143320714Y-86072742D01*
X143320714Y-86072742D02*
X143320714Y-86001314D01*
X143320714Y-86001314D02*
X143306428Y-85972742D01*
X143306428Y-85972742D02*
X143292143Y-85958457D01*
X143292143Y-85958457D02*
X143263571Y-85944171D01*
X143263571Y-85944171D02*
X143206428Y-85944171D01*
X143206428Y-85944171D02*
X143177857Y-85958457D01*
X143177857Y-85958457D02*
X143163571Y-85972742D01*
X143163571Y-85972742D02*
X143149285Y-86001314D01*
X157685000Y-86311314D02*
X157670714Y-86325600D01*
X157670714Y-86325600D02*
X157627857Y-86339885D01*
X157627857Y-86339885D02*
X157599285Y-86339885D01*
X157599285Y-86339885D02*
X157556428Y-86325600D01*
X157556428Y-86325600D02*
X157527857Y-86297028D01*
X157527857Y-86297028D02*
X157513571Y-86268457D01*
X157513571Y-86268457D02*
X157499285Y-86211314D01*
X157499285Y-86211314D02*
X157499285Y-86168457D01*
X157499285Y-86168457D02*
X157513571Y-86111314D01*
X157513571Y-86111314D02*
X157527857Y-86082742D01*
X157527857Y-86082742D02*
X157556428Y-86054171D01*
X157556428Y-86054171D02*
X157599285Y-86039885D01*
X157599285Y-86039885D02*
X157627857Y-86039885D01*
X157627857Y-86039885D02*
X157670714Y-86054171D01*
X157670714Y-86054171D02*
X157685000Y-86068457D01*
X157785000Y-86039885D02*
X157985000Y-86039885D01*
X157985000Y-86039885D02*
X157856428Y-86339885D01*
X145355000Y-95219885D02*
X145255000Y-95077028D01*
X145183571Y-95219885D02*
X145183571Y-94919885D01*
X145183571Y-94919885D02*
X145297857Y-94919885D01*
X145297857Y-94919885D02*
X145326428Y-94934171D01*
X145326428Y-94934171D02*
X145340714Y-94948457D01*
X145340714Y-94948457D02*
X145355000Y-94977028D01*
X145355000Y-94977028D02*
X145355000Y-95019885D01*
X145355000Y-95019885D02*
X145340714Y-95048457D01*
X145340714Y-95048457D02*
X145326428Y-95062742D01*
X145326428Y-95062742D02*
X145297857Y-95077028D01*
X145297857Y-95077028D02*
X145183571Y-95077028D01*
X145455000Y-94919885D02*
X145655000Y-94919885D01*
X145655000Y-94919885D02*
X145526428Y-95219885D01*
D10*
X156701666Y-91117700D02*
X156801666Y-91151033D01*
X156801666Y-91151033D02*
X156968333Y-91151033D01*
X156968333Y-91151033D02*
X157034999Y-91117700D01*
X157034999Y-91117700D02*
X157068333Y-91084366D01*
X157068333Y-91084366D02*
X157101666Y-91017700D01*
X157101666Y-91017700D02*
X157101666Y-90951033D01*
X157101666Y-90951033D02*
X157068333Y-90884366D01*
X157068333Y-90884366D02*
X157034999Y-90851033D01*
X157034999Y-90851033D02*
X156968333Y-90817700D01*
X156968333Y-90817700D02*
X156834999Y-90784366D01*
X156834999Y-90784366D02*
X156768333Y-90751033D01*
X156768333Y-90751033D02*
X156734999Y-90717700D01*
X156734999Y-90717700D02*
X156701666Y-90651033D01*
X156701666Y-90651033D02*
X156701666Y-90584366D01*
X156701666Y-90584366D02*
X156734999Y-90517700D01*
X156734999Y-90517700D02*
X156768333Y-90484366D01*
X156768333Y-90484366D02*
X156834999Y-90451033D01*
X156834999Y-90451033D02*
X157001666Y-90451033D01*
X157001666Y-90451033D02*
X157101666Y-90484366D01*
X157335000Y-90451033D02*
X157501666Y-91151033D01*
X157501666Y-91151033D02*
X157635000Y-90651033D01*
X157635000Y-90651033D02*
X157768333Y-91151033D01*
X157768333Y-91151033D02*
X157935000Y-90451033D01*
X158135000Y-90451033D02*
X158568333Y-90451033D01*
X158568333Y-90451033D02*
X158335000Y-90717700D01*
X158335000Y-90717700D02*
X158435000Y-90717700D01*
X158435000Y-90717700D02*
X158501666Y-90751033D01*
X158501666Y-90751033D02*
X158535000Y-90784366D01*
X158535000Y-90784366D02*
X158568333Y-90851033D01*
X158568333Y-90851033D02*
X158568333Y-91017700D01*
X158568333Y-91017700D02*
X158535000Y-91084366D01*
X158535000Y-91084366D02*
X158501666Y-91117700D01*
X158501666Y-91117700D02*
X158435000Y-91151033D01*
X158435000Y-91151033D02*
X158235000Y-91151033D01*
X158235000Y-91151033D02*
X158168333Y-91117700D01*
X158168333Y-91117700D02*
X158135000Y-91084366D01*
D11*
X125595000Y-103759885D02*
X125495000Y-103617028D01*
X125423571Y-103759885D02*
X125423571Y-103459885D01*
X125423571Y-103459885D02*
X125537857Y-103459885D01*
X125537857Y-103459885D02*
X125566428Y-103474171D01*
X125566428Y-103474171D02*
X125580714Y-103488457D01*
X125580714Y-103488457D02*
X125595000Y-103517028D01*
X125595000Y-103517028D02*
X125595000Y-103559885D01*
X125595000Y-103559885D02*
X125580714Y-103588457D01*
X125580714Y-103588457D02*
X125566428Y-103602742D01*
X125566428Y-103602742D02*
X125537857Y-103617028D01*
X125537857Y-103617028D02*
X125423571Y-103617028D01*
X125695000Y-103459885D02*
X125880714Y-103459885D01*
X125880714Y-103459885D02*
X125780714Y-103574171D01*
X125780714Y-103574171D02*
X125823571Y-103574171D01*
X125823571Y-103574171D02*
X125852143Y-103588457D01*
X125852143Y-103588457D02*
X125866428Y-103602742D01*
X125866428Y-103602742D02*
X125880714Y-103631314D01*
X125880714Y-103631314D02*
X125880714Y-103702742D01*
X125880714Y-103702742D02*
X125866428Y-103731314D01*
X125866428Y-103731314D02*
X125852143Y-103745600D01*
X125852143Y-103745600D02*
X125823571Y-103759885D01*
X125823571Y-103759885D02*
X125737857Y-103759885D01*
X125737857Y-103759885D02*
X125709285Y-103745600D01*
X125709285Y-103745600D02*
X125695000Y-103731314D01*
X128355000Y-85891314D02*
X128340714Y-85905600D01*
X128340714Y-85905600D02*
X128297857Y-85919885D01*
X128297857Y-85919885D02*
X128269285Y-85919885D01*
X128269285Y-85919885D02*
X128226428Y-85905600D01*
X128226428Y-85905600D02*
X128197857Y-85877028D01*
X128197857Y-85877028D02*
X128183571Y-85848457D01*
X128183571Y-85848457D02*
X128169285Y-85791314D01*
X128169285Y-85791314D02*
X128169285Y-85748457D01*
X128169285Y-85748457D02*
X128183571Y-85691314D01*
X128183571Y-85691314D02*
X128197857Y-85662742D01*
X128197857Y-85662742D02*
X128226428Y-85634171D01*
X128226428Y-85634171D02*
X128269285Y-85619885D01*
X128269285Y-85619885D02*
X128297857Y-85619885D01*
X128297857Y-85619885D02*
X128340714Y-85634171D01*
X128340714Y-85634171D02*
X128355000Y-85648457D01*
X128626428Y-85619885D02*
X128483571Y-85619885D01*
X128483571Y-85619885D02*
X128469285Y-85762742D01*
X128469285Y-85762742D02*
X128483571Y-85748457D01*
X128483571Y-85748457D02*
X128512143Y-85734171D01*
X128512143Y-85734171D02*
X128583571Y-85734171D01*
X128583571Y-85734171D02*
X128612143Y-85748457D01*
X128612143Y-85748457D02*
X128626428Y-85762742D01*
X128626428Y-85762742D02*
X128640714Y-85791314D01*
X128640714Y-85791314D02*
X128640714Y-85862742D01*
X128640714Y-85862742D02*
X128626428Y-85891314D01*
X128626428Y-85891314D02*
X128612143Y-85905600D01*
X128612143Y-85905600D02*
X128583571Y-85919885D01*
X128583571Y-85919885D02*
X128512143Y-85919885D01*
X128512143Y-85919885D02*
X128483571Y-85905600D01*
X128483571Y-85905600D02*
X128469285Y-85891314D01*
X129216071Y-103779885D02*
X129216071Y-103479885D01*
X129216071Y-103479885D02*
X129287500Y-103479885D01*
X129287500Y-103479885D02*
X129330357Y-103494171D01*
X129330357Y-103494171D02*
X129358928Y-103522742D01*
X129358928Y-103522742D02*
X129373214Y-103551314D01*
X129373214Y-103551314D02*
X129387500Y-103608457D01*
X129387500Y-103608457D02*
X129387500Y-103651314D01*
X129387500Y-103651314D02*
X129373214Y-103708457D01*
X129373214Y-103708457D02*
X129358928Y-103737028D01*
X129358928Y-103737028D02*
X129330357Y-103765600D01*
X129330357Y-103765600D02*
X129287500Y-103779885D01*
X129287500Y-103779885D02*
X129216071Y-103779885D01*
X129501785Y-103508457D02*
X129516071Y-103494171D01*
X129516071Y-103494171D02*
X129544643Y-103479885D01*
X129544643Y-103479885D02*
X129616071Y-103479885D01*
X129616071Y-103479885D02*
X129644643Y-103494171D01*
X129644643Y-103494171D02*
X129658928Y-103508457D01*
X129658928Y-103508457D02*
X129673214Y-103537028D01*
X129673214Y-103537028D02*
X129673214Y-103565600D01*
X129673214Y-103565600D02*
X129658928Y-103608457D01*
X129658928Y-103608457D02*
X129487500Y-103779885D01*
X129487500Y-103779885D02*
X129673214Y-103779885D01*
D10*
X148527619Y-59084819D02*
X148718095Y-59084819D01*
X148718095Y-59084819D02*
X148813333Y-59132438D01*
X148813333Y-59132438D02*
X148908571Y-59227676D01*
X148908571Y-59227676D02*
X148956190Y-59418152D01*
X148956190Y-59418152D02*
X148956190Y-59751485D01*
X148956190Y-59751485D02*
X148908571Y-59941961D01*
X148908571Y-59941961D02*
X148813333Y-60037200D01*
X148813333Y-60037200D02*
X148718095Y-60084819D01*
X148718095Y-60084819D02*
X148527619Y-60084819D01*
X148527619Y-60084819D02*
X148432381Y-60037200D01*
X148432381Y-60037200D02*
X148337143Y-59941961D01*
X148337143Y-59941961D02*
X148289524Y-59751485D01*
X148289524Y-59751485D02*
X148289524Y-59418152D01*
X148289524Y-59418152D02*
X148337143Y-59227676D01*
X148337143Y-59227676D02*
X148432381Y-59132438D01*
X148432381Y-59132438D02*
X148527619Y-59084819D01*
X149860952Y-60084819D02*
X149384762Y-60084819D01*
X149384762Y-60084819D02*
X149384762Y-59084819D01*
X150194286Y-59561009D02*
X150527619Y-59561009D01*
X150670476Y-60084819D02*
X150194286Y-60084819D01*
X150194286Y-60084819D02*
X150194286Y-59084819D01*
X150194286Y-59084819D02*
X150670476Y-59084819D01*
X151099048Y-60084819D02*
X151099048Y-59084819D01*
X151099048Y-59084819D02*
X151337143Y-59084819D01*
X151337143Y-59084819D02*
X151480000Y-59132438D01*
X151480000Y-59132438D02*
X151575238Y-59227676D01*
X151575238Y-59227676D02*
X151622857Y-59322914D01*
X151622857Y-59322914D02*
X151670476Y-59513390D01*
X151670476Y-59513390D02*
X151670476Y-59656247D01*
X151670476Y-59656247D02*
X151622857Y-59846723D01*
X151622857Y-59846723D02*
X151575238Y-59941961D01*
X151575238Y-59941961D02*
X151480000Y-60037200D01*
X151480000Y-60037200D02*
X151337143Y-60084819D01*
X151337143Y-60084819D02*
X151099048Y-60084819D01*
D12*
%TO.C,G\u002A\u002A\u002A*%
G36*
X149363163Y-80022908D02*
G01*
X149356684Y-80029388D01*
X149350204Y-80022908D01*
X149356684Y-80016429D01*
X149363163Y-80022908D01*
G37*
G36*
X154132143Y-76951582D02*
G01*
X154125663Y-76958062D01*
X154119184Y-76951582D01*
X154125663Y-76945102D01*
X154132143Y-76951582D01*
G37*
G36*
X155726122Y-69551888D02*
G01*
X155719643Y-69558368D01*
X155713163Y-69551888D01*
X155719643Y-69545408D01*
X155726122Y-69551888D01*
G37*
G36*
X156218571Y-77016378D02*
G01*
X156212092Y-77022857D01*
X156205612Y-77016378D01*
X156212092Y-77009898D01*
X156218571Y-77016378D01*
G37*
D13*
%TO.C,SW2*%
X139805000Y-91835000D02*
X139805000Y-89635000D01*
X140275000Y-93805000D02*
X145475000Y-93805000D01*
X140875000Y-87565000D02*
X145275000Y-87565000D01*
X146045000Y-89635000D02*
X146045000Y-91835000D01*
X144339214Y-90685000D02*
G75*
G02*
X141510786Y-90685000I-1414214J0D01*
G01*
X141510786Y-90685000D02*
G75*
G02*
X144339214Y-90685000I1414214J0D01*
G01*
%TO.C,C4*%
X156715000Y-68190113D02*
X158255000Y-68190113D01*
X156715000Y-68230113D02*
X158255000Y-68230113D01*
X156716000Y-68150113D02*
X158255000Y-68150113D01*
X156717000Y-68110113D02*
X158255000Y-68110113D01*
X156719000Y-68070113D02*
X158255000Y-68070113D01*
X156722000Y-68030113D02*
X158255000Y-68030113D01*
X156726000Y-67990113D02*
X158255000Y-67990113D01*
X156730000Y-67950113D02*
X158255000Y-67950113D01*
X156734000Y-67910113D02*
X158255000Y-67910113D01*
X156739000Y-67870113D02*
X158255000Y-67870113D01*
X156745000Y-67830113D02*
X158255000Y-67830113D01*
X156752000Y-67790113D02*
X158255000Y-67790113D01*
X156759000Y-67750113D02*
X158255000Y-67750113D01*
X156767000Y-67710113D02*
X158255000Y-67710113D01*
X156775000Y-67670113D02*
X158255000Y-67670113D01*
X156784000Y-67630113D02*
X158255000Y-67630113D01*
X156794000Y-67590113D02*
X158255000Y-67590113D01*
X156804000Y-67550113D02*
X158255000Y-67550113D01*
X156815000Y-67509113D02*
X158255000Y-67509113D01*
X156827000Y-67469113D02*
X158255000Y-67469113D01*
X156840000Y-67429113D02*
X158255000Y-67429113D01*
X156853000Y-67389113D02*
X158255000Y-67389113D01*
X156867000Y-67349113D02*
X158255000Y-67349113D01*
X156881000Y-67309113D02*
X158255000Y-67309113D01*
X156897000Y-67269113D02*
X158255000Y-67269113D01*
X156913000Y-67229113D02*
X158255000Y-67229113D01*
X156930000Y-67189113D02*
X158255000Y-67189113D01*
X156947000Y-67149113D02*
X158255000Y-67149113D01*
X156966000Y-67109113D02*
X158255000Y-67109113D01*
X156985000Y-67069113D02*
X158255000Y-67069113D01*
X157005000Y-67029113D02*
X158255000Y-67029113D01*
X157027000Y-66989113D02*
X158255000Y-66989113D01*
X157048000Y-66949113D02*
X158255000Y-66949113D01*
X157071000Y-66909113D02*
X158255000Y-66909113D01*
X157095000Y-66869113D02*
X158255000Y-66869113D01*
X157120000Y-66829113D02*
X158255000Y-66829113D01*
X157146000Y-66789113D02*
X158255000Y-66789113D01*
X157173000Y-66749113D02*
X158255000Y-66749113D01*
X157200000Y-66709113D02*
X158255000Y-66709113D01*
X157230000Y-66669113D02*
X158255000Y-66669113D01*
X157260000Y-66629113D02*
X158255000Y-66629113D01*
X157291000Y-66589113D02*
X158255000Y-66589113D01*
X157324000Y-66549113D02*
X158255000Y-66549113D01*
X157358000Y-66509113D02*
X158255000Y-66509113D01*
X157394000Y-66469113D02*
X158255000Y-66469113D01*
X157431000Y-66429113D02*
X158255000Y-66429113D01*
X157469000Y-66389113D02*
X158255000Y-66389113D01*
X157510000Y-66349113D02*
X158255000Y-66349113D01*
X157552000Y-66309113D02*
X158255000Y-66309113D01*
X157570000Y-70784888D02*
X158070000Y-70784888D01*
X157596000Y-66269113D02*
X158255000Y-66269113D01*
X157642000Y-66229113D02*
X158255000Y-66229113D01*
X157690000Y-66189113D02*
X160900000Y-66189113D01*
X157741000Y-66149113D02*
X160849000Y-66149113D01*
X157795000Y-66109113D02*
X160795000Y-66109113D01*
X157820000Y-71034888D02*
X157820000Y-70534888D01*
X157852000Y-66069113D02*
X160738000Y-66069113D01*
X157912000Y-66029113D02*
X160678000Y-66029113D01*
X157976000Y-65989113D02*
X160614000Y-65989113D01*
X158044000Y-65949113D02*
X160546000Y-65949113D01*
X158117000Y-65909113D02*
X160473000Y-65909113D01*
X158197000Y-65869113D02*
X160393000Y-65869113D01*
X158284000Y-65829113D02*
X160306000Y-65829113D01*
X158380000Y-65789113D02*
X160210000Y-65789113D01*
X158490000Y-65749113D02*
X160100000Y-65749113D01*
X158618000Y-65709113D02*
X159972000Y-65709113D01*
X158777000Y-65669113D02*
X159813000Y-65669113D01*
X159011000Y-65629113D02*
X159579000Y-65629113D01*
X160335000Y-66229113D02*
X160948000Y-66229113D01*
X160335000Y-66269113D02*
X160994000Y-66269113D01*
X160335000Y-66309113D02*
X161038000Y-66309113D01*
X160335000Y-66349113D02*
X161080000Y-66349113D01*
X160335000Y-66389113D02*
X161121000Y-66389113D01*
X160335000Y-66429113D02*
X161159000Y-66429113D01*
X160335000Y-66469113D02*
X161196000Y-66469113D01*
X160335000Y-66509113D02*
X161232000Y-66509113D01*
X160335000Y-66549113D02*
X161266000Y-66549113D01*
X160335000Y-66589113D02*
X161299000Y-66589113D01*
X160335000Y-66629113D02*
X161330000Y-66629113D01*
X160335000Y-66669113D02*
X161360000Y-66669113D01*
X160335000Y-66709113D02*
X161390000Y-66709113D01*
X160335000Y-66749113D02*
X161417000Y-66749113D01*
X160335000Y-66789113D02*
X161444000Y-66789113D01*
X160335000Y-66829113D02*
X161470000Y-66829113D01*
X160335000Y-66869113D02*
X161495000Y-66869113D01*
X160335000Y-66909113D02*
X161519000Y-66909113D01*
X160335000Y-66949113D02*
X161542000Y-66949113D01*
X160335000Y-66989113D02*
X161563000Y-66989113D01*
X160335000Y-67029113D02*
X161585000Y-67029113D01*
X160335000Y-67069113D02*
X161605000Y-67069113D01*
X160335000Y-67109113D02*
X161624000Y-67109113D01*
X160335000Y-67149113D02*
X161643000Y-67149113D01*
X160335000Y-67189113D02*
X161660000Y-67189113D01*
X160335000Y-67229113D02*
X161677000Y-67229113D01*
X160335000Y-67269113D02*
X161693000Y-67269113D01*
X160335000Y-67309113D02*
X161709000Y-67309113D01*
X160335000Y-67349113D02*
X161723000Y-67349113D01*
X160335000Y-67389113D02*
X161737000Y-67389113D01*
X160335000Y-67429113D02*
X161750000Y-67429113D01*
X160335000Y-67469113D02*
X161763000Y-67469113D01*
X160335000Y-67509113D02*
X161775000Y-67509113D01*
X160335000Y-67550113D02*
X161786000Y-67550113D01*
X160335000Y-67590113D02*
X161796000Y-67590113D01*
X160335000Y-67630113D02*
X161806000Y-67630113D01*
X160335000Y-67670113D02*
X161815000Y-67670113D01*
X160335000Y-67710113D02*
X161823000Y-67710113D01*
X160335000Y-67750113D02*
X161831000Y-67750113D01*
X160335000Y-67790113D02*
X161838000Y-67790113D01*
X160335000Y-67830113D02*
X161845000Y-67830113D01*
X160335000Y-67870113D02*
X161851000Y-67870113D01*
X160335000Y-67910113D02*
X161856000Y-67910113D01*
X160335000Y-67950113D02*
X161860000Y-67950113D01*
X160335000Y-67990113D02*
X161864000Y-67990113D01*
X160335000Y-68030113D02*
X161868000Y-68030113D01*
X160335000Y-68070113D02*
X161871000Y-68070113D01*
X160335000Y-68110113D02*
X161873000Y-68110113D01*
X160335000Y-68150113D02*
X161874000Y-68150113D01*
X160335000Y-68190113D02*
X161875000Y-68190113D01*
X160335000Y-68230113D02*
X161875000Y-68230113D01*
X161915000Y-68230113D02*
G75*
G02*
X156675000Y-68230113I-2620000J0D01*
G01*
X156675000Y-68230113D02*
G75*
G02*
X161915000Y-68230113I2620000J0D01*
G01*
D14*
%TO.C,TC7660*%
X137665000Y-65165000D02*
X137665000Y-67070000D01*
X137665000Y-65165000D02*
X147825000Y-65165000D01*
X137665000Y-68340000D02*
X137665000Y-70245000D01*
X147825000Y-70245000D02*
X137665000Y-70245000D01*
X147825000Y-70245000D02*
X147825000Y-65165000D01*
X137665000Y-67070000D02*
G75*
G02*
X137665000Y-68340000I0J-635000D01*
G01*
D13*
%TO.C,C3*%
X156885000Y-74365000D02*
X158425000Y-74365000D01*
X156885000Y-74405000D02*
X158425000Y-74405000D01*
X156886000Y-74325000D02*
X158425000Y-74325000D01*
X156887000Y-74285000D02*
X158425000Y-74285000D01*
X156889000Y-74245000D02*
X158425000Y-74245000D01*
X156892000Y-74205000D02*
X158425000Y-74205000D01*
X156896000Y-74165000D02*
X158425000Y-74165000D01*
X156900000Y-74125000D02*
X158425000Y-74125000D01*
X156904000Y-74085000D02*
X158425000Y-74085000D01*
X156909000Y-74045000D02*
X158425000Y-74045000D01*
X156915000Y-74005000D02*
X158425000Y-74005000D01*
X156922000Y-73965000D02*
X158425000Y-73965000D01*
X156929000Y-73925000D02*
X158425000Y-73925000D01*
X156937000Y-73885000D02*
X158425000Y-73885000D01*
X156945000Y-73845000D02*
X158425000Y-73845000D01*
X156954000Y-73805000D02*
X158425000Y-73805000D01*
X156964000Y-73765000D02*
X158425000Y-73765000D01*
X156974000Y-73725000D02*
X158425000Y-73725000D01*
X156985000Y-73684000D02*
X158425000Y-73684000D01*
X156997000Y-73644000D02*
X158425000Y-73644000D01*
X157010000Y-73604000D02*
X158425000Y-73604000D01*
X157023000Y-73564000D02*
X158425000Y-73564000D01*
X157037000Y-73524000D02*
X158425000Y-73524000D01*
X157051000Y-73484000D02*
X158425000Y-73484000D01*
X157067000Y-73444000D02*
X158425000Y-73444000D01*
X157083000Y-73404000D02*
X158425000Y-73404000D01*
X157100000Y-73364000D02*
X158425000Y-73364000D01*
X157117000Y-73324000D02*
X158425000Y-73324000D01*
X157136000Y-73284000D02*
X158425000Y-73284000D01*
X157155000Y-73244000D02*
X158425000Y-73244000D01*
X157175000Y-73204000D02*
X158425000Y-73204000D01*
X157197000Y-73164000D02*
X158425000Y-73164000D01*
X157218000Y-73124000D02*
X158425000Y-73124000D01*
X157241000Y-73084000D02*
X158425000Y-73084000D01*
X157265000Y-73044000D02*
X158425000Y-73044000D01*
X157290000Y-73004000D02*
X158425000Y-73004000D01*
X157316000Y-72964000D02*
X158425000Y-72964000D01*
X157343000Y-72924000D02*
X158425000Y-72924000D01*
X157370000Y-72884000D02*
X158425000Y-72884000D01*
X157400000Y-72844000D02*
X158425000Y-72844000D01*
X157430000Y-72804000D02*
X158425000Y-72804000D01*
X157461000Y-72764000D02*
X158425000Y-72764000D01*
X157494000Y-72724000D02*
X158425000Y-72724000D01*
X157528000Y-72684000D02*
X158425000Y-72684000D01*
X157564000Y-72644000D02*
X158425000Y-72644000D01*
X157601000Y-72604000D02*
X158425000Y-72604000D01*
X157639000Y-72564000D02*
X158425000Y-72564000D01*
X157680000Y-72524000D02*
X158425000Y-72524000D01*
X157722000Y-72484000D02*
X158425000Y-72484000D01*
X157740000Y-76959775D02*
X158240000Y-76959775D01*
X157766000Y-72444000D02*
X158425000Y-72444000D01*
X157812000Y-72404000D02*
X158425000Y-72404000D01*
X157860000Y-72364000D02*
X161070000Y-72364000D01*
X157911000Y-72324000D02*
X161019000Y-72324000D01*
X157965000Y-72284000D02*
X160965000Y-72284000D01*
X157990000Y-77209775D02*
X157990000Y-76709775D01*
X158022000Y-72244000D02*
X160908000Y-72244000D01*
X158082000Y-72204000D02*
X160848000Y-72204000D01*
X158146000Y-72164000D02*
X160784000Y-72164000D01*
X158214000Y-72124000D02*
X160716000Y-72124000D01*
X158287000Y-72084000D02*
X160643000Y-72084000D01*
X158367000Y-72044000D02*
X160563000Y-72044000D01*
X158454000Y-72004000D02*
X160476000Y-72004000D01*
X158550000Y-71964000D02*
X160380000Y-71964000D01*
X158660000Y-71924000D02*
X160270000Y-71924000D01*
X158788000Y-71884000D02*
X160142000Y-71884000D01*
X158947000Y-71844000D02*
X159983000Y-71844000D01*
X159181000Y-71804000D02*
X159749000Y-71804000D01*
X160505000Y-72404000D02*
X161118000Y-72404000D01*
X160505000Y-72444000D02*
X161164000Y-72444000D01*
X160505000Y-72484000D02*
X161208000Y-72484000D01*
X160505000Y-72524000D02*
X161250000Y-72524000D01*
X160505000Y-72564000D02*
X161291000Y-72564000D01*
X160505000Y-72604000D02*
X161329000Y-72604000D01*
X160505000Y-72644000D02*
X161366000Y-72644000D01*
X160505000Y-72684000D02*
X161402000Y-72684000D01*
X160505000Y-72724000D02*
X161436000Y-72724000D01*
X160505000Y-72764000D02*
X161469000Y-72764000D01*
X160505000Y-72804000D02*
X161500000Y-72804000D01*
X160505000Y-72844000D02*
X161530000Y-72844000D01*
X160505000Y-72884000D02*
X161560000Y-72884000D01*
X160505000Y-72924000D02*
X161587000Y-72924000D01*
X160505000Y-72964000D02*
X161614000Y-72964000D01*
X160505000Y-73004000D02*
X161640000Y-73004000D01*
X160505000Y-73044000D02*
X161665000Y-73044000D01*
X160505000Y-73084000D02*
X161689000Y-73084000D01*
X160505000Y-73124000D02*
X161712000Y-73124000D01*
X160505000Y-73164000D02*
X161733000Y-73164000D01*
X160505000Y-73204000D02*
X161755000Y-73204000D01*
X160505000Y-73244000D02*
X161775000Y-73244000D01*
X160505000Y-73284000D02*
X161794000Y-73284000D01*
X160505000Y-73324000D02*
X161813000Y-73324000D01*
X160505000Y-73364000D02*
X161830000Y-73364000D01*
X160505000Y-73404000D02*
X161847000Y-73404000D01*
X160505000Y-73444000D02*
X161863000Y-73444000D01*
X160505000Y-73484000D02*
X161879000Y-73484000D01*
X160505000Y-73524000D02*
X161893000Y-73524000D01*
X160505000Y-73564000D02*
X161907000Y-73564000D01*
X160505000Y-73604000D02*
X161920000Y-73604000D01*
X160505000Y-73644000D02*
X161933000Y-73644000D01*
X160505000Y-73684000D02*
X161945000Y-73684000D01*
X160505000Y-73725000D02*
X161956000Y-73725000D01*
X160505000Y-73765000D02*
X161966000Y-73765000D01*
X160505000Y-73805000D02*
X161976000Y-73805000D01*
X160505000Y-73845000D02*
X161985000Y-73845000D01*
X160505000Y-73885000D02*
X161993000Y-73885000D01*
X160505000Y-73925000D02*
X162001000Y-73925000D01*
X160505000Y-73965000D02*
X162008000Y-73965000D01*
X160505000Y-74005000D02*
X162015000Y-74005000D01*
X160505000Y-74045000D02*
X162021000Y-74045000D01*
X160505000Y-74085000D02*
X162026000Y-74085000D01*
X160505000Y-74125000D02*
X162030000Y-74125000D01*
X160505000Y-74165000D02*
X162034000Y-74165000D01*
X160505000Y-74205000D02*
X162038000Y-74205000D01*
X160505000Y-74245000D02*
X162041000Y-74245000D01*
X160505000Y-74285000D02*
X162043000Y-74285000D01*
X160505000Y-74325000D02*
X162044000Y-74325000D01*
X160505000Y-74365000D02*
X162045000Y-74365000D01*
X160505000Y-74405000D02*
X162045000Y-74405000D01*
X162085000Y-74405000D02*
G75*
G02*
X156845000Y-74405000I-2620000J0D01*
G01*
X156845000Y-74405000D02*
G75*
G02*
X162085000Y-74405000I2620000J0D01*
G01*
%TO.C,-*%
X124535000Y-76785000D02*
X124535000Y-76665000D01*
X124535000Y-78785000D02*
X124535000Y-77725000D01*
X125595000Y-78785000D02*
X124535000Y-78785000D01*
X126655000Y-76665000D02*
X124535000Y-76665000D01*
X126655000Y-76785000D02*
X126655000Y-76665000D01*
D12*
%TO.C,G\u002A\u002A\u002A*%
G36*
X153351202Y-110673106D02*
G01*
X153377817Y-110711444D01*
X153377888Y-110713836D01*
X153353267Y-110751715D01*
X153329811Y-110764887D01*
X153273106Y-110766182D01*
X153236321Y-110735674D01*
X153237176Y-110691719D01*
X153246985Y-110679087D01*
X153297434Y-110659624D01*
X153351202Y-110673106D01*
G37*
G36*
X153755258Y-111017912D02*
G01*
X153760544Y-111023235D01*
X153786976Y-111065318D01*
X153762305Y-111103086D01*
X153715970Y-111123703D01*
X153669844Y-111101472D01*
X153634364Y-111067744D01*
X153649991Y-111037288D01*
X153668083Y-111021621D01*
X153714861Y-110995470D01*
X153755258Y-111017912D01*
G37*
G36*
X155060056Y-104337550D02*
G01*
X155065086Y-104362026D01*
X155050348Y-104421196D01*
X155033066Y-104441358D01*
X154985167Y-104442187D01*
X154942915Y-104406221D01*
X154929615Y-104355421D01*
X154932148Y-104346255D01*
X154970510Y-104307386D01*
X155022334Y-104305574D01*
X155060056Y-104337550D01*
G37*
G36*
X153468181Y-110933781D02*
G01*
X153477116Y-110943909D01*
X153498728Y-111010626D01*
X153491195Y-111086600D01*
X153462248Y-111133762D01*
X153388572Y-111157126D01*
X153318131Y-111132629D01*
X153272621Y-111070920D01*
X153266221Y-111037565D01*
X153286741Y-110973648D01*
X153341825Y-110928569D01*
X153409598Y-110912041D01*
X153468181Y-110933781D01*
G37*
G36*
X153318390Y-106167925D02*
G01*
X153373295Y-106200938D01*
X153421730Y-106242358D01*
X153439241Y-106271689D01*
X153419255Y-106300119D01*
X153370719Y-106350099D01*
X153366470Y-106354115D01*
X153315082Y-106397131D01*
X153288483Y-106398130D01*
X153274441Y-106372291D01*
X153257535Y-106294651D01*
X153258600Y-106216547D01*
X153276672Y-106165274D01*
X153281899Y-106160849D01*
X153318390Y-106167925D01*
G37*
G36*
X155703933Y-108977605D02*
G01*
X155709225Y-109044621D01*
X155709289Y-109062531D01*
X155700151Y-109144853D01*
X155676789Y-109191296D01*
X155670944Y-109194440D01*
X155611778Y-109202026D01*
X155555907Y-109201146D01*
X155495685Y-109181061D01*
X155470910Y-109121657D01*
X155469510Y-109110998D01*
X155473341Y-109045940D01*
X155507855Y-109026638D01*
X155549996Y-109012521D01*
X155555907Y-108999538D01*
X155582102Y-108974176D01*
X155632598Y-108957778D01*
X155682130Y-108953764D01*
X155703933Y-108977605D01*
G37*
G36*
X155549750Y-110242933D02*
G01*
X155556886Y-110247184D01*
X155624729Y-110277402D01*
X155662858Y-110284368D01*
X155703795Y-110308736D01*
X155709289Y-110330382D01*
X155684700Y-110370952D01*
X155662858Y-110376397D01*
X155600176Y-110391978D01*
X155556886Y-110413581D01*
X155500464Y-110433247D01*
X155468923Y-110419419D01*
X155478057Y-110382009D01*
X155488201Y-110370480D01*
X155507447Y-110325761D01*
X155489453Y-110293559D01*
X155469298Y-110246743D01*
X155494063Y-110226659D01*
X155549750Y-110242933D01*
G37*
G36*
X153221833Y-106032535D02*
G01*
X153225374Y-106036742D01*
X153248903Y-106084660D01*
X153232258Y-106143438D01*
X153225131Y-106157234D01*
X153199871Y-106267922D01*
X153229825Y-106403507D01*
X153237296Y-106421905D01*
X153232950Y-106481164D01*
X153207048Y-106512939D01*
X153165400Y-106536350D01*
X153127807Y-106517347D01*
X153098285Y-106483779D01*
X153053508Y-106386236D01*
X153042208Y-106261287D01*
X153065054Y-106133369D01*
X153087251Y-106080187D01*
X153133126Y-106009342D01*
X153174433Y-105994575D01*
X153221833Y-106032535D01*
G37*
G36*
X154181421Y-103997283D02*
G01*
X154216472Y-104054519D01*
X154212607Y-104098992D01*
X154177624Y-104151131D01*
X154140989Y-104225663D01*
X154131609Y-104275944D01*
X154110259Y-104347265D01*
X154084619Y-104379398D01*
X154047864Y-104399792D01*
X154035506Y-104367410D01*
X154034970Y-104360147D01*
X154034267Y-104290748D01*
X154036149Y-104265082D01*
X154024080Y-104213508D01*
X153993073Y-104154368D01*
X153961723Y-104068358D01*
X153986719Y-104000679D01*
X154062099Y-103960479D01*
X154137618Y-103960422D01*
X154181421Y-103997283D01*
G37*
G36*
X155524340Y-108221721D02*
G01*
X155525231Y-108229054D01*
X155551888Y-108250593D01*
X155616115Y-108259728D01*
X155617260Y-108259730D01*
X155690322Y-108273449D01*
X155709289Y-108305745D01*
X155681851Y-108342276D01*
X155617260Y-108351759D01*
X155544198Y-108365478D01*
X155525231Y-108397774D01*
X155508667Y-108438597D01*
X155494555Y-108443788D01*
X155475345Y-108416574D01*
X155464661Y-108348588D01*
X155463878Y-108321083D01*
X155470682Y-108244244D01*
X155487678Y-108201506D01*
X155494555Y-108198377D01*
X155524340Y-108221721D01*
G37*
G36*
X155678613Y-109808885D02*
G01*
X155702359Y-109851170D01*
X155709289Y-109902724D01*
X155698557Y-109959503D01*
X155678613Y-109977605D01*
X155648808Y-109956253D01*
X155647936Y-109949643D01*
X155625086Y-109929875D01*
X155576742Y-109933808D01*
X155536344Y-109956266D01*
X155493138Y-109976954D01*
X155467836Y-109942213D01*
X155463878Y-109901681D01*
X155470851Y-109849970D01*
X155504198Y-109836518D01*
X155555907Y-109844163D01*
X155627667Y-109848112D01*
X155647936Y-109826247D01*
X155666417Y-109804359D01*
X155678613Y-109808885D01*
G37*
G36*
X155989210Y-106982828D02*
G01*
X156063675Y-106996285D01*
X156109543Y-107001999D01*
X156109878Y-107002001D01*
X156131884Y-107028459D01*
X156147462Y-107086361D01*
X156156311Y-107137934D01*
X156161085Y-107133601D01*
X156164838Y-107071022D01*
X156181489Y-106993311D01*
X156215448Y-106971324D01*
X156244385Y-106987744D01*
X156258518Y-107044595D01*
X156261463Y-107124706D01*
X156261463Y-107278088D01*
X156077405Y-107278088D01*
X155893347Y-107278088D01*
X155893347Y-107120871D01*
X155893347Y-106963655D01*
X155989210Y-106982828D01*
G37*
G36*
X155665384Y-108676322D02*
G01*
X155700417Y-108695965D01*
X155709158Y-108743509D01*
X155709289Y-108757523D01*
X155699736Y-108819060D01*
X155678613Y-108842580D01*
X155648828Y-108819236D01*
X155647936Y-108811904D01*
X155622243Y-108786980D01*
X155586584Y-108781228D01*
X155536736Y-108794074D01*
X155525231Y-108811904D01*
X155501887Y-108841689D01*
X155494555Y-108842580D01*
X155472361Y-108816093D01*
X155463878Y-108757523D01*
X155469441Y-108702900D01*
X155497778Y-108678616D01*
X155566367Y-108672557D01*
X155586584Y-108672466D01*
X155665384Y-108676322D01*
G37*
G36*
X156235911Y-108527759D02*
G01*
X156259713Y-108596262D01*
X156266436Y-108645348D01*
X156270470Y-108731638D01*
X156267829Y-108788412D01*
X156264412Y-108798729D01*
X156229048Y-108805815D01*
X156151050Y-108810598D01*
X156072292Y-108811904D01*
X155893347Y-108811904D01*
X155893347Y-108656671D01*
X155893347Y-108501437D01*
X156007172Y-108510958D01*
X156088583Y-108526581D01*
X156129708Y-108564021D01*
X156142157Y-108597170D01*
X156163318Y-108673861D01*
X156166376Y-108589501D01*
X156179665Y-108519032D01*
X156206036Y-108500234D01*
X156235911Y-108527759D01*
G37*
G36*
X156568749Y-107219971D02*
G01*
X156588496Y-107283939D01*
X156589717Y-107296710D01*
X156589733Y-107369147D01*
X156578978Y-107410487D01*
X156578803Y-107410667D01*
X156540022Y-107413899D01*
X156522212Y-107407062D01*
X156509390Y-107402140D01*
X156470740Y-107356050D01*
X156470537Y-107354778D01*
X156506873Y-107354778D01*
X156522212Y-107370117D01*
X156537550Y-107354778D01*
X156522212Y-107339440D01*
X156506873Y-107354778D01*
X156470537Y-107354778D01*
X156460384Y-107291115D01*
X156476542Y-107231613D01*
X156517436Y-107201822D01*
X156524103Y-107201397D01*
X156568749Y-107219971D01*
G37*
G36*
X155675949Y-104160998D02*
G01*
X155710420Y-104194991D01*
X155688122Y-104248541D01*
X155672477Y-104265672D01*
X155651135Y-104296069D01*
X155672477Y-104302484D01*
X155706545Y-104318987D01*
X155697536Y-104352578D01*
X155664660Y-104374398D01*
X155598501Y-104382172D01*
X155520910Y-104371648D01*
X155468558Y-104348065D01*
X155469129Y-104311946D01*
X155490311Y-104267202D01*
X155508637Y-104227427D01*
X155496819Y-104224393D01*
X155468680Y-104218747D01*
X155463878Y-104196927D01*
X155482131Y-104164109D01*
X155544392Y-104150293D01*
X155586584Y-104149102D01*
X155675949Y-104160998D01*
G37*
G36*
X155700955Y-106336030D02*
G01*
X155709289Y-106403812D01*
X155705574Y-106472556D01*
X155682638Y-106503106D01*
X155622791Y-106510939D01*
X155586584Y-106511179D01*
X155508029Y-106507998D01*
X155473121Y-106487816D01*
X155464161Y-106434673D01*
X155463878Y-106400530D01*
X155469209Y-106327941D01*
X155489435Y-106304063D01*
X155512402Y-106308501D01*
X155569380Y-106325008D01*
X155586843Y-106327121D01*
X155615391Y-106352356D01*
X155626790Y-106380805D01*
X155637874Y-106408113D01*
X155643713Y-106376819D01*
X155644378Y-106365467D01*
X155657362Y-106306726D01*
X155679945Y-106299114D01*
X155700955Y-106336030D01*
G37*
G36*
X155675949Y-105326698D02*
G01*
X155710420Y-105360692D01*
X155688122Y-105414242D01*
X155672477Y-105431373D01*
X155651135Y-105461769D01*
X155672477Y-105468184D01*
X155705092Y-105492927D01*
X155709289Y-105514199D01*
X155689027Y-105546194D01*
X155621860Y-105559378D01*
X155586584Y-105560213D01*
X155497218Y-105548317D01*
X155462747Y-105514324D01*
X155485045Y-105460774D01*
X155500690Y-105443643D01*
X155522032Y-105413246D01*
X155500690Y-105406832D01*
X155468075Y-105382089D01*
X155463878Y-105360817D01*
X155484140Y-105328822D01*
X155551307Y-105315638D01*
X155586584Y-105314803D01*
X155675949Y-105326698D01*
G37*
G36*
X155663383Y-108443879D02*
G01*
X155663665Y-108444112D01*
X155705126Y-108512287D01*
X155694979Y-108588282D01*
X155663274Y-108627846D01*
X155606285Y-108645505D01*
X155605377Y-108644936D01*
X155556176Y-108614116D01*
X155527507Y-108545501D01*
X155526905Y-108537628D01*
X155586584Y-108537628D01*
X155605377Y-108555949D01*
X155617260Y-108551155D01*
X155646525Y-108523589D01*
X155647936Y-108518669D01*
X155624202Y-108505492D01*
X155617260Y-108505141D01*
X155587762Y-108528723D01*
X155586584Y-108537628D01*
X155526905Y-108537628D01*
X155525231Y-108515760D01*
X155546693Y-108446602D01*
X155598855Y-108419479D01*
X155663383Y-108443879D01*
G37*
G36*
X156148367Y-108850125D02*
G01*
X156213396Y-108905892D01*
X156254078Y-109004505D01*
X156261463Y-109082737D01*
X156261463Y-109210696D01*
X156092743Y-109210696D01*
X156073415Y-109210696D01*
X155885368Y-109210696D01*
X155901581Y-109066849D01*
X155906406Y-109049646D01*
X156023721Y-109049646D01*
X156038822Y-109079476D01*
X156092743Y-109087991D01*
X156152469Y-109076252D01*
X156161765Y-109049646D01*
X156124381Y-109017121D01*
X156092743Y-109011300D01*
X156039008Y-109029397D01*
X156023721Y-109049646D01*
X155906406Y-109049646D01*
X155935601Y-108945566D01*
X155996631Y-108869395D01*
X156071833Y-108837771D01*
X156148367Y-108850125D01*
G37*
G36*
X156148367Y-110568000D02*
G01*
X156213396Y-110623767D01*
X156254078Y-110722380D01*
X156261463Y-110800612D01*
X156261463Y-110928571D01*
X156095299Y-110928571D01*
X156073415Y-110928571D01*
X155885368Y-110928571D01*
X155901581Y-110784724D01*
X155909156Y-110757717D01*
X156016052Y-110757717D01*
X156042513Y-110796799D01*
X156095299Y-110805865D01*
X156151577Y-110791595D01*
X156159563Y-110760398D01*
X156121801Y-110729699D01*
X156082671Y-110719372D01*
X156027325Y-110728017D01*
X156016052Y-110757717D01*
X155909156Y-110757717D01*
X155935601Y-110663440D01*
X155996631Y-110587270D01*
X156071833Y-110555645D01*
X156148367Y-110568000D01*
G37*
G36*
X152777987Y-104330490D02*
G01*
X152779700Y-104333160D01*
X152818644Y-104350224D01*
X152898540Y-104361362D01*
X152965568Y-104363836D01*
X153064969Y-104366486D01*
X153114354Y-104378753D01*
X153124981Y-104407117D01*
X153112161Y-104448196D01*
X153072046Y-104473045D01*
X152985023Y-104485628D01*
X152947673Y-104486542D01*
X152856971Y-104492367D01*
X152794151Y-104507177D01*
X152779700Y-104517218D01*
X152730147Y-104548121D01*
X152661894Y-104543504D01*
X152602062Y-104508646D01*
X152582713Y-104478873D01*
X152580161Y-104410335D01*
X152614191Y-104349557D01*
X152669024Y-104308210D01*
X152728882Y-104297964D01*
X152777987Y-104330490D01*
G37*
G36*
X153031734Y-105857666D02*
G01*
X153063595Y-105896996D01*
X153083592Y-105947924D01*
X153070404Y-106004002D01*
X153040463Y-106058127D01*
X152987219Y-106201891D01*
X152991448Y-106358542D01*
X153040448Y-106495841D01*
X153079980Y-106572595D01*
X153095582Y-106613009D01*
X153088046Y-106636898D01*
X153058167Y-106664072D01*
X153047559Y-106673464D01*
X153010746Y-106699755D01*
X152979793Y-106691806D01*
X152938420Y-106642025D01*
X152918407Y-106613228D01*
X152852440Y-106467898D01*
X152827525Y-106298134D01*
X152844532Y-106125871D01*
X152893707Y-105991784D01*
X152950989Y-105895216D01*
X152994469Y-105851921D01*
X153031734Y-105857666D01*
G37*
G36*
X154234199Y-103541694D02*
G01*
X154297752Y-103565828D01*
X154322583Y-103629399D01*
X154322943Y-103632377D01*
X154319099Y-103699817D01*
X154299936Y-103733885D01*
X154275891Y-103776547D01*
X154267501Y-103838014D01*
X154249730Y-103928230D01*
X154191714Y-103978828D01*
X154086399Y-103995656D01*
X154077308Y-103995720D01*
X153994317Y-103987292D01*
X153961942Y-103959719D01*
X153960738Y-103949706D01*
X153987457Y-103912730D01*
X154038392Y-103903691D01*
X154110907Y-103883120D01*
X154137609Y-103823393D01*
X154117279Y-103727489D01*
X154113880Y-103719055D01*
X154096781Y-103626234D01*
X154128958Y-103563840D01*
X154204801Y-103540142D01*
X154234199Y-103541694D01*
G37*
G36*
X155665235Y-103878746D02*
G01*
X155700253Y-103896196D01*
X155709113Y-103942134D01*
X155709289Y-103959130D01*
X155696826Y-104035712D01*
X155672477Y-104081614D01*
X155602555Y-104118745D01*
X155577893Y-104113720D01*
X155534203Y-104104817D01*
X155482853Y-104048536D01*
X155463878Y-103963938D01*
X155465757Y-103948894D01*
X155531155Y-103948894D01*
X155534596Y-103981345D01*
X155552101Y-104003901D01*
X155577893Y-104023286D01*
X155571457Y-103992548D01*
X155569273Y-103986728D01*
X155544972Y-103949164D01*
X155531155Y-103948894D01*
X155465757Y-103948894D01*
X155470417Y-103911574D01*
X155501594Y-103887218D01*
X155574751Y-103878763D01*
X155586584Y-103878265D01*
X155665235Y-103878746D01*
G37*
G36*
X152897969Y-105741539D02*
G01*
X152939001Y-105789695D01*
X152936540Y-105825477D01*
X152909309Y-105859347D01*
X152819072Y-106002330D01*
X152773810Y-106172420D01*
X152773846Y-106354645D01*
X152819505Y-106534034D01*
X152891759Y-106669297D01*
X152933926Y-106732395D01*
X152943155Y-106768567D01*
X152920269Y-106802115D01*
X152897058Y-106825480D01*
X152862754Y-106852832D01*
X152832624Y-106846970D01*
X152791202Y-106800658D01*
X152763557Y-106763032D01*
X152672513Y-106607244D01*
X152624064Y-106442182D01*
X152610980Y-106262635D01*
X152618833Y-106125255D01*
X152647692Y-106008255D01*
X152705504Y-105886912D01*
X152760885Y-105796306D01*
X152836050Y-105679620D01*
X152897969Y-105741539D01*
G37*
G36*
X153302173Y-104796915D02*
G01*
X153358853Y-104809694D01*
X153377626Y-104834569D01*
X153377888Y-104839320D01*
X153361557Y-104868176D01*
X153304962Y-104882323D01*
X153223544Y-104885334D01*
X153110721Y-104896168D01*
X153052732Y-104930958D01*
X153046589Y-104993138D01*
X153073301Y-105058120D01*
X153094447Y-105143295D01*
X153065475Y-105207741D01*
X152993691Y-105237501D01*
X152979096Y-105238112D01*
X152902437Y-105214685D01*
X152863319Y-105156680D01*
X152872629Y-105082504D01*
X152879621Y-105069914D01*
X152910694Y-104994992D01*
X152917743Y-104949294D01*
X152939662Y-104869425D01*
X153008150Y-104818956D01*
X153127304Y-104795591D01*
X153196021Y-104793305D01*
X153302173Y-104796915D01*
G37*
G36*
X155673314Y-106063764D02*
G01*
X155711277Y-106096425D01*
X155695715Y-106140728D01*
X155655605Y-106171283D01*
X155618281Y-106195849D01*
X155634659Y-106202877D01*
X155655605Y-106203483D01*
X155701892Y-106220516D01*
X155703262Y-106253175D01*
X155673705Y-106272517D01*
X155606046Y-106279126D01*
X155532390Y-106265825D01*
X155477633Y-106239290D01*
X155463878Y-106216273D01*
X155481611Y-106177736D01*
X155494555Y-106173740D01*
X155524052Y-106150157D01*
X155525231Y-106141253D01*
X155506437Y-106122932D01*
X155494555Y-106127725D01*
X155468293Y-106120771D01*
X155463878Y-106098859D01*
X155482131Y-106066041D01*
X155544392Y-106052225D01*
X155586584Y-106051034D01*
X155673314Y-106063764D01*
G37*
G36*
X156166673Y-105606471D02*
G01*
X156242084Y-105661062D01*
X156272962Y-105752969D01*
X156267553Y-105820962D01*
X156225482Y-105920240D01*
X156150252Y-105968029D01*
X156094553Y-105965992D01*
X156042437Y-105964087D01*
X155977442Y-105943023D01*
X155919431Y-105892431D01*
X155898996Y-105814984D01*
X155900945Y-105802194D01*
X155998594Y-105802194D01*
X156042692Y-105828647D01*
X156094553Y-105836300D01*
X156153770Y-105821178D01*
X156169434Y-105774948D01*
X156147850Y-105723456D01*
X156115750Y-105714065D01*
X156044147Y-105728943D01*
X155999805Y-105763458D01*
X155998594Y-105802194D01*
X155900945Y-105802194D01*
X155912110Y-105728924D01*
X155954751Y-105652492D01*
X156022895Y-105603929D01*
X156053848Y-105596667D01*
X156166673Y-105606471D01*
G37*
G36*
X152954736Y-103623426D02*
G01*
X152998469Y-103641114D01*
X153109727Y-103704384D01*
X153170964Y-103774751D01*
X153193114Y-103866265D01*
X153193830Y-103892083D01*
X153203689Y-103965709D01*
X153239907Y-103997401D01*
X153257106Y-104001256D01*
X153299380Y-104015513D01*
X153286664Y-104044290D01*
X153281647Y-104049404D01*
X153210183Y-104090326D01*
X153144599Y-104077381D01*
X153095066Y-104017904D01*
X153071752Y-103919229D01*
X153071125Y-103897556D01*
X153062840Y-103813703D01*
X153032588Y-103784460D01*
X152972271Y-103804669D01*
X152947897Y-103819108D01*
X152872819Y-103837510D01*
X152810855Y-103805676D01*
X152780415Y-103734495D01*
X152779700Y-103719634D01*
X152800458Y-103641752D01*
X152860114Y-103609213D01*
X152954736Y-103623426D01*
G37*
G36*
X153800699Y-110552012D02*
G01*
X153824154Y-110580929D01*
X153859479Y-110634619D01*
X153857875Y-110673662D01*
X153815250Y-110722544D01*
X153797710Y-110739165D01*
X153786906Y-110747997D01*
X153731264Y-110793484D01*
X153695571Y-110799575D01*
X153684658Y-110758359D01*
X153684651Y-110756569D01*
X153702535Y-110722043D01*
X153735005Y-110726595D01*
X153768067Y-110734119D01*
X153752978Y-110706974D01*
X153748214Y-110701161D01*
X153734771Y-110668439D01*
X153783234Y-110668439D01*
X153786906Y-110672935D01*
X153805143Y-110668724D01*
X153807357Y-110652484D01*
X153796133Y-110627234D01*
X153786906Y-110632033D01*
X153783234Y-110668439D01*
X153734771Y-110668439D01*
X153726621Y-110648602D01*
X153746310Y-110590559D01*
X153775481Y-110545142D01*
X153800699Y-110552012D01*
G37*
G36*
X155612692Y-110759055D02*
G01*
X155638413Y-110803439D01*
X155662632Y-110854448D01*
X155682190Y-110867218D01*
X155707143Y-110891658D01*
X155709289Y-110907216D01*
X155680300Y-110936516D01*
X155596582Y-110949588D01*
X155584885Y-110949949D01*
X155555907Y-110949546D01*
X155505951Y-110948851D01*
X155472134Y-110932068D01*
X155467246Y-110886418D01*
X155469848Y-110856268D01*
X155475422Y-110834731D01*
X155525231Y-110834731D01*
X155547499Y-110865970D01*
X155555907Y-110867218D01*
X155585786Y-110856752D01*
X155586584Y-110853690D01*
X155565088Y-110827500D01*
X155555907Y-110821204D01*
X155527640Y-110823636D01*
X155525231Y-110834731D01*
X155475422Y-110834731D01*
X155488700Y-110783431D01*
X155534776Y-110752702D01*
X155550476Y-110749755D01*
X155612692Y-110759055D01*
G37*
G36*
X155671904Y-106641483D02*
G01*
X155707062Y-106666670D01*
X155709289Y-106679899D01*
X155692725Y-106720722D01*
X155678613Y-106725914D01*
X155653689Y-106751607D01*
X155647936Y-106787266D01*
X155660783Y-106837114D01*
X155678613Y-106848619D01*
X155708398Y-106871963D01*
X155709289Y-106879295D01*
X155685582Y-106911802D01*
X155678613Y-106913380D01*
X155623930Y-106916263D01*
X155586584Y-106916789D01*
X155520318Y-106915192D01*
X155494555Y-106913380D01*
X155466910Y-106887833D01*
X155470263Y-106841466D01*
X155502224Y-106805161D01*
X155524783Y-106785015D01*
X155502224Y-106769372D01*
X155469961Y-106727199D01*
X155463878Y-106692681D01*
X155475124Y-106654021D01*
X155519300Y-106636987D01*
X155586584Y-106633885D01*
X155671904Y-106641483D01*
G37*
G36*
X155677896Y-110019834D02*
G01*
X155704936Y-110073534D01*
X155707004Y-110136745D01*
X155686172Y-110183292D01*
X155664237Y-110192339D01*
X155633170Y-110172112D01*
X155637688Y-110138655D01*
X155646046Y-110105986D01*
X155627968Y-110121706D01*
X155610485Y-110143640D01*
X155552240Y-110184107D01*
X155535456Y-110180454D01*
X155497732Y-110172244D01*
X155466068Y-110115118D01*
X155463878Y-110089416D01*
X155464799Y-110085588D01*
X155531785Y-110085588D01*
X155535456Y-110090084D01*
X155553693Y-110085873D01*
X155555907Y-110069634D01*
X155544683Y-110044383D01*
X155535456Y-110049183D01*
X155531785Y-110085588D01*
X155464799Y-110085588D01*
X155477445Y-110033029D01*
X155529550Y-110006448D01*
X155555190Y-110001843D01*
X155630464Y-110001835D01*
X155677896Y-110019834D01*
G37*
G36*
X155576543Y-110474243D02*
G01*
X155644839Y-110489497D01*
X155693232Y-110515670D01*
X155710889Y-110542301D01*
X155686975Y-110558931D01*
X155665831Y-110560455D01*
X155623393Y-110576255D01*
X155617260Y-110591131D01*
X155642106Y-110618347D01*
X155663274Y-110621807D01*
X155703944Y-110646363D01*
X155709289Y-110667822D01*
X155689027Y-110699817D01*
X155621860Y-110713001D01*
X155586584Y-110713836D01*
X155501263Y-110706238D01*
X155466105Y-110681051D01*
X155463878Y-110667822D01*
X155488434Y-110627152D01*
X155509893Y-110621807D01*
X155550716Y-110605243D01*
X155555907Y-110591131D01*
X155531061Y-110563916D01*
X155509893Y-110560455D01*
X155469664Y-110535755D01*
X155463878Y-110512588D01*
X155479622Y-110480818D01*
X155535579Y-110471988D01*
X155576543Y-110474243D01*
G37*
G36*
X156135771Y-106483724D02*
G01*
X156159472Y-106545729D01*
X156184744Y-106608618D01*
X156219283Y-106633885D01*
X156253491Y-106659452D01*
X156261463Y-106695237D01*
X156254747Y-106729504D01*
X156225246Y-106748020D01*
X156158928Y-106755462D01*
X156077405Y-106756590D01*
X156046729Y-106756171D01*
X155975508Y-106755199D01*
X155920544Y-106746609D01*
X155898096Y-106724199D01*
X155893746Y-106681344D01*
X155893766Y-106672230D01*
X155903035Y-106586060D01*
X156016052Y-106586060D01*
X156032068Y-106628032D01*
X156046729Y-106633885D01*
X156076527Y-106611867D01*
X156077405Y-106605019D01*
X156055106Y-106563473D01*
X156046729Y-106557194D01*
X156020467Y-106564148D01*
X156016052Y-106586060D01*
X155903035Y-106586060D01*
X155907866Y-106541151D01*
X155947365Y-106459078D01*
X155984366Y-106434809D01*
X156072470Y-106432714D01*
X156135771Y-106483724D01*
G37*
G36*
X156144198Y-110167508D02*
G01*
X156205703Y-110189734D01*
X156244385Y-110229841D01*
X156280663Y-110298401D01*
X156292139Y-110345720D01*
X156275354Y-110405922D01*
X156244385Y-110461600D01*
X156200436Y-110505045D01*
X156135022Y-110525353D01*
X156044989Y-110529778D01*
X155954609Y-110527225D01*
X155909761Y-110514247D01*
X155894675Y-110482869D01*
X155893347Y-110453088D01*
X155899069Y-110405763D01*
X155927192Y-110383342D01*
X155994157Y-110376690D01*
X156031390Y-110376397D01*
X156126829Y-110368582D01*
X156165329Y-110350174D01*
X156146029Y-110328728D01*
X156068068Y-110311799D01*
X156039059Y-110309139D01*
X155953944Y-110297407D01*
X155912695Y-110272059D01*
X155898882Y-110230684D01*
X155898432Y-110189799D01*
X155921914Y-110169321D01*
X155983821Y-110162304D01*
X156042856Y-110161663D01*
X156144198Y-110167508D01*
G37*
G36*
X156007642Y-105211926D02*
G01*
X156014852Y-105261119D01*
X156012214Y-105351232D01*
X156027778Y-105394205D01*
X156068072Y-105403128D01*
X156084761Y-105401296D01*
X156141976Y-105372076D01*
X156158329Y-105337209D01*
X156158938Y-105304929D01*
X156148397Y-105331237D01*
X156120437Y-105368495D01*
X156085602Y-105356553D01*
X156058061Y-105303843D01*
X156052360Y-105274091D01*
X156052058Y-105218860D01*
X156080377Y-105196289D01*
X156148480Y-105192097D01*
X156225785Y-105203312D01*
X156264921Y-105244428D01*
X156272853Y-105326654D01*
X156267644Y-105383836D01*
X156230391Y-105469522D01*
X156150463Y-105517722D01*
X156053848Y-105523759D01*
X155971160Y-105486518D01*
X155915637Y-105409245D01*
X155898832Y-105311241D01*
X155904553Y-105274332D01*
X155935338Y-105213590D01*
X155975708Y-105192068D01*
X156007642Y-105211926D01*
G37*
G36*
X156575882Y-109730310D02*
G01*
X156587344Y-109780444D01*
X156593492Y-109874394D01*
X156596171Y-109969935D01*
X156597320Y-110084963D01*
X156592143Y-110151679D01*
X156577286Y-110183055D01*
X156549394Y-110192060D01*
X156538660Y-110192339D01*
X156487823Y-110173417D01*
X156476197Y-110146324D01*
X156500894Y-110106086D01*
X156524022Y-110100310D01*
X156555617Y-110085217D01*
X156552579Y-110069133D01*
X156522212Y-110054455D01*
X156515881Y-110051395D01*
X156504859Y-110055540D01*
X156489488Y-110038289D01*
X156483633Y-109992943D01*
X156506873Y-109992943D01*
X156522212Y-110008281D01*
X156537550Y-109992943D01*
X156522212Y-109977605D01*
X156506873Y-109992943D01*
X156483633Y-109992943D01*
X156481011Y-109972641D01*
X156480297Y-109904408D01*
X156490677Y-109788844D01*
X156514583Y-109727512D01*
X156525224Y-109719945D01*
X156556158Y-109713606D01*
X156575882Y-109730310D01*
G37*
G36*
X153236962Y-110797008D02*
G01*
X153239745Y-110852093D01*
X153208188Y-110924889D01*
X153181600Y-110961148D01*
X153116059Y-111068166D01*
X153110239Y-111164242D01*
X153164059Y-111252140D01*
X153172800Y-111260663D01*
X153257259Y-111315561D01*
X153344124Y-111317327D01*
X153442539Y-111264812D01*
X153496665Y-111219895D01*
X153570726Y-111158298D01*
X153616491Y-111136839D01*
X153646641Y-111149987D01*
X153649496Y-111153246D01*
X153660332Y-111190723D01*
X153633141Y-111244085D01*
X153581926Y-111304818D01*
X153470800Y-111400565D01*
X153358524Y-111439857D01*
X153232574Y-111426527D01*
X153208423Y-111419146D01*
X153096173Y-111354427D01*
X153019170Y-111254607D01*
X152988342Y-111136210D01*
X152990939Y-111090233D01*
X153015028Y-111014996D01*
X153060460Y-110927866D01*
X153115272Y-110847003D01*
X153167505Y-110790569D01*
X153198434Y-110775189D01*
X153236962Y-110797008D01*
G37*
G36*
X156258870Y-106014669D02*
G01*
X156261463Y-106055581D01*
X156241273Y-106131533D01*
X156210694Y-106178993D01*
X156177008Y-106220600D01*
X156186221Y-106234031D01*
X156210694Y-106235092D01*
X156245277Y-106257362D01*
X156262875Y-106304831D01*
X156257091Y-106348484D01*
X156238456Y-106360982D01*
X156196627Y-106363435D01*
X156115673Y-106366140D01*
X156062067Y-106367449D01*
X156026278Y-106368215D01*
X155908685Y-106370731D01*
X155914031Y-106221798D01*
X155914225Y-106220371D01*
X156022606Y-106220371D01*
X156026278Y-106224867D01*
X156044515Y-106220656D01*
X156046729Y-106204416D01*
X156035505Y-106179166D01*
X156026278Y-106183965D01*
X156022606Y-106220371D01*
X155914225Y-106220371D01*
X155929773Y-106106132D01*
X155967280Y-106047044D01*
X156027516Y-106043396D01*
X156054802Y-106055355D01*
X156120031Y-106067459D01*
X156186829Y-106037169D01*
X156239590Y-106006253D01*
X156258870Y-106014669D01*
G37*
G36*
X155694349Y-104883031D02*
G01*
X155705222Y-104959076D01*
X155709289Y-105069184D01*
X155709289Y-105069392D01*
X155709289Y-105284126D01*
X155638153Y-105284126D01*
X155586584Y-105284126D01*
X155463878Y-105284126D01*
X155463878Y-105078586D01*
X155538536Y-105078586D01*
X155557955Y-105089165D01*
X155561690Y-105090175D01*
X155614082Y-105128928D01*
X155627154Y-105155638D01*
X155638153Y-105179382D01*
X155644101Y-105143436D01*
X155644378Y-105138414D01*
X155633000Y-105085140D01*
X155581035Y-105072850D01*
X155578915Y-105072950D01*
X155538536Y-105078586D01*
X155463878Y-105078586D01*
X155463878Y-105069584D01*
X155465245Y-104957536D01*
X155471964Y-104894222D01*
X155487968Y-104867041D01*
X155517185Y-104863391D01*
X155527754Y-104864791D01*
X155593134Y-104892354D01*
X155619313Y-104918282D01*
X155641514Y-104943198D01*
X155647444Y-104910448D01*
X155647467Y-104908341D01*
X155662347Y-104862803D01*
X155678613Y-104854658D01*
X155694349Y-104883031D01*
G37*
G36*
X156229673Y-108108063D02*
G01*
X156260471Y-108135591D01*
X156263909Y-108141595D01*
X156290663Y-108247676D01*
X156256510Y-108350106D01*
X156213905Y-108402106D01*
X156124675Y-108458432D01*
X156091993Y-108459630D01*
X156035916Y-108461685D01*
X155960399Y-108418898D01*
X155910897Y-108337105D01*
X155899651Y-108229054D01*
X155904247Y-108194246D01*
X156024616Y-108194246D01*
X156025689Y-108262880D01*
X156042069Y-108298018D01*
X156091993Y-108315508D01*
X156143776Y-108297493D01*
X156167089Y-108254894D01*
X156167012Y-108253024D01*
X156160656Y-108230134D01*
X156149118Y-108252061D01*
X156113909Y-108290333D01*
X156073230Y-108280139D01*
X156045606Y-108229481D01*
X156042551Y-108206047D01*
X156038632Y-108151345D01*
X156032643Y-108155360D01*
X156024616Y-108194246D01*
X155904247Y-108194246D01*
X155907881Y-108166729D01*
X155929773Y-108132914D01*
X155981435Y-108116051D01*
X156072182Y-108105266D01*
X156172547Y-108099023D01*
X156229673Y-108108063D01*
G37*
G36*
X155528970Y-104420717D02*
G01*
X155534005Y-104432858D01*
X155555644Y-104455748D01*
X155602238Y-104438966D01*
X155612836Y-104432858D01*
X155668679Y-104403372D01*
X155694067Y-104394513D01*
X155701516Y-104422583D01*
X155705814Y-104496457D01*
X155706104Y-104600627D01*
X155705940Y-104609247D01*
X155701526Y-104823981D01*
X155580758Y-104823981D01*
X155540569Y-104822369D01*
X155503365Y-104820876D01*
X155470952Y-104801780D01*
X155467161Y-104752020D01*
X155469604Y-104724283D01*
X155471226Y-104716614D01*
X155525231Y-104716614D01*
X155540569Y-104731952D01*
X155555907Y-104716614D01*
X155540569Y-104701276D01*
X155525231Y-104716614D01*
X155471226Y-104716614D01*
X155484399Y-104654345D01*
X155520374Y-104627503D01*
X155555907Y-104624585D01*
X155613558Y-104614084D01*
X155632598Y-104593909D01*
X155606268Y-104573106D01*
X155548238Y-104567756D01*
X155487834Y-104562662D01*
X155466055Y-104525923D01*
X155463878Y-104483396D01*
X155474958Y-104417662D01*
X155500503Y-104393996D01*
X155528970Y-104420717D01*
G37*
G36*
X156180332Y-103905935D02*
G01*
X156235821Y-103915787D01*
X156258101Y-103937933D01*
X156261463Y-103965044D01*
X156240150Y-104016039D01*
X156192441Y-104028819D01*
X156153732Y-104035896D01*
X156161765Y-104046713D01*
X156197162Y-104085555D01*
X156186736Y-104139004D01*
X156146427Y-104177321D01*
X156116749Y-104199551D01*
X156138733Y-104208207D01*
X156177103Y-104209522D01*
X156242218Y-104223130D01*
X156261463Y-104266990D01*
X156261463Y-104267034D01*
X156253294Y-104299178D01*
X156219464Y-104315767D01*
X156145986Y-104321057D01*
X156085074Y-104320717D01*
X155984520Y-104316585D01*
X155929892Y-104304452D01*
X155905799Y-104278376D01*
X155898889Y-104248850D01*
X155908097Y-104190493D01*
X155964791Y-104151145D01*
X155975580Y-104146840D01*
X156062067Y-104113803D01*
X155987843Y-104073906D01*
X155928451Y-104021352D01*
X155903676Y-103968850D01*
X155903208Y-103932697D01*
X155924839Y-103913142D01*
X155981997Y-103905152D01*
X156077597Y-103903691D01*
X156180332Y-103905935D01*
G37*
G36*
X155666075Y-105609423D02*
G01*
X155701360Y-105629504D01*
X155709289Y-105673785D01*
X155700848Y-105721130D01*
X155663331Y-105731660D01*
X155620980Y-105725076D01*
X155549279Y-105722594D01*
X155511803Y-105741181D01*
X155521821Y-105765504D01*
X155589712Y-105774861D01*
X155600111Y-105774948D01*
X155673170Y-105780065D01*
X155703449Y-105805031D01*
X155709289Y-105860841D01*
X155696858Y-105937490D01*
X155672477Y-105983547D01*
X155632598Y-106005363D01*
X155612230Y-106016506D01*
X155586584Y-106020358D01*
X155577893Y-106017651D01*
X155520651Y-105999822D01*
X155480977Y-105934354D01*
X155469245Y-105850827D01*
X155531155Y-105850827D01*
X155534596Y-105883278D01*
X155552101Y-105905833D01*
X155577893Y-105925219D01*
X155571457Y-105894481D01*
X155569273Y-105888661D01*
X155565168Y-105882315D01*
X155617260Y-105882315D01*
X155632598Y-105897653D01*
X155647936Y-105882315D01*
X155632598Y-105866977D01*
X155617260Y-105882315D01*
X155565168Y-105882315D01*
X155544972Y-105851096D01*
X155531155Y-105850827D01*
X155469245Y-105850827D01*
X155464658Y-105818169D01*
X155463878Y-105775784D01*
X155463878Y-105604833D01*
X155586584Y-105604833D01*
X155666075Y-105609423D01*
G37*
G36*
X156236635Y-109433722D02*
G01*
X156249603Y-109465110D01*
X156256335Y-109529370D01*
X156257923Y-109636273D01*
X156255836Y-109778208D01*
X156252135Y-109929277D01*
X156247215Y-110028800D01*
X156239019Y-110086580D01*
X156225489Y-110112420D01*
X156204569Y-110116122D01*
X156185928Y-110111266D01*
X156092743Y-110080807D01*
X156056109Y-110068833D01*
X155974407Y-110036554D01*
X155929903Y-110007878D01*
X155911680Y-109976254D01*
X155908685Y-109944919D01*
X155911759Y-109931590D01*
X156077405Y-109931590D01*
X156092743Y-109946928D01*
X156108081Y-109931590D01*
X156092743Y-109916252D01*
X156077405Y-109931590D01*
X155911759Y-109931590D01*
X155919572Y-109897706D01*
X155960988Y-109859558D01*
X156046072Y-109819485D01*
X156069736Y-109810175D01*
X156157454Y-109772822D01*
X156215948Y-109741277D01*
X156230787Y-109726628D01*
X156203153Y-109715710D01*
X156132165Y-109710515D01*
X156069736Y-109711078D01*
X155974971Y-109711825D01*
X155925162Y-109701278D01*
X155904142Y-109673453D01*
X155898882Y-109647834D01*
X155898811Y-109605544D01*
X155924465Y-109585276D01*
X155990807Y-109579108D01*
X156029257Y-109578812D01*
X156115270Y-109575745D01*
X156156342Y-109560588D01*
X156168803Y-109524407D01*
X156169434Y-109502121D01*
X156185685Y-109440104D01*
X156216334Y-109425431D01*
X156236635Y-109433722D01*
G37*
G36*
X155676155Y-109385785D02*
G01*
X155698380Y-109456428D01*
X155704688Y-109572777D01*
X155701755Y-109670864D01*
X155687114Y-109725419D01*
X155654586Y-109754013D01*
X155638523Y-109760879D01*
X155599410Y-109765446D01*
X155561412Y-109769882D01*
X155535456Y-109762947D01*
X155517562Y-109758166D01*
X155481525Y-109716909D01*
X155465116Y-109656824D01*
X155466534Y-109642942D01*
X155539848Y-109642942D01*
X155557735Y-109687561D01*
X155599410Y-109695167D01*
X155614159Y-109688096D01*
X155635800Y-109644900D01*
X155633624Y-109580339D01*
X155627485Y-109567337D01*
X155610310Y-109530961D01*
X155584145Y-109539641D01*
X155555551Y-109579478D01*
X155539848Y-109642942D01*
X155466534Y-109642942D01*
X155470656Y-109602571D01*
X155500465Y-109578813D01*
X155500690Y-109578812D01*
X155522032Y-109569758D01*
X155500690Y-109542001D01*
X155470406Y-109482658D01*
X155468853Y-109472062D01*
X155623814Y-109472062D01*
X155627485Y-109476558D01*
X155645722Y-109472347D01*
X155647936Y-109456107D01*
X155636712Y-109430857D01*
X155627485Y-109435656D01*
X155623814Y-109472062D01*
X155468853Y-109472062D01*
X155464357Y-109441385D01*
X155531785Y-109441385D01*
X155535456Y-109445882D01*
X155553693Y-109441671D01*
X155555907Y-109425431D01*
X155544683Y-109400181D01*
X155535456Y-109404980D01*
X155531785Y-109441385D01*
X155464357Y-109441385D01*
X155463878Y-109438115D01*
X155480009Y-109386005D01*
X155538447Y-109360504D01*
X155556490Y-109357449D01*
X155631155Y-109356128D01*
X155676155Y-109385785D01*
G37*
G36*
X156061532Y-107346889D02*
G01*
X156115130Y-107387648D01*
X156126080Y-107412756D01*
X156142580Y-107473594D01*
X156160131Y-107479878D01*
X156169334Y-107429767D01*
X156169434Y-107421244D01*
X156184584Y-107355748D01*
X156215448Y-107339440D01*
X156242663Y-107366840D01*
X156259548Y-107437770D01*
X156266359Y-107535330D01*
X156263348Y-107642618D01*
X156250772Y-107742731D01*
X156228884Y-107818769D01*
X156207779Y-107848911D01*
X156170881Y-107880226D01*
X156183768Y-107889715D01*
X156207779Y-107890639D01*
X156251424Y-107915227D01*
X156261463Y-107968305D01*
X156257566Y-108010808D01*
X156236270Y-108033755D01*
X156183169Y-108043150D01*
X156083856Y-108044994D01*
X156077405Y-108044996D01*
X156026278Y-108044996D01*
X155893347Y-108044996D01*
X155893347Y-107909144D01*
X155897158Y-107876893D01*
X156022606Y-107876893D01*
X156026278Y-107881389D01*
X156044515Y-107877178D01*
X156046729Y-107860938D01*
X156035505Y-107835688D01*
X156026278Y-107840487D01*
X156022606Y-107876893D01*
X155897158Y-107876893D01*
X155907722Y-107787495D01*
X155949342Y-107716632D01*
X156015946Y-107699178D01*
X156062212Y-107713204D01*
X156132671Y-107731450D01*
X156183864Y-107708310D01*
X156222963Y-107668089D01*
X156216760Y-107644313D01*
X156159675Y-107633194D01*
X156069790Y-107630865D01*
X155908685Y-107630865D01*
X155899026Y-107495862D01*
X155900679Y-107400963D01*
X155919146Y-107344326D01*
X155925654Y-107338433D01*
X155989012Y-107327012D01*
X156061532Y-107346889D01*
G37*
G36*
X156596915Y-108593053D02*
G01*
X156598902Y-108614318D01*
X156574307Y-108653408D01*
X156552888Y-108658522D01*
X156512218Y-108683078D01*
X156506873Y-108704537D01*
X156531429Y-108745207D01*
X156552888Y-108750551D01*
X156594214Y-108765725D01*
X156589323Y-108796902D01*
X156545219Y-108821434D01*
X156511287Y-108833155D01*
X156536196Y-108838669D01*
X156540869Y-108839022D01*
X156561180Y-108847628D01*
X156574953Y-108876302D01*
X156583284Y-108934514D01*
X156587271Y-109031730D01*
X156588011Y-109177419D01*
X156587697Y-109243116D01*
X156585779Y-109393325D01*
X156582311Y-109520009D01*
X156577755Y-109611281D01*
X156572573Y-109655257D01*
X156571595Y-109657247D01*
X156525564Y-109671573D01*
X156522212Y-109668754D01*
X156484315Y-109636888D01*
X156468689Y-109594150D01*
X156468530Y-109536715D01*
X156486586Y-109517460D01*
X156501656Y-109504307D01*
X156485364Y-109483680D01*
X156471822Y-109440769D01*
X156506873Y-109440769D01*
X156522212Y-109456107D01*
X156537550Y-109440769D01*
X156522212Y-109425431D01*
X156506873Y-109440769D01*
X156471822Y-109440769D01*
X156466652Y-109424387D01*
X156476425Y-109363283D01*
X156488856Y-109295861D01*
X156483619Y-109259020D01*
X156491098Y-109242960D01*
X156509430Y-109240440D01*
X156533868Y-109233715D01*
X156504321Y-109211102D01*
X156476001Y-109167960D01*
X156468130Y-109101142D01*
X156479096Y-109035997D01*
X156507289Y-108997873D01*
X156518024Y-108995492D01*
X156532829Y-108985363D01*
X156514532Y-108970668D01*
X156489940Y-108925556D01*
X156475453Y-108842286D01*
X156471371Y-108742679D01*
X156477994Y-108648558D01*
X156495621Y-108581744D01*
X156508966Y-108565200D01*
X156566165Y-108553100D01*
X156596915Y-108593053D01*
G37*
G36*
X156252700Y-104387829D02*
G01*
X156260488Y-104438518D01*
X156244842Y-104488276D01*
X156230704Y-104501931D01*
X156216632Y-104542673D01*
X156230704Y-104578416D01*
X156250823Y-104646157D01*
X156261114Y-104739756D01*
X156261463Y-104758873D01*
X156250065Y-104855688D01*
X156209978Y-104916588D01*
X156193285Y-104929609D01*
X156125106Y-104977363D01*
X156193285Y-104977363D01*
X156245860Y-104992456D01*
X156261405Y-105048087D01*
X156261463Y-105054054D01*
X156257020Y-105098155D01*
X156233630Y-105121010D01*
X156176205Y-105129554D01*
X156094553Y-105130745D01*
X156026278Y-105127025D01*
X155998470Y-105125510D01*
X155929553Y-105112050D01*
X155908629Y-105099978D01*
X155901369Y-105053043D01*
X155905314Y-104970725D01*
X155906336Y-104962641D01*
X156022606Y-104962641D01*
X156026278Y-104967138D01*
X156044515Y-104962927D01*
X156046729Y-104946687D01*
X156035505Y-104921437D01*
X156026278Y-104926236D01*
X156022606Y-104962641D01*
X155906336Y-104962641D01*
X155910302Y-104931258D01*
X155928257Y-104844427D01*
X155954166Y-104803562D01*
X155997798Y-104793305D01*
X155998062Y-104793305D01*
X156066318Y-104806697D01*
X156096536Y-104824706D01*
X156138288Y-104832322D01*
X156180325Y-104798219D01*
X156206504Y-104764172D01*
X156202390Y-104739803D01*
X156158588Y-104715162D01*
X156123419Y-104701928D01*
X156070699Y-104682090D01*
X155959345Y-104630895D01*
X155909208Y-104578485D01*
X155912244Y-104563233D01*
X156108081Y-104563233D01*
X156123419Y-104578571D01*
X156138758Y-104563233D01*
X156123419Y-104547894D01*
X156108081Y-104563233D01*
X155912244Y-104563233D01*
X155920157Y-104523481D01*
X155992056Y-104464500D01*
X156046729Y-104435081D01*
X156134428Y-104395323D01*
X156202591Y-104370081D01*
X156223117Y-104365647D01*
X156252700Y-104387829D01*
G37*
G36*
X156586650Y-107495993D02*
G01*
X156597603Y-107540626D01*
X156570436Y-107582990D01*
X156545219Y-107594381D01*
X156507412Y-107606040D01*
X156529196Y-107610846D01*
X156545219Y-107611969D01*
X156590838Y-107628481D01*
X156598902Y-107643954D01*
X156573633Y-107674647D01*
X156545219Y-107686410D01*
X156507412Y-107698069D01*
X156529196Y-107702875D01*
X156545219Y-107703998D01*
X156590758Y-107728020D01*
X156598902Y-107752046D01*
X156575037Y-107802892D01*
X156545219Y-107827804D01*
X156522212Y-107842947D01*
X156507895Y-107852371D01*
X156524273Y-107859399D01*
X156545219Y-107860005D01*
X156590785Y-107874240D01*
X156598902Y-107889365D01*
X156573633Y-107920058D01*
X156545219Y-107931821D01*
X156507412Y-107943480D01*
X156529196Y-107948286D01*
X156545219Y-107949408D01*
X156590722Y-107975646D01*
X156598902Y-108002263D01*
X156580041Y-108037095D01*
X156552888Y-108033902D01*
X156513387Y-108033265D01*
X156506873Y-108045959D01*
X156532104Y-108071424D01*
X156558751Y-108075672D01*
X156590777Y-108080524D01*
X156574888Y-108102863D01*
X156551082Y-108122131D01*
X156517033Y-108155157D01*
X156536019Y-108160737D01*
X156537550Y-108160476D01*
X156564963Y-108169121D01*
X156580244Y-108214825D01*
X156586824Y-108308931D01*
X156587206Y-108324672D01*
X156586217Y-108424701D01*
X156575476Y-108476609D01*
X156551459Y-108493312D01*
X156541192Y-108493392D01*
X156522212Y-108488325D01*
X156488744Y-108479389D01*
X156476197Y-108469877D01*
X156471523Y-108433892D01*
X156470288Y-108397774D01*
X156506873Y-108397774D01*
X156522212Y-108413112D01*
X156537550Y-108397774D01*
X156522212Y-108382435D01*
X156506873Y-108397774D01*
X156470288Y-108397774D01*
X156468568Y-108347443D01*
X156467467Y-108221397D01*
X156468354Y-108066622D01*
X156469931Y-107962622D01*
X156473756Y-107779681D01*
X156474639Y-107753571D01*
X156506873Y-107753571D01*
X156522212Y-107768909D01*
X156537550Y-107753571D01*
X156522212Y-107738233D01*
X156506873Y-107753571D01*
X156474639Y-107753571D01*
X156478168Y-107649253D01*
X156484417Y-107562504D01*
X156493756Y-107510598D01*
X156507434Y-107484701D01*
X156526705Y-107475976D01*
X156538953Y-107475293D01*
X156586650Y-107495993D01*
G37*
G36*
X156525721Y-104552937D02*
G01*
X156545334Y-104560186D01*
X156560020Y-104578644D01*
X156570551Y-104616285D01*
X156577701Y-104681081D01*
X156582242Y-104781006D01*
X156584948Y-104924033D01*
X156586591Y-105118137D01*
X156586978Y-105184852D01*
X156587835Y-105394910D01*
X156587324Y-105551449D01*
X156584767Y-105662295D01*
X156579487Y-105735280D01*
X156570807Y-105778230D01*
X156558050Y-105798975D01*
X156540539Y-105805343D01*
X156533294Y-105805624D01*
X156485805Y-105791926D01*
X156476197Y-105774948D01*
X156500012Y-105745772D01*
X156510630Y-105744271D01*
X156527614Y-105730346D01*
X156522212Y-105721883D01*
X156507989Y-105699600D01*
X156485938Y-105647462D01*
X156490705Y-105622910D01*
X156489937Y-105593666D01*
X156478767Y-105590890D01*
X156462311Y-105566929D01*
X156476197Y-105514199D01*
X156506873Y-105514199D01*
X156522212Y-105529537D01*
X156537550Y-105514199D01*
X156522212Y-105498861D01*
X156506873Y-105514199D01*
X156476197Y-105514199D01*
X156490221Y-105458379D01*
X156482575Y-105437508D01*
X156470160Y-105410564D01*
X156467825Y-105343705D01*
X156469001Y-105325028D01*
X156517099Y-105325028D01*
X156521310Y-105343265D01*
X156537550Y-105345479D01*
X156562800Y-105334255D01*
X156558001Y-105325028D01*
X156552888Y-105324512D01*
X156521595Y-105321357D01*
X156517099Y-105325028D01*
X156469001Y-105325028D01*
X156469162Y-105322472D01*
X156476301Y-105233936D01*
X156478391Y-105207435D01*
X156537550Y-105207435D01*
X156552888Y-105222774D01*
X156568226Y-105207435D01*
X156552888Y-105192097D01*
X156537550Y-105207435D01*
X156478391Y-105207435D01*
X156481544Y-105167440D01*
X156482003Y-105161421D01*
X156505450Y-105105697D01*
X156519182Y-105092869D01*
X156533778Y-105073168D01*
X156514543Y-105069862D01*
X156483406Y-105043828D01*
X156476197Y-105008039D01*
X156491464Y-104958234D01*
X156512737Y-104946687D01*
X156520267Y-104932019D01*
X156489729Y-104901648D01*
X156458100Y-104868157D01*
X156467769Y-104855633D01*
X156490160Y-104837964D01*
X156477017Y-104780136D01*
X156476197Y-104777967D01*
X156463086Y-104722213D01*
X156472702Y-104701276D01*
X156486611Y-104675645D01*
X156483122Y-104621535D01*
X156479553Y-104564524D01*
X156506709Y-104550356D01*
X156525721Y-104552937D01*
G37*
G36*
X156537550Y-105888764D02*
G01*
X156585124Y-105913689D01*
X156599047Y-105943465D01*
X156571028Y-105958949D01*
X156567966Y-105959005D01*
X156557012Y-105980078D01*
X156575635Y-106021294D01*
X156598258Y-106073864D01*
X156577011Y-106106924D01*
X156568226Y-106112853D01*
X156545117Y-106136928D01*
X156556291Y-106142594D01*
X156572699Y-106170650D01*
X156583891Y-106243214D01*
X156589882Y-106343663D01*
X156590690Y-106455376D01*
X156586330Y-106561731D01*
X156576819Y-106646106D01*
X156562174Y-106691880D01*
X156555739Y-106695707D01*
X156540247Y-106706754D01*
X156552888Y-106718714D01*
X156590343Y-106778765D01*
X156577346Y-106850186D01*
X156565546Y-106867186D01*
X156546275Y-106902720D01*
X156564470Y-106909972D01*
X156596039Y-106929198D01*
X156593171Y-106969624D01*
X156560771Y-107005371D01*
X156545219Y-107011531D01*
X156507412Y-107023190D01*
X156529196Y-107027996D01*
X156545219Y-107029119D01*
X156586585Y-107046622D01*
X156599840Y-107076199D01*
X156575548Y-107093845D01*
X156570735Y-107094030D01*
X156520115Y-107104151D01*
X156489012Y-107114581D01*
X156452258Y-107119960D01*
X156456923Y-107100398D01*
X156470451Y-107050474D01*
X156479562Y-106964994D01*
X156481246Y-106923381D01*
X156487497Y-106840217D01*
X156501277Y-106814026D01*
X156510356Y-106822527D01*
X156532776Y-106844258D01*
X156537080Y-106827422D01*
X156522212Y-106790019D01*
X156518453Y-106780562D01*
X156511057Y-106774514D01*
X156497085Y-106738128D01*
X156488449Y-106661500D01*
X156485009Y-106562486D01*
X156486624Y-106458940D01*
X156488394Y-106434489D01*
X156506873Y-106434489D01*
X156522212Y-106449827D01*
X156537550Y-106434489D01*
X156522212Y-106419150D01*
X156506873Y-106434489D01*
X156488394Y-106434489D01*
X156493155Y-106368718D01*
X156504461Y-106309675D01*
X156514813Y-106296445D01*
X156526376Y-106279150D01*
X156522212Y-106272614D01*
X156512065Y-106256686D01*
X156485172Y-106193335D01*
X156484797Y-106189078D01*
X156506873Y-106189078D01*
X156522212Y-106204416D01*
X156537550Y-106189078D01*
X156522212Y-106173740D01*
X156506873Y-106189078D01*
X156484797Y-106189078D01*
X156481970Y-106156988D01*
X156480634Y-106091267D01*
X156476902Y-106066373D01*
X156472125Y-106014455D01*
X156472564Y-105954208D01*
X156484154Y-105896269D01*
X156520254Y-105885107D01*
X156537550Y-105888764D01*
G37*
G36*
X155531668Y-106957663D02*
G01*
X155596013Y-106988342D01*
X155624459Y-107013804D01*
X155643136Y-107022121D01*
X155647467Y-106994332D01*
X155662347Y-106948793D01*
X155678613Y-106940648D01*
X155698889Y-106967615D01*
X155709024Y-107033925D01*
X155709289Y-107048015D01*
X155704159Y-107120151D01*
X155678137Y-107149738D01*
X155617260Y-107155382D01*
X155552643Y-107164268D01*
X155525238Y-107185677D01*
X155525231Y-107186059D01*
X155551888Y-107207597D01*
X155616115Y-107216733D01*
X155617260Y-107216735D01*
X155684622Y-107226376D01*
X155708340Y-107262250D01*
X155709289Y-107278088D01*
X155694827Y-107322996D01*
X155641016Y-107338807D01*
X155617260Y-107339440D01*
X155545633Y-107350309D01*
X155528344Y-107374244D01*
X155566881Y-107398233D01*
X155609591Y-107406424D01*
X155669705Y-107423744D01*
X155696638Y-107470223D01*
X155703734Y-107518116D01*
X155704407Y-107588010D01*
X155682922Y-107613645D01*
X155657719Y-107614281D01*
X155627485Y-107613550D01*
X155567956Y-107612110D01*
X155535788Y-107630392D01*
X155540569Y-107646204D01*
X155582854Y-107669950D01*
X155634409Y-107676880D01*
X155696616Y-107693401D01*
X155713828Y-107731913D01*
X155688763Y-107775839D01*
X155624140Y-107808603D01*
X155612360Y-107811302D01*
X155548841Y-107833852D01*
X155543567Y-107857783D01*
X155594417Y-107873527D01*
X155626564Y-107875355D01*
X155676257Y-107889815D01*
X155699205Y-107942341D01*
X155703474Y-107974773D01*
X155705935Y-108038580D01*
X155685430Y-108065028D01*
X155632598Y-108067899D01*
X155625425Y-108068289D01*
X155596107Y-108066802D01*
X155535456Y-108061076D01*
X155525516Y-108060138D01*
X155490001Y-108039133D01*
X155478878Y-107998981D01*
X155617260Y-107998981D01*
X155632598Y-108014320D01*
X155647936Y-107998981D01*
X155632598Y-107983643D01*
X155617260Y-107998981D01*
X155478878Y-107998981D01*
X155475520Y-107986859D01*
X155474116Y-107968922D01*
X155531785Y-107968922D01*
X155535456Y-107973418D01*
X155553693Y-107969207D01*
X155555907Y-107952967D01*
X155544683Y-107927717D01*
X155535456Y-107932516D01*
X155531785Y-107968922D01*
X155474116Y-107968922D01*
X155469867Y-107914621D01*
X155470636Y-107813788D01*
X155489441Y-107770602D01*
X155496630Y-107768909D01*
X155516333Y-107755308D01*
X155501358Y-107730563D01*
X155488934Y-107686424D01*
X155478098Y-107594263D01*
X155474596Y-107539453D01*
X155623814Y-107539453D01*
X155627485Y-107543949D01*
X155645722Y-107539738D01*
X155647936Y-107523498D01*
X155636712Y-107498248D01*
X155627485Y-107503047D01*
X155623814Y-107539453D01*
X155474596Y-107539453D01*
X155470675Y-107478100D01*
X155531785Y-107478100D01*
X155535456Y-107482596D01*
X155553693Y-107478386D01*
X155555907Y-107462146D01*
X155544683Y-107436896D01*
X155535456Y-107441695D01*
X155531785Y-107478100D01*
X155470675Y-107478100D01*
X155469992Y-107467409D01*
X155465756Y-107319192D01*
X155465694Y-107313975D01*
X155461415Y-106935732D01*
X155531668Y-106957663D01*
G37*
G36*
X153795334Y-103777881D02*
G01*
X153820317Y-103791946D01*
X153869194Y-103833556D01*
X153892672Y-103888717D01*
X153899312Y-103979572D01*
X153899386Y-103996428D01*
X153899386Y-104149102D01*
X154572584Y-104149102D01*
X155245782Y-104149102D01*
X155257489Y-104003390D01*
X155260170Y-103998648D01*
X155262627Y-104049521D01*
X155264790Y-104150270D01*
X155266586Y-104295156D01*
X155267944Y-104478442D01*
X155268792Y-104694388D01*
X155269060Y-104931348D01*
X155268561Y-105173275D01*
X155267200Y-105387814D01*
X155265086Y-105569288D01*
X155262330Y-105712020D01*
X155259039Y-105810331D01*
X155255323Y-105858544D01*
X155251365Y-105851638D01*
X155249144Y-105834957D01*
X155239737Y-105764305D01*
X155228048Y-105729826D01*
X155211074Y-105739920D01*
X155196108Y-105764052D01*
X155152609Y-105814822D01*
X155083412Y-105851811D01*
X154980369Y-105876734D01*
X154835331Y-105891307D01*
X154640151Y-105897247D01*
X154592112Y-105897467D01*
X154562018Y-105897605D01*
X154382487Y-105895861D01*
X154251995Y-105889818D01*
X154158302Y-105878185D01*
X154089170Y-105859672D01*
X154052767Y-105843922D01*
X153946208Y-105758789D01*
X153871375Y-105634451D01*
X153838701Y-105489244D01*
X153838081Y-105466675D01*
X153835618Y-105420332D01*
X154089046Y-105420332D01*
X154119969Y-105444655D01*
X154132143Y-105449632D01*
X154179638Y-105456517D01*
X154275447Y-105462245D01*
X154406536Y-105466290D01*
X154559870Y-105468128D01*
X154592112Y-105468184D01*
X154761209Y-105467205D01*
X154877927Y-105463600D01*
X154951220Y-105456368D01*
X154990041Y-105444509D01*
X155003342Y-105427021D01*
X155003733Y-105422170D01*
X154995251Y-105403860D01*
X154964024Y-105391021D01*
X154901381Y-105382751D01*
X154798649Y-105378150D01*
X154647156Y-105376317D01*
X154560737Y-105376155D01*
X154354979Y-105378979D01*
X154207287Y-105387368D01*
X154118397Y-105401194D01*
X154089046Y-105420332D01*
X153835618Y-105420332D01*
X153834251Y-105394610D01*
X153810515Y-105367338D01*
X153748373Y-105368315D01*
X153730381Y-105370366D01*
X153653920Y-105385849D01*
X153608283Y-105407233D01*
X153605866Y-105410221D01*
X153560031Y-105434674D01*
X153490032Y-105432899D01*
X153425840Y-105407532D01*
X153409786Y-105392966D01*
X153387510Y-105325178D01*
X153409786Y-105254482D01*
X153467752Y-105208154D01*
X153470088Y-105207381D01*
X153537599Y-105209585D01*
X153602240Y-105237184D01*
X153686576Y-105270628D01*
X153746540Y-105249799D01*
X153775205Y-105178153D01*
X153776680Y-105150180D01*
X153790142Y-105079597D01*
X153822284Y-105024881D01*
X153860743Y-104996881D01*
X153893156Y-105006451D01*
X153905051Y-105037511D01*
X153915242Y-105073214D01*
X153938346Y-105071541D01*
X153989969Y-105030515D01*
X153995057Y-105026116D01*
X154047024Y-104971267D01*
X154062976Y-104913561D01*
X154054510Y-104836586D01*
X154032858Y-104760987D01*
X154004896Y-104724984D01*
X153997184Y-104724283D01*
X153967866Y-104705437D01*
X153960738Y-104670600D01*
X153952058Y-104636916D01*
X154134943Y-104636916D01*
X154138661Y-104646059D01*
X154162892Y-104699288D01*
X154175117Y-104782909D01*
X154175473Y-104799440D01*
X154183825Y-104883337D01*
X154214073Y-104912678D01*
X154274008Y-104892613D01*
X154296321Y-104879374D01*
X154358639Y-104858081D01*
X154432780Y-104878193D01*
X154435392Y-104879374D01*
X154513730Y-104901122D01*
X154621050Y-104914640D01*
X154675406Y-104916742D01*
X154875612Y-104930617D01*
X155027692Y-104971805D01*
X155139620Y-105042776D01*
X155164784Y-105068247D01*
X155249144Y-105162389D01*
X155249144Y-104885818D01*
X155249144Y-104609247D01*
X155029693Y-104609247D01*
X154675497Y-104609247D01*
X154468470Y-104610082D01*
X154316839Y-104612860D01*
X154214666Y-104617986D01*
X154156013Y-104625870D01*
X154134943Y-104636916D01*
X153952058Y-104636916D01*
X153947892Y-104620752D01*
X153930062Y-104609247D01*
X153911438Y-104636593D01*
X153900550Y-104705470D01*
X153899386Y-104741506D01*
X153877821Y-104873290D01*
X153815050Y-104962126D01*
X153713961Y-105004686D01*
X153668118Y-105008039D01*
X153564045Y-104985706D01*
X153482865Y-104927741D01*
X153441428Y-104847696D01*
X153439241Y-104823981D01*
X153419025Y-104773198D01*
X153390866Y-104762629D01*
X153339795Y-104742205D01*
X153272242Y-104691349D01*
X153252823Y-104672959D01*
X153179787Y-104565313D01*
X153167373Y-104451827D01*
X153197827Y-104379667D01*
X154833553Y-104379667D01*
X154856111Y-104452195D01*
X154909211Y-104508376D01*
X154927944Y-104517561D01*
X155029693Y-104531901D01*
X155109430Y-104495009D01*
X155143272Y-104446308D01*
X155154838Y-104373886D01*
X155138256Y-104300496D01*
X155101547Y-104250317D01*
X155075311Y-104241370D01*
X155031028Y-104217258D01*
X155021628Y-104202786D01*
X155001482Y-104180226D01*
X154985839Y-104202786D01*
X154943963Y-104234145D01*
X154904035Y-104241131D01*
X154861630Y-104248816D01*
X154860311Y-104261316D01*
X154862283Y-104298680D01*
X154851369Y-104316596D01*
X154833553Y-104379667D01*
X153197827Y-104379667D01*
X153215865Y-104336925D01*
X153230021Y-104317779D01*
X153278889Y-104237025D01*
X153304708Y-104159190D01*
X153304974Y-104156926D01*
X153331699Y-104075826D01*
X153383468Y-104005276D01*
X153442979Y-103967019D01*
X153457659Y-103965044D01*
X153497776Y-103940070D01*
X153537336Y-103881398D01*
X153605621Y-103796622D01*
X153696922Y-103760440D01*
X153795334Y-103777881D01*
G37*
G36*
X155240123Y-106033173D02*
G01*
X155247809Y-106045242D01*
X155254426Y-106072467D01*
X155260046Y-106118692D01*
X155264743Y-106187764D01*
X155268589Y-106283526D01*
X155271656Y-106409825D01*
X155274017Y-106570504D01*
X155275743Y-106769410D01*
X155276909Y-107010387D01*
X155277585Y-107297280D01*
X155277845Y-107633934D01*
X155277761Y-108024195D01*
X155277405Y-108471907D01*
X155277399Y-108478851D01*
X155276836Y-108860672D01*
X155275936Y-109223467D01*
X155274732Y-109562750D01*
X155273256Y-109874034D01*
X155271543Y-110152832D01*
X155269624Y-110394657D01*
X155267534Y-110595022D01*
X155265304Y-110749441D01*
X155262969Y-110853425D01*
X155260562Y-110902489D01*
X155259504Y-110905563D01*
X155240177Y-110893564D01*
X155189416Y-110884143D01*
X155101874Y-110877059D01*
X154972202Y-110872074D01*
X154795049Y-110868948D01*
X154565067Y-110867443D01*
X154402079Y-110867218D01*
X154065856Y-110867218D01*
X153970964Y-110867218D01*
X153914724Y-110867218D01*
X153868709Y-110867218D01*
X153713117Y-110867218D01*
X153560127Y-110867218D01*
X153566925Y-110563863D01*
X153653975Y-110563863D01*
X153677036Y-110590702D01*
X153681987Y-110591131D01*
X153691775Y-110615700D01*
X153678012Y-110675652D01*
X153675423Y-110682732D01*
X153656271Y-110758461D01*
X153672539Y-110805594D01*
X153677885Y-110811370D01*
X153713117Y-110826520D01*
X153732954Y-110816091D01*
X153848258Y-110816091D01*
X153852469Y-110834328D01*
X153868709Y-110836542D01*
X153893959Y-110825318D01*
X153889160Y-110816091D01*
X153852754Y-110812419D01*
X153848258Y-110816091D01*
X153732954Y-110816091D01*
X153761471Y-110801099D01*
X153801612Y-110765354D01*
X153808170Y-110759851D01*
X153899386Y-110759851D01*
X153914724Y-110775189D01*
X153930062Y-110759851D01*
X153914724Y-110744513D01*
X153899386Y-110759851D01*
X153808170Y-110759851D01*
X153859965Y-110716388D01*
X153898768Y-110696502D01*
X153903934Y-110697934D01*
X153915063Y-110685053D01*
X153915920Y-110668439D01*
X153967292Y-110668439D01*
X153970964Y-110672935D01*
X153989201Y-110668724D01*
X153991415Y-110652484D01*
X153980191Y-110627234D01*
X153970964Y-110632033D01*
X153967292Y-110668439D01*
X153915920Y-110668439D01*
X153917145Y-110644680D01*
X153892844Y-110580426D01*
X153859069Y-110553045D01*
X153820515Y-110523714D01*
X153819375Y-110504474D01*
X153810458Y-110481612D01*
X153792373Y-110478651D01*
X153757205Y-110497169D01*
X153755377Y-110511884D01*
X153735913Y-110537784D01*
X153707659Y-110540856D01*
X153669313Y-110548581D01*
X153662280Y-110549998D01*
X153653975Y-110563863D01*
X153566925Y-110563863D01*
X153568705Y-110484443D01*
X153568723Y-110483764D01*
X153653975Y-110483764D01*
X153669313Y-110499102D01*
X153684651Y-110483764D01*
X153669313Y-110468426D01*
X153653975Y-110483764D01*
X153568723Y-110483764D01*
X153572103Y-110353390D01*
X153874405Y-110353390D01*
X153876398Y-110382378D01*
X153904498Y-110398667D01*
X153971091Y-110405729D01*
X154065856Y-110407073D01*
X154186864Y-110402606D01*
X154251017Y-110387705D01*
X154262265Y-110360118D01*
X154224558Y-110317595D01*
X154223870Y-110317022D01*
X154167702Y-110296943D01*
X154076458Y-110289013D01*
X154032419Y-110290259D01*
X153935834Y-110302539D01*
X153887049Y-110326926D01*
X153874405Y-110353390D01*
X153572103Y-110353390D01*
X153572847Y-110324693D01*
X153578478Y-110213930D01*
X153588071Y-110139796D01*
X153604096Y-110089933D01*
X153629028Y-110051983D01*
X153662292Y-110016629D01*
X153707483Y-109976024D01*
X153754900Y-109950114D01*
X153820152Y-109934865D01*
X153918845Y-109926243D01*
X154030408Y-109921475D01*
X154166706Y-109920461D01*
X154288824Y-109926397D01*
X154377261Y-109938078D01*
X154399360Y-109944287D01*
X154479599Y-110005275D01*
X154539584Y-110110130D01*
X154571294Y-110242597D01*
X154574265Y-110298721D01*
X154574265Y-110407073D01*
X154911704Y-110407073D01*
X155249144Y-110407073D01*
X155249144Y-110100310D01*
X155249144Y-109793547D01*
X154894117Y-109793547D01*
X154405545Y-109793547D01*
X153561946Y-109793547D01*
X153561946Y-109563474D01*
X153561946Y-109333402D01*
X153870959Y-109333402D01*
X154011370Y-109332416D01*
X154100920Y-109328202D01*
X154150086Y-109318879D01*
X154169346Y-109302562D01*
X154169650Y-109279718D01*
X154549375Y-109279718D01*
X154550197Y-109302785D01*
X154569753Y-109318144D01*
X154617912Y-109327331D01*
X154704541Y-109331884D01*
X154839509Y-109333339D01*
X154894117Y-109333402D01*
X155046195Y-109332784D01*
X155147285Y-109329718D01*
X155207745Y-109322385D01*
X155237937Y-109308964D01*
X155248219Y-109287635D01*
X155249144Y-109271044D01*
X155245849Y-109244110D01*
X155228951Y-109226706D01*
X155187933Y-109217195D01*
X155112276Y-109213939D01*
X154991461Y-109215299D01*
X154904403Y-109217361D01*
X154752707Y-109222282D01*
X154651856Y-109229186D01*
X154591339Y-109239920D01*
X154560648Y-109256328D01*
X154549375Y-109279718D01*
X154169650Y-109279718D01*
X154157636Y-109254717D01*
X154125644Y-109238832D01*
X154062319Y-109230090D01*
X153956305Y-109226518D01*
X153860659Y-109226034D01*
X153561989Y-109226034D01*
X153561968Y-109003631D01*
X153561946Y-108781228D01*
X154405545Y-108781228D01*
X155249144Y-108781228D01*
X155249144Y-108585500D01*
X155249144Y-108389773D01*
X155172453Y-108389516D01*
X155089627Y-108389239D01*
X155044635Y-108389088D01*
X154980726Y-108388874D01*
X154957719Y-108389843D01*
X154827474Y-108395326D01*
X154657384Y-108416920D01*
X154461626Y-108455530D01*
X154231369Y-108513031D01*
X153957784Y-108591297D01*
X153799687Y-108639513D01*
X153561946Y-108713214D01*
X153561946Y-108505151D01*
X153561946Y-108336421D01*
X155157115Y-108336421D01*
X155172453Y-108351759D01*
X155187791Y-108336421D01*
X155172453Y-108321083D01*
X155157115Y-108336421D01*
X153561946Y-108336421D01*
X153561946Y-108297089D01*
X153827759Y-108247782D01*
X153845241Y-108244392D01*
X154942381Y-108244392D01*
X154957719Y-108259730D01*
X154973057Y-108244392D01*
X155065086Y-108244392D01*
X155073498Y-108302072D01*
X155089627Y-108321083D01*
X155108085Y-108294797D01*
X155110466Y-108275068D01*
X155157115Y-108275068D01*
X155172453Y-108290406D01*
X155187791Y-108275068D01*
X155176298Y-108263575D01*
X155172453Y-108259730D01*
X155157115Y-108275068D01*
X155110466Y-108275068D01*
X155114168Y-108244392D01*
X155105757Y-108186712D01*
X155089627Y-108167701D01*
X155071169Y-108193987D01*
X155065086Y-108244392D01*
X154973057Y-108244392D01*
X154957719Y-108229054D01*
X154942381Y-108244392D01*
X153845241Y-108244392D01*
X153947786Y-108224507D01*
X154042498Y-108204239D01*
X154097453Y-108190150D01*
X154105263Y-108186784D01*
X154098142Y-108183039D01*
X154942381Y-108183039D01*
X154957719Y-108198377D01*
X154973057Y-108183039D01*
X154957719Y-108167701D01*
X154942381Y-108183039D01*
X154098142Y-108183039D01*
X154085079Y-108176169D01*
X154020638Y-108161996D01*
X154002062Y-108158994D01*
X155161601Y-108158994D01*
X155166533Y-108190125D01*
X155176298Y-108202634D01*
X155181609Y-108161889D01*
X155181811Y-108152363D01*
X155178495Y-108099973D01*
X155168892Y-108095361D01*
X155167670Y-108098096D01*
X155161601Y-108158994D01*
X154002062Y-108158994D01*
X153969824Y-108153784D01*
X153846669Y-108132939D01*
X153721779Y-108107364D01*
X153692320Y-108100432D01*
X153633185Y-108085898D01*
X154952606Y-108085898D01*
X154956817Y-108104135D01*
X154973057Y-108106348D01*
X154998307Y-108095125D01*
X154993508Y-108085898D01*
X154957102Y-108082226D01*
X154952606Y-108085898D01*
X153633185Y-108085898D01*
X153561946Y-108068389D01*
X153561946Y-108060951D01*
X155040964Y-108060951D01*
X155044635Y-108065447D01*
X155062872Y-108061236D01*
X155065086Y-108044996D01*
X155053862Y-108019746D01*
X155044635Y-108024545D01*
X155040964Y-108060951D01*
X153561946Y-108060951D01*
X153561946Y-107872634D01*
X153565726Y-107772135D01*
X153575600Y-107701510D01*
X153588413Y-107676880D01*
X153625151Y-107685350D01*
X153710469Y-107708830D01*
X153834267Y-107744423D01*
X153986444Y-107789235D01*
X154123440Y-107830262D01*
X154315618Y-107887362D01*
X154463491Y-107928310D01*
X154581155Y-107955750D01*
X154682707Y-107972330D01*
X154782244Y-107980694D01*
X154893862Y-107983490D01*
X154940573Y-107983643D01*
X155249144Y-107983643D01*
X155248992Y-107684549D01*
X155248839Y-107385455D01*
X155179970Y-107468845D01*
X155082837Y-107553301D01*
X154955861Y-107600661D01*
X154786666Y-107615527D01*
X154785600Y-107615527D01*
X154632814Y-107615527D01*
X154641885Y-107408462D01*
X154650956Y-107201397D01*
X154774129Y-107210044D01*
X154872430Y-107205084D01*
X154949320Y-107180250D01*
X154992327Y-107142688D01*
X154988978Y-107099548D01*
X154981791Y-107091024D01*
X154937959Y-107073799D01*
X154861126Y-107061956D01*
X154775992Y-107057141D01*
X154707256Y-107060998D01*
X154680977Y-107071001D01*
X154661534Y-107097411D01*
X154613964Y-107162190D01*
X154546420Y-107254233D01*
X154499550Y-107318128D01*
X154415249Y-107425508D01*
X154334955Y-107514715D01*
X154270773Y-107572849D01*
X154247705Y-107586546D01*
X154154176Y-107607452D01*
X154031652Y-107615941D01*
X153901364Y-107612742D01*
X153784542Y-107598581D01*
X153702416Y-107574186D01*
X153691031Y-107567461D01*
X153610578Y-107475840D01*
X153556548Y-107337083D01*
X153532366Y-107160935D01*
X153531384Y-107113291D01*
X153548926Y-106934187D01*
X153603238Y-106803111D01*
X153697223Y-106716932D01*
X153833783Y-106672517D01*
X153947397Y-106664561D01*
X154083444Y-106664561D01*
X154083444Y-106863957D01*
X154083444Y-107063353D01*
X153964020Y-107063353D01*
X153874776Y-107074084D01*
X153829461Y-107103167D01*
X153828374Y-107105630D01*
X153832787Y-107163035D01*
X153885738Y-107203393D01*
X153964147Y-107216735D01*
X154011222Y-107210108D01*
X154057511Y-107184970D01*
X154110773Y-107133438D01*
X154178771Y-107047629D01*
X154269264Y-106919659D01*
X154298178Y-106877417D01*
X154388940Y-106764110D01*
X154486719Y-106690803D01*
X154607281Y-106650245D01*
X154766393Y-106635189D01*
X154826359Y-106634567D01*
X154977490Y-106642839D01*
X155083533Y-106670837D01*
X155159290Y-106724969D01*
X155214537Y-106802605D01*
X155233375Y-106826763D01*
X155242481Y-106808537D01*
X155243551Y-106740474D01*
X155241540Y-106683952D01*
X155233806Y-106503947D01*
X154397876Y-106502388D01*
X154090892Y-106501816D01*
X153670392Y-106501032D01*
X153561946Y-106500830D01*
X153561946Y-106357798D01*
X153623299Y-106357798D01*
X153642975Y-106408171D01*
X153670392Y-106419150D01*
X153700931Y-106408546D01*
X153689359Y-106366825D01*
X153684651Y-106357798D01*
X153653407Y-106309614D01*
X153637557Y-106296445D01*
X153625954Y-106322250D01*
X153623299Y-106357798D01*
X153561946Y-106357798D01*
X153561946Y-106275932D01*
X153561946Y-106239270D01*
X153635405Y-106239270D01*
X153641070Y-106263090D01*
X153659255Y-106250396D01*
X153674108Y-106210746D01*
X153689835Y-106173956D01*
X153722710Y-106153550D01*
X153787790Y-106144823D01*
X153890714Y-106143063D01*
X154089621Y-106143063D01*
X154078642Y-106281107D01*
X154076699Y-106363241D01*
X154084387Y-106412668D01*
X154090892Y-106419150D01*
X154104144Y-106391550D01*
X154112554Y-106320983D01*
X154114120Y-106265769D01*
X154114120Y-106112387D01*
X153887625Y-106112387D01*
X153770454Y-106113950D01*
X153700596Y-106121228D01*
X153664036Y-106138104D01*
X153646762Y-106168463D01*
X153643431Y-106180069D01*
X153635405Y-106239270D01*
X153561946Y-106239270D01*
X153561946Y-106051034D01*
X154372360Y-106051034D01*
X154591285Y-106050351D01*
X154791475Y-106048427D01*
X154964289Y-106045449D01*
X155101087Y-106041603D01*
X155193227Y-106037079D01*
X155231297Y-106032414D01*
X155240123Y-106033173D01*
G37*
D13*
%TO.C,R1*%
X131460000Y-96565000D02*
X131460000Y-99025000D01*
X131460000Y-99025000D02*
X132930000Y-99025000D01*
X132930000Y-99025000D02*
X132930000Y-96565000D01*
%TO.C,R2*%
X124930000Y-102280000D02*
X127390000Y-102280000D01*
X127390000Y-100810000D02*
X124930000Y-100810000D01*
X127390000Y-102280000D02*
X127390000Y-100810000D01*
D15*
%TO.C,OFF                   ON*%
X138555000Y-110255000D02*
X138555000Y-106955000D01*
X138610000Y-106954000D02*
X139499000Y-106954000D01*
X138610000Y-110256000D02*
X139499000Y-110256000D01*
X142039000Y-106954000D02*
X141531000Y-106954000D01*
X142039000Y-110256000D02*
X141531000Y-110256000D01*
D16*
X143385200Y-107970000D02*
X143385200Y-109240000D01*
X143385200Y-109240000D02*
X144020200Y-109240000D01*
X144020200Y-107970000D02*
X143385200Y-107970000D01*
X144020200Y-109240000D02*
X144020200Y-107970000D01*
X144020200Y-109240000D02*
X144325000Y-109240000D01*
X144325000Y-107970000D02*
X144020200Y-107970000D01*
X144325000Y-109240000D02*
X144325000Y-107970000D01*
X144325000Y-109240000D02*
X144960000Y-109240000D01*
D15*
X144579000Y-106954000D02*
X144071000Y-106954000D01*
X144579000Y-110256000D02*
X144071000Y-110256000D01*
D16*
X144960000Y-107970000D02*
X144325000Y-107970000D01*
X144960000Y-109240000D02*
X144960000Y-107970000D01*
D15*
X147500000Y-106954000D02*
X146611000Y-106954000D01*
X147500000Y-110256000D02*
X146611000Y-110256000D01*
X147555000Y-106955000D02*
X147555000Y-110255000D01*
D13*
%TO.C,C8*%
X157133748Y-95950000D02*
X157656252Y-95950000D01*
X157133748Y-97420000D02*
X157656252Y-97420000D01*
D15*
%TO.C,TP4056*%
X129500000Y-95050000D02*
X125500000Y-95050000D01*
X129500000Y-100150000D02*
X125500000Y-100150000D01*
D17*
X132045000Y-100105000D02*
G75*
G02*
X131845000Y-100105000I-100000J0D01*
G01*
X131845000Y-100105000D02*
G75*
G02*
X132045000Y-100105000I100000J0D01*
G01*
D13*
%TO.C,C9*%
X154510225Y-99160000D02*
X155010225Y-99160000D01*
X154760225Y-98910000D02*
X154760225Y-99410000D01*
X157315000Y-98055000D02*
X157315000Y-99595000D01*
X157315000Y-101675000D02*
X157315000Y-103215000D01*
X157355000Y-98055000D02*
X157355000Y-99595000D01*
X157355000Y-101675000D02*
X157355000Y-103215000D01*
X157395000Y-98056000D02*
X157395000Y-99595000D01*
X157395000Y-101675000D02*
X157395000Y-103214000D01*
X157435000Y-98057000D02*
X157435000Y-99595000D01*
X157435000Y-101675000D02*
X157435000Y-103213000D01*
X157475000Y-98059000D02*
X157475000Y-99595000D01*
X157475000Y-101675000D02*
X157475000Y-103211000D01*
X157515000Y-98062000D02*
X157515000Y-99595000D01*
X157515000Y-101675000D02*
X157515000Y-103208000D01*
X157555000Y-98066000D02*
X157555000Y-99595000D01*
X157555000Y-101675000D02*
X157555000Y-103204000D01*
X157595000Y-98070000D02*
X157595000Y-99595000D01*
X157595000Y-101675000D02*
X157595000Y-103200000D01*
X157635000Y-98074000D02*
X157635000Y-99595000D01*
X157635000Y-101675000D02*
X157635000Y-103196000D01*
X157675000Y-98079000D02*
X157675000Y-99595000D01*
X157675000Y-101675000D02*
X157675000Y-103191000D01*
X157715000Y-98085000D02*
X157715000Y-99595000D01*
X157715000Y-101675000D02*
X157715000Y-103185000D01*
X157755000Y-98092000D02*
X157755000Y-99595000D01*
X157755000Y-101675000D02*
X157755000Y-103178000D01*
X157795000Y-98099000D02*
X157795000Y-99595000D01*
X157795000Y-101675000D02*
X157795000Y-103171000D01*
X157835000Y-98107000D02*
X157835000Y-99595000D01*
X157835000Y-101675000D02*
X157835000Y-103163000D01*
X157875000Y-98115000D02*
X157875000Y-99595000D01*
X157875000Y-101675000D02*
X157875000Y-103155000D01*
X157915000Y-98124000D02*
X157915000Y-99595000D01*
X157915000Y-101675000D02*
X157915000Y-103146000D01*
X157955000Y-98134000D02*
X157955000Y-99595000D01*
X157955000Y-101675000D02*
X157955000Y-103136000D01*
X157995000Y-98144000D02*
X157995000Y-99595000D01*
X157995000Y-101675000D02*
X157995000Y-103126000D01*
X158036000Y-98155000D02*
X158036000Y-99595000D01*
X158036000Y-101675000D02*
X158036000Y-103115000D01*
X158076000Y-98167000D02*
X158076000Y-99595000D01*
X158076000Y-101675000D02*
X158076000Y-103103000D01*
X158116000Y-98180000D02*
X158116000Y-99595000D01*
X158116000Y-101675000D02*
X158116000Y-103090000D01*
X158156000Y-98193000D02*
X158156000Y-99595000D01*
X158156000Y-101675000D02*
X158156000Y-103077000D01*
X158196000Y-98207000D02*
X158196000Y-99595000D01*
X158196000Y-101675000D02*
X158196000Y-103063000D01*
X158236000Y-98221000D02*
X158236000Y-99595000D01*
X158236000Y-101675000D02*
X158236000Y-103049000D01*
X158276000Y-98237000D02*
X158276000Y-99595000D01*
X158276000Y-101675000D02*
X158276000Y-103033000D01*
X158316000Y-98253000D02*
X158316000Y-99595000D01*
X158316000Y-101675000D02*
X158316000Y-103017000D01*
X158356000Y-98270000D02*
X158356000Y-99595000D01*
X158356000Y-101675000D02*
X158356000Y-103000000D01*
X158396000Y-98287000D02*
X158396000Y-99595000D01*
X158396000Y-101675000D02*
X158396000Y-102983000D01*
X158436000Y-98306000D02*
X158436000Y-99595000D01*
X158436000Y-101675000D02*
X158436000Y-102964000D01*
X158476000Y-98325000D02*
X158476000Y-99595000D01*
X158476000Y-101675000D02*
X158476000Y-102945000D01*
X158516000Y-98345000D02*
X158516000Y-99595000D01*
X158516000Y-101675000D02*
X158516000Y-102925000D01*
X158556000Y-98367000D02*
X158556000Y-99595000D01*
X158556000Y-101675000D02*
X158556000Y-102903000D01*
X158596000Y-98388000D02*
X158596000Y-99595000D01*
X158596000Y-101675000D02*
X158596000Y-102882000D01*
X158636000Y-98411000D02*
X158636000Y-99595000D01*
X158636000Y-101675000D02*
X158636000Y-102859000D01*
X158676000Y-98435000D02*
X158676000Y-99595000D01*
X158676000Y-101675000D02*
X158676000Y-102835000D01*
X158716000Y-98460000D02*
X158716000Y-99595000D01*
X158716000Y-101675000D02*
X158716000Y-102810000D01*
X158756000Y-98486000D02*
X158756000Y-99595000D01*
X158756000Y-101675000D02*
X158756000Y-102784000D01*
X158796000Y-98513000D02*
X158796000Y-99595000D01*
X158796000Y-101675000D02*
X158796000Y-102757000D01*
X158836000Y-98540000D02*
X158836000Y-99595000D01*
X158836000Y-101675000D02*
X158836000Y-102730000D01*
X158876000Y-98570000D02*
X158876000Y-99595000D01*
X158876000Y-101675000D02*
X158876000Y-102700000D01*
X158916000Y-98600000D02*
X158916000Y-99595000D01*
X158916000Y-101675000D02*
X158916000Y-102670000D01*
X158956000Y-98631000D02*
X158956000Y-99595000D01*
X158956000Y-101675000D02*
X158956000Y-102639000D01*
X158996000Y-98664000D02*
X158996000Y-99595000D01*
X158996000Y-101675000D02*
X158996000Y-102606000D01*
X159036000Y-98698000D02*
X159036000Y-99595000D01*
X159036000Y-101675000D02*
X159036000Y-102572000D01*
X159076000Y-98734000D02*
X159076000Y-99595000D01*
X159076000Y-101675000D02*
X159076000Y-102536000D01*
X159116000Y-98771000D02*
X159116000Y-99595000D01*
X159116000Y-101675000D02*
X159116000Y-102499000D01*
X159156000Y-98809000D02*
X159156000Y-99595000D01*
X159156000Y-101675000D02*
X159156000Y-102461000D01*
X159196000Y-98850000D02*
X159196000Y-99595000D01*
X159196000Y-101675000D02*
X159196000Y-102420000D01*
X159236000Y-98892000D02*
X159236000Y-99595000D01*
X159236000Y-101675000D02*
X159236000Y-102378000D01*
X159276000Y-98936000D02*
X159276000Y-99595000D01*
X159276000Y-101675000D02*
X159276000Y-102334000D01*
X159316000Y-98982000D02*
X159316000Y-99595000D01*
X159316000Y-101675000D02*
X159316000Y-102288000D01*
X159356000Y-99030000D02*
X159356000Y-102240000D01*
X159396000Y-99081000D02*
X159396000Y-102189000D01*
X159436000Y-99135000D02*
X159436000Y-102135000D01*
X159476000Y-99192000D02*
X159476000Y-102078000D01*
X159516000Y-99252000D02*
X159516000Y-102018000D01*
X159556000Y-99316000D02*
X159556000Y-101954000D01*
X159596000Y-99384000D02*
X159596000Y-101886000D01*
X159636000Y-99457000D02*
X159636000Y-101813000D01*
X159676000Y-99537000D02*
X159676000Y-101733000D01*
X159716000Y-99624000D02*
X159716000Y-101646000D01*
X159756000Y-99720000D02*
X159756000Y-101550000D01*
X159796000Y-99830000D02*
X159796000Y-101440000D01*
X159836000Y-99958000D02*
X159836000Y-101312000D01*
X159876000Y-100117000D02*
X159876000Y-101153000D01*
X159916000Y-100351000D02*
X159916000Y-100919000D01*
X159935000Y-100635000D02*
G75*
G02*
X154695000Y-100635000I-2620000J0D01*
G01*
X154695000Y-100635000D02*
G75*
G02*
X159935000Y-100635000I2620000J0D01*
G01*
%TO.C,SW1*%
X125105000Y-91655000D02*
X125105000Y-89455000D01*
X125575000Y-93625000D02*
X130775000Y-93625000D01*
X126175000Y-87385000D02*
X130575000Y-87385000D01*
X131345000Y-89455000D02*
X131345000Y-91655000D01*
X129639214Y-90505000D02*
G75*
G02*
X126810786Y-90505000I-1414214J0D01*
G01*
X126810786Y-90505000D02*
G75*
G02*
X129639214Y-90505000I1414214J0D01*
G01*
%TO.C,+*%
X124535000Y-73675000D02*
X124535000Y-73555000D01*
X124535000Y-75675000D02*
X124535000Y-74615000D01*
X125595000Y-75675000D02*
X124535000Y-75675000D01*
X126655000Y-73555000D02*
X124535000Y-73555000D01*
X126655000Y-73675000D02*
X126655000Y-73555000D01*
%TO.C,C1*%
X143950000Y-98223748D02*
X143950000Y-98746252D01*
X145420000Y-98223748D02*
X145420000Y-98746252D01*
%TO.C,D1*%
X127715000Y-100810000D02*
X127715000Y-102280000D01*
X127715000Y-102280000D02*
X130175000Y-102280000D01*
X130175000Y-100810000D02*
X127715000Y-100810000D01*
%TO.C,C11*%
X143355000Y-103345000D02*
X141815000Y-103345000D01*
X143355000Y-103385000D02*
X141815000Y-103385000D01*
X143355000Y-103425000D02*
X141816000Y-103425000D01*
X143355000Y-103465000D02*
X141817000Y-103465000D01*
X143355000Y-103505000D02*
X141819000Y-103505000D01*
X143355000Y-103545000D02*
X141822000Y-103545000D01*
X143355000Y-103585000D02*
X141826000Y-103585000D01*
X143355000Y-103625000D02*
X141830000Y-103625000D01*
X143355000Y-103665000D02*
X141834000Y-103665000D01*
X143355000Y-103705000D02*
X141839000Y-103705000D01*
X143355000Y-103745000D02*
X141845000Y-103745000D01*
X143355000Y-103785000D02*
X141852000Y-103785000D01*
X143355000Y-103825000D02*
X141859000Y-103825000D01*
X143355000Y-103865000D02*
X141867000Y-103865000D01*
X143355000Y-103905000D02*
X141875000Y-103905000D01*
X143355000Y-103945000D02*
X141884000Y-103945000D01*
X143355000Y-103985000D02*
X141894000Y-103985000D01*
X143355000Y-104025000D02*
X141904000Y-104025000D01*
X143355000Y-104066000D02*
X141915000Y-104066000D01*
X143355000Y-104106000D02*
X141927000Y-104106000D01*
X143355000Y-104146000D02*
X141940000Y-104146000D01*
X143355000Y-104186000D02*
X141953000Y-104186000D01*
X143355000Y-104226000D02*
X141967000Y-104226000D01*
X143355000Y-104266000D02*
X141981000Y-104266000D01*
X143355000Y-104306000D02*
X141997000Y-104306000D01*
X143355000Y-104346000D02*
X142013000Y-104346000D01*
X143355000Y-104386000D02*
X142030000Y-104386000D01*
X143355000Y-104426000D02*
X142047000Y-104426000D01*
X143355000Y-104466000D02*
X142066000Y-104466000D01*
X143355000Y-104506000D02*
X142085000Y-104506000D01*
X143355000Y-104546000D02*
X142105000Y-104546000D01*
X143355000Y-104586000D02*
X142127000Y-104586000D01*
X143355000Y-104626000D02*
X142148000Y-104626000D01*
X143355000Y-104666000D02*
X142171000Y-104666000D01*
X143355000Y-104706000D02*
X142195000Y-104706000D01*
X143355000Y-104746000D02*
X142220000Y-104746000D01*
X143355000Y-104786000D02*
X142246000Y-104786000D01*
X143355000Y-104826000D02*
X142273000Y-104826000D01*
X143355000Y-104866000D02*
X142300000Y-104866000D01*
X143355000Y-104906000D02*
X142330000Y-104906000D01*
X143355000Y-104946000D02*
X142360000Y-104946000D01*
X143355000Y-104986000D02*
X142391000Y-104986000D01*
X143355000Y-105026000D02*
X142424000Y-105026000D01*
X143355000Y-105066000D02*
X142458000Y-105066000D01*
X143355000Y-105106000D02*
X142494000Y-105106000D01*
X143355000Y-105146000D02*
X142531000Y-105146000D01*
X143355000Y-105186000D02*
X142569000Y-105186000D01*
X143355000Y-105226000D02*
X142610000Y-105226000D01*
X143355000Y-105266000D02*
X142652000Y-105266000D01*
X143355000Y-105306000D02*
X142696000Y-105306000D01*
X143355000Y-105346000D02*
X142742000Y-105346000D01*
X144679000Y-105946000D02*
X144111000Y-105946000D01*
X144913000Y-105906000D02*
X143877000Y-105906000D01*
X145072000Y-105866000D02*
X143718000Y-105866000D01*
X145200000Y-105826000D02*
X143590000Y-105826000D01*
X145310000Y-105786000D02*
X143480000Y-105786000D01*
X145406000Y-105746000D02*
X143384000Y-105746000D01*
X145493000Y-105706000D02*
X143297000Y-105706000D01*
X145573000Y-105666000D02*
X143217000Y-105666000D01*
X145646000Y-105626000D02*
X143144000Y-105626000D01*
X145714000Y-105586000D02*
X143076000Y-105586000D01*
X145778000Y-105546000D02*
X143012000Y-105546000D01*
X145838000Y-105506000D02*
X142952000Y-105506000D01*
X145870000Y-100540225D02*
X145870000Y-101040225D01*
X145895000Y-105466000D02*
X142895000Y-105466000D01*
X145949000Y-105426000D02*
X142841000Y-105426000D01*
X146000000Y-105386000D02*
X142790000Y-105386000D01*
X146048000Y-105346000D02*
X145435000Y-105346000D01*
X146094000Y-105306000D02*
X145435000Y-105306000D01*
X146120000Y-100790225D02*
X145620000Y-100790225D01*
X146138000Y-105266000D02*
X145435000Y-105266000D01*
X146180000Y-105226000D02*
X145435000Y-105226000D01*
X146221000Y-105186000D02*
X145435000Y-105186000D01*
X146259000Y-105146000D02*
X145435000Y-105146000D01*
X146296000Y-105106000D02*
X145435000Y-105106000D01*
X146332000Y-105066000D02*
X145435000Y-105066000D01*
X146366000Y-105026000D02*
X145435000Y-105026000D01*
X146399000Y-104986000D02*
X145435000Y-104986000D01*
X146430000Y-104946000D02*
X145435000Y-104946000D01*
X146460000Y-104906000D02*
X145435000Y-104906000D01*
X146490000Y-104866000D02*
X145435000Y-104866000D01*
X146517000Y-104826000D02*
X145435000Y-104826000D01*
X146544000Y-104786000D02*
X145435000Y-104786000D01*
X146570000Y-104746000D02*
X145435000Y-104746000D01*
X146595000Y-104706000D02*
X145435000Y-104706000D01*
X146619000Y-104666000D02*
X145435000Y-104666000D01*
X146642000Y-104626000D02*
X145435000Y-104626000D01*
X146663000Y-104586000D02*
X145435000Y-104586000D01*
X146685000Y-104546000D02*
X145435000Y-104546000D01*
X146705000Y-104506000D02*
X145435000Y-104506000D01*
X146724000Y-104466000D02*
X145435000Y-104466000D01*
X146743000Y-104426000D02*
X145435000Y-104426000D01*
X146760000Y-104386000D02*
X145435000Y-104386000D01*
X146777000Y-104346000D02*
X145435000Y-104346000D01*
X146793000Y-104306000D02*
X145435000Y-104306000D01*
X146809000Y-104266000D02*
X145435000Y-104266000D01*
X146823000Y-104226000D02*
X145435000Y-104226000D01*
X146837000Y-104186000D02*
X145435000Y-104186000D01*
X146850000Y-104146000D02*
X145435000Y-104146000D01*
X146863000Y-104106000D02*
X145435000Y-104106000D01*
X146875000Y-104066000D02*
X145435000Y-104066000D01*
X146886000Y-104025000D02*
X145435000Y-104025000D01*
X146896000Y-103985000D02*
X145435000Y-103985000D01*
X146906000Y-103945000D02*
X145435000Y-103945000D01*
X146915000Y-103905000D02*
X145435000Y-103905000D01*
X146923000Y-103865000D02*
X145435000Y-103865000D01*
X146931000Y-103825000D02*
X145435000Y-103825000D01*
X146938000Y-103785000D02*
X145435000Y-103785000D01*
X146945000Y-103745000D02*
X145435000Y-103745000D01*
X146951000Y-103705000D02*
X145435000Y-103705000D01*
X146956000Y-103665000D02*
X145435000Y-103665000D01*
X146960000Y-103625000D02*
X145435000Y-103625000D01*
X146964000Y-103585000D02*
X145435000Y-103585000D01*
X146968000Y-103545000D02*
X145435000Y-103545000D01*
X146971000Y-103505000D02*
X145435000Y-103505000D01*
X146973000Y-103465000D02*
X145435000Y-103465000D01*
X146974000Y-103425000D02*
X145435000Y-103425000D01*
X146975000Y-103345000D02*
X145435000Y-103345000D01*
X146975000Y-103385000D02*
X145435000Y-103385000D01*
X147015000Y-103345000D02*
G75*
G02*
X141775000Y-103345000I-2620000J0D01*
G01*
X141775000Y-103345000D02*
G75*
G02*
X147015000Y-103345000I2620000J0D01*
G01*
%TO.C,LM35DZ*%
X124245000Y-66225000D02*
X124245000Y-69825000D01*
X124256522Y-66186522D02*
G75*
G02*
X128695001Y-68025000I1838478J-1838478D01*
G01*
X128695000Y-68025000D02*
G75*
G02*
X124256522Y-69863478I-2600000J0D01*
G01*
%TO.C,C10*%
X139530000Y-103108860D02*
X139530000Y-103631364D01*
X141000000Y-103108860D02*
X141000000Y-103631364D01*
%TO.C,C2*%
X139120000Y-98750000D02*
X137580000Y-98750000D01*
X139120000Y-98790000D02*
X137580000Y-98790000D01*
X139120000Y-98830000D02*
X137581000Y-98830000D01*
X139120000Y-98870000D02*
X137582000Y-98870000D01*
X139120000Y-98910000D02*
X137584000Y-98910000D01*
X139120000Y-98950000D02*
X137587000Y-98950000D01*
X139120000Y-98990000D02*
X137591000Y-98990000D01*
X139120000Y-99030000D02*
X137595000Y-99030000D01*
X139120000Y-99070000D02*
X137599000Y-99070000D01*
X139120000Y-99110000D02*
X137604000Y-99110000D01*
X139120000Y-99150000D02*
X137610000Y-99150000D01*
X139120000Y-99190000D02*
X137617000Y-99190000D01*
X139120000Y-99230000D02*
X137624000Y-99230000D01*
X139120000Y-99270000D02*
X137632000Y-99270000D01*
X139120000Y-99310000D02*
X137640000Y-99310000D01*
X139120000Y-99350000D02*
X137649000Y-99350000D01*
X139120000Y-99390000D02*
X137659000Y-99390000D01*
X139120000Y-99430000D02*
X137669000Y-99430000D01*
X139120000Y-99471000D02*
X137680000Y-99471000D01*
X139120000Y-99511000D02*
X137692000Y-99511000D01*
X139120000Y-99551000D02*
X137705000Y-99551000D01*
X139120000Y-99591000D02*
X137718000Y-99591000D01*
X139120000Y-99631000D02*
X137732000Y-99631000D01*
X139120000Y-99671000D02*
X137746000Y-99671000D01*
X139120000Y-99711000D02*
X137762000Y-99711000D01*
X139120000Y-99751000D02*
X137778000Y-99751000D01*
X139120000Y-99791000D02*
X137795000Y-99791000D01*
X139120000Y-99831000D02*
X137812000Y-99831000D01*
X139120000Y-99871000D02*
X137831000Y-99871000D01*
X139120000Y-99911000D02*
X137850000Y-99911000D01*
X139120000Y-99951000D02*
X137870000Y-99951000D01*
X139120000Y-99991000D02*
X137892000Y-99991000D01*
X139120000Y-100031000D02*
X137913000Y-100031000D01*
X139120000Y-100071000D02*
X137936000Y-100071000D01*
X139120000Y-100111000D02*
X137960000Y-100111000D01*
X139120000Y-100151000D02*
X137985000Y-100151000D01*
X139120000Y-100191000D02*
X138011000Y-100191000D01*
X139120000Y-100231000D02*
X138038000Y-100231000D01*
X139120000Y-100271000D02*
X138065000Y-100271000D01*
X139120000Y-100311000D02*
X138095000Y-100311000D01*
X139120000Y-100351000D02*
X138125000Y-100351000D01*
X139120000Y-100391000D02*
X138156000Y-100391000D01*
X139120000Y-100431000D02*
X138189000Y-100431000D01*
X139120000Y-100471000D02*
X138223000Y-100471000D01*
X139120000Y-100511000D02*
X138259000Y-100511000D01*
X139120000Y-100551000D02*
X138296000Y-100551000D01*
X139120000Y-100591000D02*
X138334000Y-100591000D01*
X139120000Y-100631000D02*
X138375000Y-100631000D01*
X139120000Y-100671000D02*
X138417000Y-100671000D01*
X139120000Y-100711000D02*
X138461000Y-100711000D01*
X139120000Y-100751000D02*
X138507000Y-100751000D01*
X140444000Y-101351000D02*
X139876000Y-101351000D01*
X140678000Y-101311000D02*
X139642000Y-101311000D01*
X140837000Y-101271000D02*
X139483000Y-101271000D01*
X140965000Y-101231000D02*
X139355000Y-101231000D01*
X141075000Y-101191000D02*
X139245000Y-101191000D01*
X141171000Y-101151000D02*
X139149000Y-101151000D01*
X141258000Y-101111000D02*
X139062000Y-101111000D01*
X141338000Y-101071000D02*
X138982000Y-101071000D01*
X141411000Y-101031000D02*
X138909000Y-101031000D01*
X141479000Y-100991000D02*
X138841000Y-100991000D01*
X141543000Y-100951000D02*
X138777000Y-100951000D01*
X141603000Y-100911000D02*
X138717000Y-100911000D01*
X141635000Y-95945225D02*
X141635000Y-96445225D01*
X141660000Y-100871000D02*
X138660000Y-100871000D01*
X141714000Y-100831000D02*
X138606000Y-100831000D01*
X141765000Y-100791000D02*
X138555000Y-100791000D01*
X141813000Y-100751000D02*
X141200000Y-100751000D01*
X141859000Y-100711000D02*
X141200000Y-100711000D01*
X141885000Y-96195225D02*
X141385000Y-96195225D01*
X141903000Y-100671000D02*
X141200000Y-100671000D01*
X141945000Y-100631000D02*
X141200000Y-100631000D01*
X141986000Y-100591000D02*
X141200000Y-100591000D01*
X142024000Y-100551000D02*
X141200000Y-100551000D01*
X142061000Y-100511000D02*
X141200000Y-100511000D01*
X142097000Y-100471000D02*
X141200000Y-100471000D01*
X142131000Y-100431000D02*
X141200000Y-100431000D01*
X142164000Y-100391000D02*
X141200000Y-100391000D01*
X142195000Y-100351000D02*
X141200000Y-100351000D01*
X142225000Y-100311000D02*
X141200000Y-100311000D01*
X142255000Y-100271000D02*
X141200000Y-100271000D01*
X142282000Y-100231000D02*
X141200000Y-100231000D01*
X142309000Y-100191000D02*
X141200000Y-100191000D01*
X142335000Y-100151000D02*
X141200000Y-100151000D01*
X142360000Y-100111000D02*
X141200000Y-100111000D01*
X142384000Y-100071000D02*
X141200000Y-100071000D01*
X142407000Y-100031000D02*
X141200000Y-100031000D01*
X142428000Y-99991000D02*
X141200000Y-99991000D01*
X142450000Y-99951000D02*
X141200000Y-99951000D01*
X142470000Y-99911000D02*
X141200000Y-99911000D01*
X142489000Y-99871000D02*
X141200000Y-99871000D01*
X142508000Y-99831000D02*
X141200000Y-99831000D01*
X142525000Y-99791000D02*
X141200000Y-99791000D01*
X142542000Y-99751000D02*
X141200000Y-99751000D01*
X142558000Y-99711000D02*
X141200000Y-99711000D01*
X142574000Y-99671000D02*
X141200000Y-99671000D01*
X142588000Y-99631000D02*
X141200000Y-99631000D01*
X142602000Y-99591000D02*
X141200000Y-99591000D01*
X142615000Y-99551000D02*
X141200000Y-99551000D01*
X142628000Y-99511000D02*
X141200000Y-99511000D01*
X142640000Y-99471000D02*
X141200000Y-99471000D01*
X142651000Y-99430000D02*
X141200000Y-99430000D01*
X142661000Y-99390000D02*
X141200000Y-99390000D01*
X142671000Y-99350000D02*
X141200000Y-99350000D01*
X142680000Y-99310000D02*
X141200000Y-99310000D01*
X142688000Y-99270000D02*
X141200000Y-99270000D01*
X142696000Y-99230000D02*
X141200000Y-99230000D01*
X142703000Y-99190000D02*
X141200000Y-99190000D01*
X142710000Y-99150000D02*
X141200000Y-99150000D01*
X142716000Y-99110000D02*
X141200000Y-99110000D01*
X142721000Y-99070000D02*
X141200000Y-99070000D01*
X142725000Y-99030000D02*
X141200000Y-99030000D01*
X142729000Y-98990000D02*
X141200000Y-98990000D01*
X142733000Y-98950000D02*
X141200000Y-98950000D01*
X142736000Y-98910000D02*
X141200000Y-98910000D01*
X142738000Y-98870000D02*
X141200000Y-98870000D01*
X142739000Y-98830000D02*
X141200000Y-98830000D01*
X142740000Y-98750000D02*
X141200000Y-98750000D01*
X142740000Y-98790000D02*
X141200000Y-98790000D01*
X142780000Y-98750000D02*
G75*
G02*
X137540000Y-98750000I-2620000J0D01*
G01*
X137540000Y-98750000D02*
G75*
G02*
X142780000Y-98750000I2620000J0D01*
G01*
%TO.C,R6*%
X139415000Y-94310000D02*
X139415000Y-95780000D01*
X139415000Y-95780000D02*
X141875000Y-95780000D01*
X141875000Y-94310000D02*
X139415000Y-94310000D01*
%TO.C,C6*%
X143336252Y-85250000D02*
X142813748Y-85250000D01*
X143336252Y-86720000D02*
X142813748Y-86720000D01*
%TO.C,C7*%
X157493748Y-85430000D02*
X158016252Y-85430000D01*
X157493748Y-86900000D02*
X158016252Y-86900000D01*
%TO.C,R7*%
X143727500Y-94330000D02*
X143727500Y-95800000D01*
X143727500Y-95800000D02*
X146187500Y-95800000D01*
X146187500Y-94330000D02*
X143727500Y-94330000D01*
%TO.C,SW3*%
X154515000Y-91985000D02*
X154515000Y-89785000D01*
X154985000Y-93955000D02*
X160185000Y-93955000D01*
X155585000Y-87715000D02*
X159985000Y-87715000D01*
X160755000Y-89785000D02*
X160755000Y-91985000D01*
X159049214Y-90835000D02*
G75*
G02*
X156220786Y-90835000I-1414214J0D01*
G01*
X156220786Y-90835000D02*
G75*
G02*
X159049214Y-90835000I1414214J0D01*
G01*
%TO.C,R3*%
X124862500Y-104370000D02*
X127322500Y-104370000D01*
X127322500Y-102900000D02*
X124862500Y-102900000D01*
X127322500Y-104370000D02*
X127322500Y-102900000D01*
%TO.C,C5*%
X128666252Y-85050000D02*
X128143748Y-85050000D01*
X128666252Y-86520000D02*
X128143748Y-86520000D01*
%TO.C,D2*%
X127757500Y-102910000D02*
X127757500Y-104380000D01*
X127757500Y-104380000D02*
X130217500Y-104380000D01*
X130217500Y-102910000D02*
X127757500Y-102910000D01*
D15*
%TO.C,OLED*%
X129795000Y-57965000D02*
X155795000Y-57965000D01*
X129795000Y-83965000D02*
X129795000Y-57965000D01*
X135795000Y-81965000D02*
X135795000Y-83965000D01*
X135795000Y-83965000D02*
X129795000Y-83965000D01*
X149795000Y-81965000D02*
X135795000Y-81965000D01*
X149795000Y-83965000D02*
X149795000Y-81965000D01*
X155795000Y-57965000D02*
X155795000Y-83965000D01*
X155795000Y-83965000D02*
X149795000Y-83965000D01*
D17*
X138895000Y-57465000D02*
G75*
G02*
X138695000Y-57465000I-100000J0D01*
G01*
X138695000Y-57465000D02*
G75*
G02*
X138895000Y-57465000I100000J0D01*
G01*
%TD*%
M02*
