M48
; DRILL file {KiCad 8.0.5} date 2026-02-13T21:56:48+0700
; FORMAT={-:-/ absolute / metric / decimal}
; #@! TF.CreationDate,2026-02-13T21:56:48+07:00
; #@! TF.GenerationSoftware,Kicad,Pcbnew,8.0.5
; #@! TF.FileFunction,MixedPlating,1,2
FMAT,2
METRIC
; #@! TA.AperFunction,Plated,PTH,ViaDrill
T1C0.300
; #@! TA.AperFunction,Plated,PTH,ComponentDrill
T2C0.750
; #@! TA.AperFunction,Plated,PTH,ComponentDrill
T3C0.800
; #@! TA.AperFunction,Plated,PTH,ComponentDrill
T4C0.813
; #@! TA.AperFunction,Plated,PTH,ComponentDrill
T5C0.900
; #@! TA.AperFunction,Plated,PTH,ComponentDrill
T6C1.000
; #@! TA.AperFunction,Plated,PTH,ComponentDrill
T7C2.000
; #@! TA.AperFunction,NonPlated,NPTH,ComponentDrill
T8C3.200
%
G90
G05
T1
X124.855Y-101.545
X125.025Y-95.695
X125.025Y-96.965
X127.455Y-85.785
X129.975Y-95.695
X130.25Y-101.545
X135.69Y-67.14
X140.2Y-95.045
X140.265Y-102.42
X140.265Y-104.32
X144.685Y-97.535
X144.685Y-99.435
X146.262Y-95.065
X156.445Y-96.685
X158.345Y-96.685
T2
X126.095Y-66.755
X126.095Y-69.295
X127.365Y-68.025
T3
X125.595Y-74.615
X125.595Y-77.725
X137.135Y-75.615
X137.155Y-78.725
X140.16Y-97.75
X140.16Y-99.75
X144.395Y-102.345
X144.395Y-104.345
X147.295Y-75.615
X147.315Y-78.725
X156.315Y-100.635
X158.315Y-100.635
X159.295Y-67.23
X159.295Y-69.23
X159.465Y-73.405
X159.465Y-75.405
T4
X138.935Y-63.895
X138.935Y-71.515
X141.475Y-63.895
X141.475Y-71.515
X144.015Y-63.895
X144.015Y-71.515
X146.555Y-63.895
X146.555Y-71.515
T5
X140.555Y-106.955
X140.555Y-110.255
X143.055Y-106.955
X143.055Y-110.255
X145.555Y-106.955
X145.555Y-110.255
T6
X124.975Y-88.255
X124.975Y-92.755
X131.475Y-88.255
X131.475Y-92.755
X135.635Y-88.675
X135.635Y-91.215
X135.635Y-93.755
X135.635Y-96.295
X135.635Y-98.835
X135.635Y-101.375
X135.635Y-103.915
X135.635Y-106.455
X135.635Y-108.995
X138.985Y-59.465
X139.675Y-88.435
X139.675Y-92.935
X141.525Y-59.465
X144.065Y-59.465
X146.175Y-88.435
X146.175Y-92.935
X146.605Y-59.465
X150.875Y-88.675
X150.875Y-91.215
X150.875Y-93.755
X150.875Y-96.295
X150.875Y-98.835
X150.875Y-101.375
X150.875Y-103.915
X150.875Y-106.455
X150.875Y-108.995
X154.385Y-88.585
X154.385Y-93.085
X160.885Y-88.585
X160.885Y-93.085
T7
X131.795Y-59.965
X131.795Y-81.965
X153.795Y-59.965
X153.795Y-81.965
T8
X125.885Y-60.695
X126.265Y-108.385
X159.545Y-108.345
X159.625Y-60.585
M30
