%TF.GenerationSoftware,KiCad,Pcbnew,8.0.5*%
%TF.CreationDate,2026-02-13T21:56:33+07:00*%
%TF.ProjectId,Temperature_sensor,54656d70-6572-4617-9475-72655f73656e,rev?*%
%TF.SameCoordinates,Original*%
%TF.FileFunction,Copper,L2,Bot*%
%TF.FilePolarity,Positive*%
%FSLAX46Y46*%
G04 Gerber Fmt 4.6, Leading zero omitted, Abs format (unit mm)*
G04 Created by KiCad (PCBNEW 8.0.5) date 2026-02-13 21:56:33*
%MOMM*%
%LPD*%
G01*
G04 APERTURE LIST*
%TA.AperFunction,ComponentPad*%
%ADD10R,1.700000X1.700000*%
%TD*%
%TA.AperFunction,ComponentPad*%
%ADD11C,1.700000*%
%TD*%
%TA.AperFunction,ComponentPad*%
%ADD12R,1.600000X1.600000*%
%TD*%
%TA.AperFunction,ComponentPad*%
%ADD13C,1.600000*%
%TD*%
%TA.AperFunction,ComponentPad*%
%ADD14O,1.320800X2.641600*%
%TD*%
%TA.AperFunction,ComponentPad*%
%ADD15R,1.350000X1.350000*%
%TD*%
%TA.AperFunction,ComponentPad*%
%ADD16C,1.408000*%
%TD*%
%TA.AperFunction,ComponentPad*%
%ADD17R,1.300000X1.300000*%
%TD*%
%TA.AperFunction,ComponentPad*%
%ADD18C,1.300000*%
%TD*%
%TA.AperFunction,ComponentPad*%
%ADD19C,1.508000*%
%TD*%
%TA.AperFunction,ComponentPad*%
%ADD20R,1.508000X1.508000*%
%TD*%
%TA.AperFunction,ComponentPad*%
%ADD21O,1.600000X1.600000*%
%TD*%
%TA.AperFunction,ComponentPad*%
%ADD22C,3.000000*%
%TD*%
%TA.AperFunction,ViaPad*%
%ADD23C,0.600000*%
%TD*%
%TA.AperFunction,Conductor*%
%ADD24C,0.500000*%
%TD*%
G04 APERTURE END LIST*
D10*
%TO.P,SW2,1,1*%
%TO.N,GP7*%
X139675000Y-88435000D03*
D11*
X146175000Y-88435000D03*
%TO.P,SW2,2,2*%
%TO.N,0*%
X139675000Y-92935000D03*
X146175000Y-92935000D03*
%TD*%
D12*
%TO.P,C4,1*%
%TO.N,0*%
X159295000Y-69230113D03*
D13*
%TO.P,C4,2*%
%TO.N,Net-(IC1-VOUT)*%
X159295000Y-67230113D03*
%TD*%
D14*
%TO.P,TC7660,1*%
%TO.N,N/C*%
X138935000Y-71515000D03*
%TO.P,TC7660,2,CAP+*%
%TO.N,Net-(IC1-CAP+)*%
X141475000Y-71515000D03*
%TO.P,TC7660,3,GND*%
%TO.N,0*%
X144015000Y-71515000D03*
%TO.P,TC7660,4,CAP-*%
%TO.N,Net-(IC1-CAP-)*%
X146555000Y-71515000D03*
%TO.P,TC7660,5,VOUT*%
%TO.N,Net-(IC1-VOUT)*%
X146555000Y-63895000D03*
%TO.P,TC7660,6,LV*%
%TO.N,unconnected-(IC1-LV-Pad6)*%
X144015000Y-63895000D03*
%TO.P,TC7660,7,OSC*%
%TO.N,unconnected-(IC1-OSC-Pad7)*%
X141475000Y-63895000D03*
%TO.P,TC7660,8,V+*%
%TO.N,3.3V*%
X138935000Y-63895000D03*
%TD*%
D12*
%TO.P,C3,1*%
%TO.N,Net-(IC1-CAP+)*%
X159465000Y-75405000D03*
D13*
%TO.P,C3,2*%
%TO.N,Net-(IC1-CAP-)*%
X159465000Y-73405000D03*
%TD*%
D15*
%TO.P,-,1,Pin_1*%
%TO.N,0*%
X125595000Y-77725000D03*
%TD*%
D16*
%TO.P,OFF                   ON,1*%
%TO.N,BAT*%
X145555000Y-110255000D03*
%TO.P,OFF                   ON,2*%
%TO.N,Net-(S1-Pad2)*%
X143055000Y-110255000D03*
%TO.P,OFF                   ON,3*%
%TO.N,5V*%
X140555000Y-110255000D03*
%TO.P,OFF                   ON,4*%
%TO.N,0*%
X145555000Y-106955000D03*
%TO.P,OFF                   ON,5*%
%TO.N,GP1*%
X143055000Y-106955000D03*
%TO.P,OFF                   ON,6*%
%TO.N,3.3V*%
X140555000Y-106955000D03*
%TD*%
D12*
%TO.P,C9,1*%
%TO.N,5V*%
X156315000Y-100635000D03*
D13*
%TO.P,C9,2*%
%TO.N,0*%
X158315000Y-100635000D03*
%TD*%
D10*
%TO.P,SW1,1,1*%
%TO.N,GP3*%
X124975000Y-88255000D03*
D11*
X131475000Y-88255000D03*
%TO.P,SW1,2,2*%
%TO.N,0*%
X124975000Y-92755000D03*
X131475000Y-92755000D03*
%TD*%
D15*
%TO.P,+,1,Pin_1*%
%TO.N,BAT*%
X125595000Y-74615000D03*
%TD*%
D12*
%TO.P,C11,1*%
%TO.N,3.3V*%
X144395000Y-102345000D03*
D13*
%TO.P,C11,2*%
%TO.N,0*%
X144395000Y-104345000D03*
%TD*%
D17*
%TO.P,LM35DZ,1,+V_{S}*%
%TO.N,3.3V*%
X126095000Y-66755000D03*
D18*
%TO.P,LM35DZ,2,V_{OUT}*%
%TO.N,ADC*%
X127365000Y-68025000D03*
%TO.P,LM35DZ,3,GND*%
%TO.N,0*%
X126095000Y-69295000D03*
%TD*%
D12*
%TO.P,C2,1*%
%TO.N,BAT*%
X140160000Y-97750000D03*
D13*
%TO.P,C2,2*%
%TO.N,0*%
X140160000Y-99750000D03*
%TD*%
D10*
%TO.P,SW3,1,1*%
%TO.N,GP8*%
X154385000Y-88585000D03*
D11*
X160885000Y-88585000D03*
%TO.P,SW3,2,2*%
%TO.N,0*%
X154385000Y-93085000D03*
X160885000Y-93085000D03*
%TD*%
D19*
%TO.P,esp32s3zero,1,GP1*%
%TO.N,GP1*%
X135635000Y-101375000D03*
%TO.P,esp32s3zero,2,GP2*%
%TO.N,Chek_BAT*%
X135635000Y-98835000D03*
%TO.P,esp32s3zero,3,GP3*%
%TO.N,GP3*%
X135635000Y-96295000D03*
%TO.P,esp32s3zero,3V3,3V3(OUT)*%
%TO.N,3.3V*%
X135635000Y-103915000D03*
%TO.P,esp32s3zero,4,GP4*%
%TO.N,SDA*%
X135635000Y-93755000D03*
%TO.P,esp32s3zero,5,GP5*%
%TO.N,SCL*%
X135635000Y-91215000D03*
D20*
%TO.P,esp32s3zero,5V,5V*%
%TO.N,Net-(S1-Pad2)*%
X135635000Y-108995000D03*
D19*
%TO.P,esp32s3zero,6,GP6*%
%TO.N,ADC*%
X135635000Y-88675000D03*
%TO.P,esp32s3zero,7,GP7*%
%TO.N,GP7*%
X150875000Y-88675000D03*
%TO.P,esp32s3zero,8,GP8*%
%TO.N,GP8*%
X150875000Y-91215000D03*
%TO.P,esp32s3zero,9,GP9*%
%TO.N,unconnected-(U2-GP9-Pad9)*%
X150875000Y-93755000D03*
%TO.P,esp32s3zero,10,GP10*%
%TO.N,unconnected-(U2-GP10-Pad10)*%
X150875000Y-96295000D03*
%TO.P,esp32s3zero,11,GP11*%
%TO.N,unconnected-(U2-GP11-Pad11)*%
X150875000Y-98835000D03*
%TO.P,esp32s3zero,12,GP12*%
%TO.N,unconnected-(U2-GP12-Pad12)*%
X150875000Y-101375000D03*
%TO.P,esp32s3zero,13,GP13*%
%TO.N,unconnected-(U2-GP13-Pad13)*%
X150875000Y-103915000D03*
%TO.P,esp32s3zero,GND,GND*%
%TO.N,0*%
X135635000Y-106455000D03*
%TO.P,esp32s3zero,RX,RX*%
%TO.N,unconnected-(U2-PadRX)*%
X150875000Y-106455000D03*
%TO.P,esp32s3zero,TX,TX*%
%TO.N,unconnected-(U2-PadTX)*%
X150875000Y-108995000D03*
%TD*%
D13*
%TO.P,R4,1*%
%TO.N,ADC*%
X137155000Y-78725000D03*
D21*
%TO.P,R4,2*%
%TO.N,Net-(R4-Pad2)*%
X147315000Y-78725000D03*
%TD*%
D13*
%TO.P,R5,1*%
%TO.N,Net-(R4-Pad2)*%
X147295000Y-75615000D03*
D21*
%TO.P,R5,2*%
%TO.N,Net-(IC1-VOUT)*%
X137135000Y-75615000D03*
%TD*%
D20*
%TO.P,OLED,1,GND*%
%TO.N,0*%
X138985000Y-59465000D03*
D19*
%TO.P,OLED,2,VCC_IN*%
%TO.N,3.3V*%
X141525000Y-59465000D03*
%TO.P,OLED,3,SCL*%
%TO.N,SCL*%
X144065000Y-59465000D03*
%TO.P,OLED,4,SDA*%
%TO.N,SDA*%
X146605000Y-59465000D03*
D22*
%TO.P,OLED,S1*%
%TO.N,N/C*%
X131795000Y-59965000D03*
%TO.P,OLED,S2*%
X153795000Y-59965000D03*
%TO.P,OLED,S3*%
X153795000Y-81965000D03*
%TO.P,OLED,S4*%
X131795000Y-81965000D03*
%TD*%
D23*
%TO.N,0*%
X144685000Y-99435000D03*
X158345000Y-96685000D03*
X127455000Y-85785000D03*
X146262500Y-95065000D03*
X140265000Y-104320112D03*
%TO.N,BAT*%
X140200000Y-95045000D03*
X144685000Y-97535000D03*
X125025000Y-95695000D03*
%TO.N,5V*%
X130250000Y-101545000D03*
X156445000Y-96685000D03*
X129975000Y-95695000D03*
%TO.N,3.3V*%
X140265000Y-102420112D03*
X135690000Y-67140000D03*
%TO.N,Net-(U1-~{STDBY})*%
X124855000Y-101545000D03*
X125025000Y-96965000D03*
%TD*%
D24*
%TO.N,0*%
X144395000Y-105795000D02*
X145555000Y-106955000D01*
X125595000Y-83125000D02*
X127455000Y-84985000D01*
X139675000Y-92935000D02*
X146175000Y-92935000D01*
X146262500Y-100812500D02*
X146262500Y-95065000D01*
X124975000Y-92755000D02*
X131475000Y-92755000D01*
X125595000Y-77705000D02*
X127420000Y-75880000D01*
X146299887Y-69230113D02*
X144015000Y-71515000D01*
X145526370Y-104345000D02*
X146335000Y-103536370D01*
X140160000Y-99750000D02*
X144370000Y-99750000D01*
X146262500Y-93022500D02*
X146175000Y-92935000D01*
X125595000Y-77725000D02*
X125595000Y-77705000D01*
X146335000Y-103536370D02*
X146335000Y-101085000D01*
X158315000Y-100635000D02*
X158315000Y-96715000D01*
X146335000Y-101085000D02*
X146335000Y-100885000D01*
X159295000Y-69230113D02*
X146299887Y-69230113D01*
X144395000Y-104345000D02*
X145526370Y-104345000D01*
X127420000Y-75880000D02*
X127420000Y-70620000D01*
X146262500Y-95065000D02*
X146262500Y-93022500D01*
X146335000Y-100885000D02*
X146262500Y-100812500D01*
X144370000Y-99750000D02*
X144685000Y-99435000D01*
X146335000Y-101085000D02*
X144685000Y-99435000D01*
X125595000Y-83125000D02*
X125595000Y-77725000D01*
X140265000Y-104320112D02*
X144370112Y-104320112D01*
X144395000Y-104345000D02*
X144395000Y-105795000D01*
X154385000Y-93085000D02*
X160885000Y-93085000D01*
X127455000Y-84985000D02*
X127455000Y-85785000D01*
X144370112Y-104320112D02*
X144395000Y-104345000D01*
X127420000Y-70620000D02*
X126095000Y-69295000D01*
X158315000Y-96715000D02*
X158345000Y-96685000D01*
%TO.N,BAT*%
X140575000Y-97535000D02*
X140410000Y-97700000D01*
X140200000Y-95045000D02*
X140200000Y-97710000D01*
X140200000Y-97710000D02*
X140160000Y-97750000D01*
X140200000Y-97490000D02*
X140410000Y-97700000D01*
X140200000Y-97664888D02*
X140180000Y-97684888D01*
X140200000Y-97250000D02*
X140555000Y-97605000D01*
X140160000Y-97750000D02*
X144470000Y-97750000D01*
X123330000Y-94000000D02*
X123330000Y-76880000D01*
X125025000Y-95695000D02*
X123330000Y-94000000D01*
X123330000Y-76880000D02*
X125595000Y-74615000D01*
X144470000Y-97750000D02*
X144685000Y-97535000D01*
%TO.N,Net-(IC1-CAP+)*%
X159465000Y-75405000D02*
X149215000Y-75405000D01*
X147515000Y-73705000D02*
X143665000Y-73705000D01*
X149215000Y-75405000D02*
X147515000Y-73705000D01*
X143665000Y-73705000D02*
X141475000Y-71515000D01*
%TO.N,Net-(IC1-CAP-)*%
X159465000Y-73405000D02*
X148445000Y-73405000D01*
X148445000Y-73405000D02*
X146555000Y-71515000D01*
%TO.N,Net-(IC1-VOUT)*%
X155959887Y-63895000D02*
X159295000Y-67230113D01*
X140210000Y-70240000D02*
X146555000Y-63895000D01*
X140210000Y-72540000D02*
X140210000Y-70240000D01*
X137135000Y-75615000D02*
X140210000Y-72540000D01*
X146555000Y-63895000D02*
X155959887Y-63895000D01*
%TO.N,GP3*%
X133295000Y-90075000D02*
X131475000Y-88255000D01*
X124975000Y-88255000D02*
X131475000Y-88255000D01*
X135635000Y-96295000D02*
X133295000Y-93955000D01*
X133295000Y-93955000D02*
X133295000Y-90075000D01*
%TO.N,GP7*%
X139675000Y-88435000D02*
X146175000Y-88435000D01*
%TO.N,GP8*%
X154385000Y-88585000D02*
X160885000Y-88585000D01*
%TO.N,5V*%
X133870000Y-105165000D02*
X133870000Y-109638000D01*
X151770000Y-105180000D02*
X156315000Y-100635000D01*
X130250000Y-101545000D02*
X133870000Y-105165000D01*
X130250000Y-95970000D02*
X129975000Y-95695000D01*
X149830000Y-105180000D02*
X151770000Y-105180000D01*
X146340000Y-108670000D02*
X149830000Y-105180000D01*
X140555000Y-110255000D02*
X142140000Y-108670000D01*
X156315000Y-100635000D02*
X156315000Y-96815000D01*
X142140000Y-108670000D02*
X146340000Y-108670000D01*
X140110000Y-110700000D02*
X140555000Y-110255000D01*
X130250000Y-101545000D02*
X130250000Y-95970000D01*
X133870000Y-109638000D02*
X134932000Y-110700000D01*
X134932000Y-110700000D02*
X140110000Y-110700000D01*
X156315000Y-96815000D02*
X156445000Y-96685000D01*
%TO.N,3.3V*%
X144319888Y-102420112D02*
X144395000Y-102345000D01*
X140265000Y-102420112D02*
X138255000Y-100410112D01*
X135655000Y-67175000D02*
X135690000Y-67140000D01*
X135690000Y-67140000D02*
X138935000Y-63895000D01*
X135635000Y-103915000D02*
X138675000Y-106955000D01*
X135655000Y-80485000D02*
X135655000Y-67175000D01*
X138255000Y-83085000D02*
X135655000Y-80485000D01*
X140265000Y-102420112D02*
X144319888Y-102420112D01*
X138675000Y-106955000D02*
X140555000Y-106955000D01*
X138255000Y-100410112D02*
X138255000Y-83085000D01*
%TO.N,Net-(U1-~{STDBY})*%
X124855000Y-97135000D02*
X125025000Y-96965000D01*
X124855000Y-101545000D02*
X124855000Y-97135000D01*
%TO.N,Net-(R4-Pad2)*%
X147295000Y-75615000D02*
X147295000Y-78675000D01*
X147295000Y-78675000D02*
X147255000Y-78715000D01*
%TO.N,Net-(S1-Pad2)*%
X135635000Y-108995000D02*
X135870000Y-108760000D01*
%TO.N,GP1*%
X141510000Y-105410000D02*
X143055000Y-106955000D01*
X135635000Y-101375000D02*
X135635000Y-101585000D01*
X135635000Y-101585000D02*
X139460000Y-105410000D01*
X139460000Y-105410000D02*
X141510000Y-105410000D01*
%TO.N,SDA*%
X134735000Y-81185000D02*
X134735000Y-65864257D01*
X137085000Y-92305000D02*
X137085000Y-83535000D01*
X138864257Y-61735000D02*
X146005000Y-61735000D01*
X146005000Y-61735000D02*
X146605000Y-61135000D01*
X134735000Y-65864257D02*
X138864257Y-61735000D01*
X146605000Y-61135000D02*
X146605000Y-59465000D01*
X137085000Y-83535000D02*
X134735000Y-81185000D01*
X135635000Y-93755000D02*
X137085000Y-92305000D01*
%TO.N,SCL*%
X137815000Y-60915000D02*
X143365000Y-60915000D01*
X133765000Y-89345000D02*
X133765000Y-64965000D01*
X133765000Y-64965000D02*
X137815000Y-60915000D01*
X143365000Y-60915000D02*
X144065000Y-60215000D01*
X144065000Y-60215000D02*
X144065000Y-59465000D01*
X135635000Y-91215000D02*
X133765000Y-89345000D01*
%TD*%
%TA.AperFunction,Conductor*%
%TO.N,0*%
G36*
X162797539Y-57365185D02*
G01*
X162843294Y-57417989D01*
X162854500Y-57469500D01*
X162854500Y-111450500D01*
X162834815Y-111517539D01*
X162782011Y-111563294D01*
X162730500Y-111574500D01*
X122849500Y-111574500D01*
X122782461Y-111554815D01*
X122736706Y-111502011D01*
X122725500Y-111450500D01*
X122725500Y-108263711D01*
X124414500Y-108263711D01*
X124414500Y-108506288D01*
X124446161Y-108746785D01*
X124508947Y-108981104D01*
X124601773Y-109205205D01*
X124601776Y-109205212D01*
X124723064Y-109415289D01*
X124723066Y-109415292D01*
X124723067Y-109415293D01*
X124870733Y-109607736D01*
X124870739Y-109607743D01*
X125042256Y-109779260D01*
X125042263Y-109779266D01*
X125130191Y-109846735D01*
X125234711Y-109926936D01*
X125444788Y-110048224D01*
X125668900Y-110141054D01*
X125903211Y-110203838D01*
X126083586Y-110227584D01*
X126143711Y-110235500D01*
X126143712Y-110235500D01*
X126386289Y-110235500D01*
X126434388Y-110229167D01*
X126626789Y-110203838D01*
X126861100Y-110141054D01*
X127085212Y-110048224D01*
X127295289Y-109926936D01*
X127487738Y-109779265D01*
X127659265Y-109607738D01*
X127806936Y-109415289D01*
X127928224Y-109205212D01*
X128021054Y-108981100D01*
X128083838Y-108746789D01*
X128115500Y-108506288D01*
X128115500Y-108263712D01*
X128083838Y-108023211D01*
X128021054Y-107788900D01*
X127928224Y-107564788D01*
X127806936Y-107354711D01*
X127659265Y-107162262D01*
X127659260Y-107162256D01*
X127487743Y-106990739D01*
X127487736Y-106990733D01*
X127295293Y-106843067D01*
X127295292Y-106843066D01*
X127295289Y-106843064D01*
X127085212Y-106721776D01*
X127085205Y-106721773D01*
X126861104Y-106628947D01*
X126626785Y-106566161D01*
X126386289Y-106534500D01*
X126386288Y-106534500D01*
X126143712Y-106534500D01*
X126143711Y-106534500D01*
X125903214Y-106566161D01*
X125668895Y-106628947D01*
X125444794Y-106721773D01*
X125444785Y-106721777D01*
X125234706Y-106843067D01*
X125042263Y-106990733D01*
X125042256Y-106990739D01*
X124870739Y-107162256D01*
X124870733Y-107162263D01*
X124723067Y-107354706D01*
X124723064Y-107354710D01*
X124723064Y-107354711D01*
X124722608Y-107355501D01*
X124601777Y-107564785D01*
X124601773Y-107564794D01*
X124508947Y-107788895D01*
X124446161Y-108023214D01*
X124414500Y-108263711D01*
X122725500Y-108263711D01*
X122725500Y-94402676D01*
X122745185Y-94335637D01*
X122797989Y-94289882D01*
X122867147Y-94279938D01*
X122930703Y-94308963D01*
X122937181Y-94314995D01*
X124490867Y-95868681D01*
X124517747Y-95908909D01*
X124544139Y-95972625D01*
X124632379Y-96087621D01*
X124747375Y-96175861D01*
X124779385Y-96189120D01*
X124842925Y-96215439D01*
X124897329Y-96259280D01*
X124919394Y-96325574D01*
X124902115Y-96393273D01*
X124850978Y-96440884D01*
X124842925Y-96444561D01*
X124747378Y-96484137D01*
X124747375Y-96484138D01*
X124747375Y-96484139D01*
X124632379Y-96572379D01*
X124545962Y-96685000D01*
X124544137Y-96687378D01*
X124517747Y-96751089D01*
X124490868Y-96791316D01*
X124454500Y-96827684D01*
X124388609Y-96941810D01*
X124388609Y-96941811D01*
X124388608Y-96941813D01*
X124388608Y-96941814D01*
X124358511Y-97054137D01*
X124354500Y-97069108D01*
X124354500Y-101290124D01*
X124345062Y-101337572D01*
X124338310Y-101353876D01*
X124318669Y-101401293D01*
X124304059Y-101512267D01*
X124299750Y-101545000D01*
X124318247Y-101685499D01*
X124318670Y-101688708D01*
X124318671Y-101688712D01*
X124374137Y-101822622D01*
X124374138Y-101822624D01*
X124374139Y-101822625D01*
X124462379Y-101937621D01*
X124577375Y-102025861D01*
X124711291Y-102081330D01*
X124838280Y-102098048D01*
X124854999Y-102100250D01*
X124855000Y-102100250D01*
X124855001Y-102100250D01*
X124869977Y-102098278D01*
X124998709Y-102081330D01*
X125132625Y-102025861D01*
X125247621Y-101937621D01*
X125335861Y-101822625D01*
X125391330Y-101688709D01*
X125410250Y-101545000D01*
X125391330Y-101401291D01*
X125364937Y-101337572D01*
X125355500Y-101290124D01*
X125355500Y-97466437D01*
X125375185Y-97399398D01*
X125404011Y-97368063D01*
X125417621Y-97357621D01*
X125505861Y-97242625D01*
X125561330Y-97108709D01*
X125580250Y-96965000D01*
X125561330Y-96821291D01*
X125505861Y-96687375D01*
X125417621Y-96572379D01*
X125302625Y-96484139D01*
X125302624Y-96484138D01*
X125302622Y-96484137D01*
X125207074Y-96444561D01*
X125152670Y-96400721D01*
X125130605Y-96334427D01*
X125147884Y-96266727D01*
X125199021Y-96219116D01*
X125207074Y-96215439D01*
X125250501Y-96197451D01*
X125302625Y-96175861D01*
X125417621Y-96087621D01*
X125505861Y-95972625D01*
X125561330Y-95838709D01*
X125580250Y-95695000D01*
X129419750Y-95695000D01*
X129424915Y-95734235D01*
X129438670Y-95838708D01*
X129438671Y-95838712D01*
X129494137Y-95972622D01*
X129494138Y-95972623D01*
X129494139Y-95972625D01*
X129582379Y-96087621D01*
X129637282Y-96129750D01*
X129700987Y-96178633D01*
X129742189Y-96235061D01*
X129749500Y-96277008D01*
X129749500Y-101290124D01*
X129740062Y-101337572D01*
X129733310Y-101353876D01*
X129713669Y-101401293D01*
X129699059Y-101512267D01*
X129694750Y-101545000D01*
X129713247Y-101685499D01*
X129713670Y-101688708D01*
X129713671Y-101688712D01*
X129769137Y-101822622D01*
X129769138Y-101822624D01*
X129769139Y-101822625D01*
X129857379Y-101937621D01*
X129972375Y-102025861D01*
X130036089Y-102052251D01*
X130076317Y-102079131D01*
X133333181Y-105335995D01*
X133366666Y-105397318D01*
X133369500Y-105423676D01*
X133369500Y-109703891D01*
X133403608Y-109831187D01*
X133412588Y-109846740D01*
X133469500Y-109945314D01*
X134531500Y-111007314D01*
X134624686Y-111100500D01*
X134738814Y-111166392D01*
X134866108Y-111200500D01*
X134866110Y-111200500D01*
X140175891Y-111200500D01*
X140175892Y-111200500D01*
X140252054Y-111180092D01*
X140320142Y-111181205D01*
X140367885Y-111195689D01*
X140555000Y-111214118D01*
X140742115Y-111195689D01*
X140922039Y-111141109D01*
X140998015Y-111100499D01*
X141087851Y-111052481D01*
X141087853Y-111052478D01*
X141087857Y-111052477D01*
X141233199Y-110933199D01*
X141352477Y-110787857D01*
X141352478Y-110787853D01*
X141352481Y-110787851D01*
X141441108Y-110622040D01*
X141441109Y-110622039D01*
X141495689Y-110442115D01*
X141514118Y-110255000D01*
X141497334Y-110084589D01*
X141510353Y-110015945D01*
X141533053Y-109984759D01*
X142310995Y-109206819D01*
X142372318Y-109173334D01*
X142398676Y-109170500D01*
X142564088Y-109170500D01*
X142631127Y-109190185D01*
X142676882Y-109242989D01*
X142686826Y-109312147D01*
X142657801Y-109375703D01*
X142622541Y-109403858D01*
X142522148Y-109457518D01*
X142522142Y-109457523D01*
X142376800Y-109576800D01*
X142257523Y-109722142D01*
X142257518Y-109722148D01*
X142168891Y-109887959D01*
X142114311Y-110067882D01*
X142114310Y-110067884D01*
X142095882Y-110255000D01*
X142114310Y-110442115D01*
X142114311Y-110442117D01*
X142168891Y-110622040D01*
X142257518Y-110787851D01*
X142257523Y-110787857D01*
X142376800Y-110933199D01*
X142522142Y-111052476D01*
X142522148Y-111052481D01*
X142687959Y-111141108D01*
X142687961Y-111141109D01*
X142820142Y-111181206D01*
X142867882Y-111195688D01*
X142867884Y-111195689D01*
X142884660Y-111197341D01*
X143055000Y-111214118D01*
X143242115Y-111195689D01*
X143422039Y-111141109D01*
X143498015Y-111100499D01*
X143587851Y-111052481D01*
X143587853Y-111052478D01*
X143587857Y-111052477D01*
X143733199Y-110933199D01*
X143852477Y-110787857D01*
X143852478Y-110787853D01*
X143852481Y-110787851D01*
X143941108Y-110622040D01*
X143941109Y-110622039D01*
X143995689Y-110442115D01*
X144014118Y-110255000D01*
X143995689Y-110067885D01*
X143941109Y-109887961D01*
X143919076Y-109846740D01*
X143852481Y-109722148D01*
X143852476Y-109722142D01*
X143733199Y-109576800D01*
X143587857Y-109457523D01*
X143587851Y-109457518D01*
X143487459Y-109403858D01*
X143437614Y-109354896D01*
X143422154Y-109286758D01*
X143445986Y-109221078D01*
X143501543Y-109178710D01*
X143545912Y-109170500D01*
X145064088Y-109170500D01*
X145131127Y-109190185D01*
X145176882Y-109242989D01*
X145186826Y-109312147D01*
X145157801Y-109375703D01*
X145122541Y-109403858D01*
X145022148Y-109457518D01*
X145022142Y-109457523D01*
X144876800Y-109576800D01*
X144757523Y-109722142D01*
X144757518Y-109722148D01*
X144668891Y-109887959D01*
X144614311Y-110067882D01*
X144614310Y-110067884D01*
X144595882Y-110255000D01*
X144614310Y-110442115D01*
X144614311Y-110442117D01*
X144668891Y-110622040D01*
X144757518Y-110787851D01*
X144757523Y-110787857D01*
X144876800Y-110933199D01*
X145022142Y-111052476D01*
X145022148Y-111052481D01*
X145187959Y-111141108D01*
X145187961Y-111141109D01*
X145320142Y-111181206D01*
X145367882Y-111195688D01*
X145367884Y-111195689D01*
X145384660Y-111197341D01*
X145555000Y-111214118D01*
X145742115Y-111195689D01*
X145922039Y-111141109D01*
X145998015Y-111100499D01*
X146087851Y-111052481D01*
X146087853Y-111052478D01*
X146087857Y-111052477D01*
X146233199Y-110933199D01*
X146352477Y-110787857D01*
X146352478Y-110787853D01*
X146352481Y-110787851D01*
X146441108Y-110622040D01*
X146441109Y-110622039D01*
X146495689Y-110442115D01*
X146514118Y-110255000D01*
X146495689Y-110067885D01*
X146441109Y-109887961D01*
X146419076Y-109846740D01*
X146352481Y-109722148D01*
X146352476Y-109722142D01*
X146233199Y-109576800D01*
X146087857Y-109457523D01*
X146087851Y-109457518D01*
X145987459Y-109403858D01*
X145937614Y-109354896D01*
X145922154Y-109286758D01*
X145945986Y-109221078D01*
X146001543Y-109178710D01*
X146045912Y-109170500D01*
X146405890Y-109170500D01*
X146405892Y-109170500D01*
X146533186Y-109136392D01*
X146647314Y-109070500D01*
X146722814Y-108995000D01*
X149865640Y-108995000D01*
X149885034Y-109191914D01*
X149942474Y-109381269D01*
X150035744Y-109555764D01*
X150035748Y-109555771D01*
X150161274Y-109708725D01*
X150314228Y-109834251D01*
X150314235Y-109834255D01*
X150488730Y-109927525D01*
X150488732Y-109927525D01*
X150488735Y-109927527D01*
X150678084Y-109984965D01*
X150678083Y-109984965D01*
X150695739Y-109986703D01*
X150875000Y-110004360D01*
X151071916Y-109984965D01*
X151261265Y-109927527D01*
X151435770Y-109834252D01*
X151588725Y-109708725D01*
X151714252Y-109555770D01*
X151807527Y-109381265D01*
X151864965Y-109191916D01*
X151884360Y-108995000D01*
X151864965Y-108798084D01*
X151807527Y-108608735D01*
X151807525Y-108608732D01*
X151807525Y-108608730D01*
X151714255Y-108434235D01*
X151714251Y-108434228D01*
X151588725Y-108281274D01*
X151518584Y-108223711D01*
X157694500Y-108223711D01*
X157694500Y-108466288D01*
X157726161Y-108706785D01*
X157788947Y-108941104D01*
X157842545Y-109070500D01*
X157881776Y-109165212D01*
X158003064Y-109375289D01*
X158003066Y-109375292D01*
X158003067Y-109375293D01*
X158150733Y-109567736D01*
X158150739Y-109567743D01*
X158322256Y-109739260D01*
X158322263Y-109739266D01*
X158374391Y-109779265D01*
X158514711Y-109886936D01*
X158724788Y-110008224D01*
X158948900Y-110101054D01*
X159183211Y-110163838D01*
X159363586Y-110187584D01*
X159423711Y-110195500D01*
X159423712Y-110195500D01*
X159666289Y-110195500D01*
X159714388Y-110189167D01*
X159906789Y-110163838D01*
X160141100Y-110101054D01*
X160365212Y-110008224D01*
X160575289Y-109886936D01*
X160767738Y-109739265D01*
X160939265Y-109567738D01*
X161086936Y-109375289D01*
X161208224Y-109165212D01*
X161301054Y-108941100D01*
X161363838Y-108706789D01*
X161395500Y-108466288D01*
X161395500Y-108223712D01*
X161363838Y-107983211D01*
X161301054Y-107748900D01*
X161208224Y-107524788D01*
X161086936Y-107314711D01*
X160969958Y-107162262D01*
X160939266Y-107122263D01*
X160939260Y-107122256D01*
X160767743Y-106950739D01*
X160767736Y-106950733D01*
X160575293Y-106803067D01*
X160575292Y-106803066D01*
X160575289Y-106803064D01*
X160365212Y-106681776D01*
X160365205Y-106681773D01*
X160141104Y-106588947D01*
X159942262Y-106535667D01*
X159906789Y-106526162D01*
X159906788Y-106526161D01*
X159906785Y-106526161D01*
X159666289Y-106494500D01*
X159666288Y-106494500D01*
X159423712Y-106494500D01*
X159423711Y-106494500D01*
X159183214Y-106526161D01*
X158948895Y-106588947D01*
X158724794Y-106681773D01*
X158724785Y-106681777D01*
X158514706Y-106803067D01*
X158322263Y-106950733D01*
X158322256Y-106950739D01*
X158150739Y-107122256D01*
X158150733Y-107122263D01*
X158003067Y-107314706D01*
X157881777Y-107524785D01*
X157881773Y-107524794D01*
X157788947Y-107748895D01*
X157726161Y-107983214D01*
X157694500Y-108223711D01*
X151518584Y-108223711D01*
X151435771Y-108155748D01*
X151435764Y-108155744D01*
X151261269Y-108062474D01*
X151166590Y-108033754D01*
X151071916Y-108005035D01*
X151071914Y-108005034D01*
X151071916Y-108005034D01*
X150875000Y-107985640D01*
X150678085Y-108005034D01*
X150488730Y-108062474D01*
X150314235Y-108155744D01*
X150314228Y-108155748D01*
X150161274Y-108281274D01*
X150035748Y-108434228D01*
X150035744Y-108434235D01*
X149942474Y-108608730D01*
X149885034Y-108798085D01*
X149865640Y-108995000D01*
X146722814Y-108995000D01*
X149720186Y-105997626D01*
X149781507Y-105964143D01*
X149851199Y-105969127D01*
X149907132Y-106010999D01*
X149931549Y-106076463D01*
X149926526Y-106121304D01*
X149885034Y-106258085D01*
X149865640Y-106455000D01*
X149885034Y-106651914D01*
X149942474Y-106841269D01*
X150035744Y-107015764D01*
X150035748Y-107015771D01*
X150161274Y-107168725D01*
X150314228Y-107294251D01*
X150314235Y-107294255D01*
X150488730Y-107387525D01*
X150488732Y-107387525D01*
X150488735Y-107387527D01*
X150678084Y-107444965D01*
X150678083Y-107444965D01*
X150695739Y-107446703D01*
X150875000Y-107464360D01*
X151071916Y-107444965D01*
X151261265Y-107387527D01*
X151435770Y-107294252D01*
X151588725Y-107168725D01*
X151714252Y-107015770D01*
X151806564Y-106843067D01*
X151807525Y-106841269D01*
X151807525Y-106841268D01*
X151807527Y-106841265D01*
X151864965Y-106651916D01*
X151884360Y-106455000D01*
X151864965Y-106258084D01*
X151807527Y-106068735D01*
X151807525Y-106068732D01*
X151807525Y-106068730D01*
X151714255Y-105894235D01*
X151714247Y-105894223D01*
X151705171Y-105883163D01*
X151677858Y-105818853D01*
X151689651Y-105749986D01*
X151736804Y-105698426D01*
X151801025Y-105680500D01*
X151835890Y-105680500D01*
X151835892Y-105680500D01*
X151963186Y-105646392D01*
X152077314Y-105580500D01*
X155935995Y-101721819D01*
X155997318Y-101688334D01*
X156023676Y-101685500D01*
X157139676Y-101685500D01*
X157139677Y-101685499D01*
X157212740Y-101670966D01*
X157295601Y-101615601D01*
X157350966Y-101532740D01*
X157365500Y-101459674D01*
X157365500Y-101408122D01*
X157385185Y-101341083D01*
X157437989Y-101295328D01*
X157487375Y-101285847D01*
X157957474Y-100815748D01*
X157994920Y-100880606D01*
X158069394Y-100955080D01*
X158134251Y-100992525D01*
X157666037Y-101460737D01*
X157728828Y-101512267D01*
X157728834Y-101512271D01*
X157911233Y-101609766D01*
X158109165Y-101669808D01*
X158315000Y-101690080D01*
X158520834Y-101669808D01*
X158718766Y-101609766D01*
X158901166Y-101512271D01*
X158901173Y-101512267D01*
X158963960Y-101460738D01*
X158963961Y-101460737D01*
X158495749Y-100992525D01*
X158560606Y-100955080D01*
X158635080Y-100880606D01*
X158672525Y-100815748D01*
X159140737Y-101283961D01*
X159140738Y-101283960D01*
X159192267Y-101221173D01*
X159192271Y-101221166D01*
X159289766Y-101038766D01*
X159349808Y-100840834D01*
X159370080Y-100635000D01*
X159349808Y-100429165D01*
X159289766Y-100231233D01*
X159192271Y-100048834D01*
X159192267Y-100048828D01*
X159140737Y-99986037D01*
X158672524Y-100454250D01*
X158635080Y-100389394D01*
X158560606Y-100314920D01*
X158495748Y-100277474D01*
X158963960Y-99809262D01*
X158963960Y-99809261D01*
X158901171Y-99757732D01*
X158901165Y-99757728D01*
X158718766Y-99660233D01*
X158520834Y-99600191D01*
X158315000Y-99579919D01*
X158109165Y-99600191D01*
X157911233Y-99660233D01*
X157728827Y-99757731D01*
X157666038Y-99809260D01*
X157666038Y-99809261D01*
X158134251Y-100277474D01*
X158069394Y-100314920D01*
X157994920Y-100389394D01*
X157957474Y-100454251D01*
X157486843Y-99983620D01*
X157427659Y-99969355D01*
X157379369Y-99918859D01*
X157365500Y-99861876D01*
X157365500Y-99810323D01*
X157365499Y-99810321D01*
X157350967Y-99737264D01*
X157350966Y-99737260D01*
X157324292Y-99697339D01*
X157295601Y-99654399D01*
X157212740Y-99599034D01*
X157212739Y-99599033D01*
X157212735Y-99599032D01*
X157139677Y-99584500D01*
X157139674Y-99584500D01*
X156939500Y-99584500D01*
X156872461Y-99564815D01*
X156826706Y-99512011D01*
X156815500Y-99460500D01*
X156815500Y-97148542D01*
X156835185Y-97081503D01*
X156841117Y-97073064D01*
X156925861Y-96962625D01*
X156981330Y-96828709D01*
X157000250Y-96685000D01*
X156981330Y-96541291D01*
X156925861Y-96407375D01*
X156837621Y-96292379D01*
X156722625Y-96204139D01*
X156722624Y-96204138D01*
X156722622Y-96204137D01*
X156588712Y-96148671D01*
X156588710Y-96148670D01*
X156588709Y-96148670D01*
X156516854Y-96139210D01*
X156445001Y-96129750D01*
X156444999Y-96129750D01*
X156301291Y-96148670D01*
X156301287Y-96148671D01*
X156167377Y-96204137D01*
X156107282Y-96250250D01*
X156052379Y-96292379D01*
X155964139Y-96407375D01*
X155964138Y-96407376D01*
X155964138Y-96407377D01*
X155937746Y-96471092D01*
X155918229Y-96500308D01*
X155919445Y-96501241D01*
X155914499Y-96507685D01*
X155848609Y-96621810D01*
X155848609Y-96621811D01*
X155848608Y-96621813D01*
X155848608Y-96621814D01*
X155823898Y-96714033D01*
X155814500Y-96749108D01*
X155814500Y-99460500D01*
X155794815Y-99527539D01*
X155742011Y-99573294D01*
X155690500Y-99584500D01*
X155490323Y-99584500D01*
X155417264Y-99599032D01*
X155417260Y-99599033D01*
X155334399Y-99654399D01*
X155279033Y-99737260D01*
X155279032Y-99737264D01*
X155264500Y-99810321D01*
X155264500Y-100926324D01*
X155244815Y-100993363D01*
X155228181Y-101014005D01*
X152081032Y-104161153D01*
X152019709Y-104194638D01*
X151950017Y-104189654D01*
X151894084Y-104147782D01*
X151869667Y-104082318D01*
X151869947Y-104061325D01*
X151884360Y-103915000D01*
X151864965Y-103718084D01*
X151807527Y-103528735D01*
X151807525Y-103528732D01*
X151807525Y-103528730D01*
X151714255Y-103354235D01*
X151714251Y-103354228D01*
X151588725Y-103201274D01*
X151435771Y-103075748D01*
X151435764Y-103075744D01*
X151261269Y-102982474D01*
X151088448Y-102930050D01*
X151071916Y-102925035D01*
X151071914Y-102925034D01*
X151071916Y-102925034D01*
X150875000Y-102905640D01*
X150678085Y-102925034D01*
X150488730Y-102982474D01*
X150314235Y-103075744D01*
X150314228Y-103075748D01*
X150161274Y-103201274D01*
X150035748Y-103354228D01*
X150035744Y-103354235D01*
X149942474Y-103528730D01*
X149885034Y-103718085D01*
X149865640Y-103915000D01*
X149885034Y-104111914D01*
X149942474Y-104301269D01*
X150035744Y-104475764D01*
X150035746Y-104475767D01*
X150036619Y-104476831D01*
X150036901Y-104477497D01*
X150039131Y-104480833D01*
X150038498Y-104481255D01*
X150063935Y-104541140D01*
X150052146Y-104610008D01*
X150004996Y-104661570D01*
X149940769Y-104679500D01*
X149764107Y-104679500D01*
X149692794Y-104698607D01*
X149692795Y-104698608D01*
X149636812Y-104713608D01*
X149522686Y-104779500D01*
X149522683Y-104779502D01*
X146169005Y-108133181D01*
X146107682Y-108166666D01*
X146081324Y-108169500D01*
X142074107Y-108169500D01*
X141946812Y-108203608D01*
X141832686Y-108269500D01*
X141832683Y-108269502D01*
X140825241Y-109276943D01*
X140763918Y-109310428D01*
X140725406Y-109312665D01*
X140555000Y-109295882D01*
X140367884Y-109314310D01*
X140367882Y-109314311D01*
X140187959Y-109368891D01*
X140022148Y-109457518D01*
X140022142Y-109457523D01*
X139876800Y-109576800D01*
X139757523Y-109722142D01*
X139757518Y-109722148D01*
X139668891Y-109887959D01*
X139614311Y-110067882D01*
X139614310Y-110067884D01*
X139612364Y-110087653D01*
X139586204Y-110152440D01*
X139529170Y-110192800D01*
X139488961Y-110199500D01*
X136574441Y-110199500D01*
X136507402Y-110179815D01*
X136461647Y-110127011D01*
X136451703Y-110057853D01*
X136480728Y-109994297D01*
X136505550Y-109972398D01*
X136546084Y-109945314D01*
X136569601Y-109929601D01*
X136624966Y-109846740D01*
X136639500Y-109773674D01*
X136639500Y-108216326D01*
X136639500Y-108216323D01*
X136639499Y-108216321D01*
X136624967Y-108143264D01*
X136624966Y-108143260D01*
X136569601Y-108060399D01*
X136513944Y-108023211D01*
X136486739Y-108005033D01*
X136486735Y-108005032D01*
X136413677Y-107990500D01*
X136413674Y-107990500D01*
X134856326Y-107990500D01*
X134856323Y-107990500D01*
X134783264Y-108005032D01*
X134783260Y-108005033D01*
X134700399Y-108060399D01*
X134645033Y-108143260D01*
X134645032Y-108143264D01*
X134630500Y-108216321D01*
X134630500Y-109391324D01*
X134610815Y-109458363D01*
X134558011Y-109504118D01*
X134488853Y-109514062D01*
X134425297Y-109485037D01*
X134418819Y-109479005D01*
X134406819Y-109467005D01*
X134373334Y-109405682D01*
X134370500Y-109379324D01*
X134370500Y-106455000D01*
X134626142Y-106455000D01*
X134645526Y-106651814D01*
X134702939Y-106841079D01*
X134796161Y-107015484D01*
X134796165Y-107015490D01*
X134841946Y-107071275D01*
X134841947Y-107071275D01*
X135204270Y-106708952D01*
X135234901Y-106762007D01*
X135327993Y-106855099D01*
X135381046Y-106885729D01*
X135018722Y-107248052D01*
X135074508Y-107293834D01*
X135074515Y-107293838D01*
X135248920Y-107387060D01*
X135438185Y-107444473D01*
X135635000Y-107463857D01*
X135831814Y-107444473D01*
X136021079Y-107387060D01*
X136195485Y-107293838D01*
X136195492Y-107293834D01*
X136251275Y-107248053D01*
X136251276Y-107248052D01*
X135888953Y-106885729D01*
X135942007Y-106855099D01*
X136035099Y-106762007D01*
X136065729Y-106708953D01*
X136428052Y-107071276D01*
X136428053Y-107071275D01*
X136473834Y-107015492D01*
X136473838Y-107015485D01*
X136567060Y-106841079D01*
X136624473Y-106651814D01*
X136643857Y-106455000D01*
X136624473Y-106258185D01*
X136567060Y-106068920D01*
X136473838Y-105894515D01*
X136473834Y-105894508D01*
X136428052Y-105838722D01*
X136065729Y-106201046D01*
X136035099Y-106147993D01*
X135942007Y-106054901D01*
X135888952Y-106024270D01*
X136251275Y-105661947D01*
X136251275Y-105661946D01*
X136195490Y-105616165D01*
X136195484Y-105616161D01*
X136021079Y-105522939D01*
X135831814Y-105465526D01*
X135635000Y-105446142D01*
X135438185Y-105465526D01*
X135248920Y-105522939D01*
X135074508Y-105616164D01*
X135018723Y-105661945D01*
X135018723Y-105661946D01*
X135381047Y-106024270D01*
X135327993Y-106054901D01*
X135234901Y-106147993D01*
X135204270Y-106201047D01*
X134841946Y-105838723D01*
X134841945Y-105838723D01*
X134796164Y-105894508D01*
X134702939Y-106068920D01*
X134645526Y-106258185D01*
X134626142Y-106455000D01*
X134370500Y-106455000D01*
X134370500Y-105099110D01*
X134370500Y-105099108D01*
X134336392Y-104971814D01*
X134270500Y-104857686D01*
X134177314Y-104764500D01*
X130787814Y-101375000D01*
X134625640Y-101375000D01*
X134645034Y-101571914D01*
X134702474Y-101761269D01*
X134795744Y-101935764D01*
X134795748Y-101935771D01*
X134921274Y-102088725D01*
X135074228Y-102214251D01*
X135074235Y-102214255D01*
X135248730Y-102307525D01*
X135248732Y-102307525D01*
X135248735Y-102307527D01*
X135438084Y-102364965D01*
X135438083Y-102364965D01*
X135457478Y-102366875D01*
X135635000Y-102384360D01*
X135659971Y-102381900D01*
X135728617Y-102394918D01*
X135759808Y-102417622D01*
X136106724Y-102764538D01*
X136140209Y-102825861D01*
X136135225Y-102895553D01*
X136093353Y-102951486D01*
X136027889Y-102975903D01*
X135983048Y-102970880D01*
X135848448Y-102930050D01*
X135831916Y-102925035D01*
X135831914Y-102925034D01*
X135831916Y-102925034D01*
X135635000Y-102905640D01*
X135438085Y-102925034D01*
X135248730Y-102982474D01*
X135074235Y-103075744D01*
X135074228Y-103075748D01*
X134921274Y-103201274D01*
X134795748Y-103354228D01*
X134795744Y-103354235D01*
X134702474Y-103528730D01*
X134645034Y-103718085D01*
X134625640Y-103915000D01*
X134645034Y-104111914D01*
X134702474Y-104301269D01*
X134795744Y-104475764D01*
X134795748Y-104475771D01*
X134921274Y-104628725D01*
X135074228Y-104754251D01*
X135074235Y-104754255D01*
X135248730Y-104847525D01*
X135248732Y-104847525D01*
X135248735Y-104847527D01*
X135438084Y-104904965D01*
X135438083Y-104904965D01*
X135455496Y-104906680D01*
X135635000Y-104924360D01*
X135831916Y-104904965D01*
X135837889Y-104903777D01*
X135838466Y-104906680D01*
X135895583Y-104905944D01*
X135949867Y-104937681D01*
X138270159Y-107257972D01*
X138270169Y-107257983D01*
X138274499Y-107262313D01*
X138274500Y-107262314D01*
X138367686Y-107355500D01*
X138447433Y-107401542D01*
X138447434Y-107401543D01*
X138481808Y-107421389D01*
X138481809Y-107421389D01*
X138481814Y-107421392D01*
X138609107Y-107455500D01*
X138609108Y-107455500D01*
X139672321Y-107455500D01*
X139739360Y-107475185D01*
X139768173Y-107500834D01*
X139804763Y-107545420D01*
X139876800Y-107633199D01*
X139973461Y-107712525D01*
X140021632Y-107752058D01*
X140022142Y-107752476D01*
X140022148Y-107752481D01*
X140187087Y-107840642D01*
X140187961Y-107841109D01*
X140366260Y-107895196D01*
X140367882Y-107895688D01*
X140367884Y-107895689D01*
X140384660Y-107897341D01*
X140555000Y-107914118D01*
X140742115Y-107895689D01*
X140922039Y-107841109D01*
X141019715Y-107788900D01*
X141087851Y-107752481D01*
X141087853Y-107752478D01*
X141087857Y-107752477D01*
X141233199Y-107633199D01*
X141352477Y-107487857D01*
X141352478Y-107487853D01*
X141352481Y-107487851D01*
X141423223Y-107355501D01*
X141441109Y-107322039D01*
X141495689Y-107142115D01*
X141514118Y-106955000D01*
X141495689Y-106767885D01*
X141441109Y-106587961D01*
X141429457Y-106566161D01*
X141352481Y-106422148D01*
X141352476Y-106422142D01*
X141349225Y-106418181D01*
X141313172Y-106374249D01*
X141233199Y-106276800D01*
X141087857Y-106157523D01*
X141087851Y-106157519D01*
X141062293Y-106143858D01*
X141012449Y-106094896D01*
X140996988Y-106026759D01*
X141020819Y-105961079D01*
X141076377Y-105918710D01*
X141120746Y-105910500D01*
X141251324Y-105910500D01*
X141318363Y-105930185D01*
X141339005Y-105946819D01*
X142076943Y-106684757D01*
X142110428Y-106746080D01*
X142112665Y-106784592D01*
X142095882Y-106954999D01*
X142114310Y-107142115D01*
X142114311Y-107142117D01*
X142168891Y-107322040D01*
X142257518Y-107487851D01*
X142257523Y-107487857D01*
X142376800Y-107633199D01*
X142473461Y-107712525D01*
X142521632Y-107752058D01*
X142522142Y-107752476D01*
X142522148Y-107752481D01*
X142687087Y-107840642D01*
X142687961Y-107841109D01*
X142866260Y-107895196D01*
X142867882Y-107895688D01*
X142867884Y-107895689D01*
X142884660Y-107897341D01*
X143055000Y-107914118D01*
X143242115Y-107895689D01*
X143422039Y-107841109D01*
X143519715Y-107788900D01*
X143587851Y-107752481D01*
X143587853Y-107752478D01*
X143587857Y-107752477D01*
X143733199Y-107633199D01*
X143852477Y-107487857D01*
X143852478Y-107487853D01*
X143852481Y-107487851D01*
X143923223Y-107355501D01*
X143941109Y-107322039D01*
X143995689Y-107142115D01*
X144014118Y-106955000D01*
X144596384Y-106955000D01*
X144614803Y-107142015D01*
X144669356Y-107321850D01*
X144669357Y-107321853D01*
X144757936Y-107487572D01*
X144757944Y-107487584D01*
X144797470Y-107535749D01*
X144797472Y-107535749D01*
X145160871Y-107172350D01*
X145194910Y-107231306D01*
X145278694Y-107315090D01*
X145337648Y-107349127D01*
X144974249Y-107712525D01*
X144974249Y-107712526D01*
X145022421Y-107752059D01*
X145022427Y-107752063D01*
X145188146Y-107840642D01*
X145188149Y-107840643D01*
X145367986Y-107895196D01*
X145367982Y-107895196D01*
X145555000Y-107913615D01*
X145742015Y-107895196D01*
X145921850Y-107840643D01*
X145921853Y-107840642D01*
X146087573Y-107752063D01*
X146087580Y-107752058D01*
X146135749Y-107712527D01*
X146135750Y-107712526D01*
X145772351Y-107349127D01*
X145831306Y-107315090D01*
X145915090Y-107231306D01*
X145949127Y-107172351D01*
X146312526Y-107535750D01*
X146312527Y-107535749D01*
X146352058Y-107487580D01*
X146352063Y-107487573D01*
X146440642Y-107321853D01*
X146440643Y-107321850D01*
X146495196Y-107142015D01*
X146513615Y-106955000D01*
X146495196Y-106767984D01*
X146440643Y-106588149D01*
X146440642Y-106588146D01*
X146352063Y-106422427D01*
X146352059Y-106422421D01*
X146312526Y-106374249D01*
X146312525Y-106374249D01*
X145949127Y-106737648D01*
X145915090Y-106678694D01*
X145831306Y-106594910D01*
X145772350Y-106560872D01*
X146135749Y-106197472D01*
X146135749Y-106197470D01*
X146087584Y-106157944D01*
X146087572Y-106157936D01*
X145921853Y-106069357D01*
X145921850Y-106069356D01*
X145742013Y-106014803D01*
X145742017Y-106014803D01*
X145555000Y-105996384D01*
X145367984Y-106014803D01*
X145188149Y-106069356D01*
X145188146Y-106069357D01*
X145022423Y-106157938D01*
X145022418Y-106157941D01*
X144974249Y-106197470D01*
X144974249Y-106197472D01*
X145337649Y-106560872D01*
X145278694Y-106594910D01*
X145194910Y-106678694D01*
X145160872Y-106737649D01*
X144797472Y-106374249D01*
X144797470Y-106374249D01*
X144757941Y-106422418D01*
X144757938Y-106422423D01*
X144669357Y-106588146D01*
X144669356Y-106588149D01*
X144614803Y-106767984D01*
X144596384Y-106955000D01*
X144014118Y-106955000D01*
X143995689Y-106767885D01*
X143941109Y-106587961D01*
X143929457Y-106566161D01*
X143852481Y-106422148D01*
X143852476Y-106422142D01*
X143849225Y-106418181D01*
X143813172Y-106374249D01*
X143733199Y-106276800D01*
X143587857Y-106157523D01*
X143587851Y-106157518D01*
X143422040Y-106068891D01*
X143242117Y-106014311D01*
X143242115Y-106014310D01*
X143055000Y-105995882D01*
X142884592Y-106012665D01*
X142815946Y-105999646D01*
X142784757Y-105976943D01*
X141817316Y-105009502D01*
X141817314Y-105009500D01*
X141752037Y-104971812D01*
X141703187Y-104943608D01*
X141631347Y-104924359D01*
X141575892Y-104909500D01*
X141575891Y-104909500D01*
X139718676Y-104909500D01*
X139651637Y-104889815D01*
X139630995Y-104873181D01*
X136608805Y-101850991D01*
X136575320Y-101789668D01*
X136577824Y-101727317D01*
X136624965Y-101571916D01*
X136644360Y-101375000D01*
X136624965Y-101178084D01*
X136567527Y-100988735D01*
X136567525Y-100988732D01*
X136567525Y-100988730D01*
X136474255Y-100814235D01*
X136474251Y-100814228D01*
X136348725Y-100661274D01*
X136195771Y-100535748D01*
X136195764Y-100535744D01*
X136021269Y-100442474D01*
X135877821Y-100398960D01*
X135831916Y-100385035D01*
X135831914Y-100385034D01*
X135831916Y-100385034D01*
X135635000Y-100365640D01*
X135438085Y-100385034D01*
X135248730Y-100442474D01*
X135074235Y-100535744D01*
X135074228Y-100535748D01*
X134921274Y-100661274D01*
X134795748Y-100814228D01*
X134795744Y-100814235D01*
X134702474Y-100988730D01*
X134645034Y-101178085D01*
X134625640Y-101375000D01*
X130787814Y-101375000D01*
X130786819Y-101374005D01*
X130753334Y-101312682D01*
X130750500Y-101286324D01*
X130750500Y-98835000D01*
X134625640Y-98835000D01*
X134645034Y-99031914D01*
X134702474Y-99221269D01*
X134795744Y-99395764D01*
X134795748Y-99395771D01*
X134921274Y-99548725D01*
X135074228Y-99674251D01*
X135074235Y-99674255D01*
X135248730Y-99767525D01*
X135248732Y-99767525D01*
X135248735Y-99767527D01*
X135438084Y-99824965D01*
X135438083Y-99824965D01*
X135455739Y-99826703D01*
X135635000Y-99844360D01*
X135831916Y-99824965D01*
X136021265Y-99767527D01*
X136077891Y-99737260D01*
X136195764Y-99674255D01*
X136195770Y-99674252D01*
X136348725Y-99548725D01*
X136474252Y-99395770D01*
X136567527Y-99221265D01*
X136624965Y-99031916D01*
X136644360Y-98835000D01*
X136624965Y-98638084D01*
X136567527Y-98448735D01*
X136567525Y-98448732D01*
X136567525Y-98448730D01*
X136474255Y-98274235D01*
X136474251Y-98274228D01*
X136348725Y-98121274D01*
X136195771Y-97995748D01*
X136195764Y-97995744D01*
X136021269Y-97902474D01*
X135926590Y-97873754D01*
X135831916Y-97845035D01*
X135831914Y-97845034D01*
X135831916Y-97845034D01*
X135635000Y-97825640D01*
X135438085Y-97845034D01*
X135248730Y-97902474D01*
X135074235Y-97995744D01*
X135074228Y-97995748D01*
X134921274Y-98121274D01*
X134795748Y-98274228D01*
X134795744Y-98274235D01*
X134702474Y-98448730D01*
X134645034Y-98638085D01*
X134625640Y-98835000D01*
X130750500Y-98835000D01*
X130750500Y-95904110D01*
X130750500Y-95904108D01*
X130716392Y-95776814D01*
X130650500Y-95662686D01*
X130557314Y-95569500D01*
X130509131Y-95521317D01*
X130482251Y-95481089D01*
X130455861Y-95417375D01*
X130367621Y-95302379D01*
X130252625Y-95214139D01*
X130252624Y-95214138D01*
X130252622Y-95214137D01*
X130118712Y-95158671D01*
X130118710Y-95158670D01*
X130118709Y-95158670D01*
X130046854Y-95149210D01*
X129975001Y-95139750D01*
X129974999Y-95139750D01*
X129831291Y-95158670D01*
X129831287Y-95158671D01*
X129697377Y-95214137D01*
X129582379Y-95302379D01*
X129494137Y-95417377D01*
X129438671Y-95551287D01*
X129438670Y-95551291D01*
X129419750Y-95695000D01*
X125580250Y-95695000D01*
X125561330Y-95551291D01*
X125505861Y-95417375D01*
X125417621Y-95302379D01*
X125302625Y-95214139D01*
X125302623Y-95214138D01*
X125238909Y-95187747D01*
X125198681Y-95160867D01*
X123866819Y-93829005D01*
X123833334Y-93767682D01*
X123830500Y-93741324D01*
X123830500Y-93434721D01*
X123850185Y-93367682D01*
X123902989Y-93321927D01*
X123972147Y-93311983D01*
X124035703Y-93341008D01*
X124053455Y-93359995D01*
X124113592Y-93439631D01*
X124544270Y-93008953D01*
X124574901Y-93062007D01*
X124667993Y-93155099D01*
X124721046Y-93185729D01*
X124288825Y-93617949D01*
X124309264Y-93636580D01*
X124482585Y-93743897D01*
X124672678Y-93817539D01*
X124873072Y-93855000D01*
X125076928Y-93855000D01*
X125277321Y-93817539D01*
X125467415Y-93743897D01*
X125640736Y-93636580D01*
X125661174Y-93617949D01*
X125228954Y-93185729D01*
X125282007Y-93155099D01*
X125375099Y-93062007D01*
X125405729Y-93008954D01*
X125836406Y-93439631D01*
X125914245Y-93336556D01*
X126005113Y-93154069D01*
X126005116Y-93154063D01*
X126060902Y-92957992D01*
X126060903Y-92957989D01*
X126079713Y-92755000D01*
X126079713Y-92754999D01*
X126060903Y-92552010D01*
X126060902Y-92552007D01*
X126005116Y-92355936D01*
X126005113Y-92355930D01*
X125914244Y-92173440D01*
X125836407Y-92070367D01*
X125836406Y-92070367D01*
X125405728Y-92501045D01*
X125375099Y-92447993D01*
X125282007Y-92354901D01*
X125228953Y-92324270D01*
X125661174Y-91892049D01*
X125661173Y-91892048D01*
X125640742Y-91873423D01*
X125467414Y-91766102D01*
X125277321Y-91692460D01*
X125076928Y-91655000D01*
X124873072Y-91655000D01*
X124672678Y-91692460D01*
X124482584Y-91766102D01*
X124309264Y-91873417D01*
X124309262Y-91873419D01*
X124288825Y-91892048D01*
X124288825Y-91892049D01*
X124721046Y-92324270D01*
X124667993Y-92354901D01*
X124574901Y-92447993D01*
X124544270Y-92501046D01*
X124113592Y-92070367D01*
X124053455Y-92150004D01*
X123997346Y-92191640D01*
X123927634Y-92196333D01*
X123866452Y-92162591D01*
X123833224Y-92101128D01*
X123830500Y-92075278D01*
X123830500Y-89441482D01*
X123850185Y-89374443D01*
X123902989Y-89328688D01*
X123972147Y-89318744D01*
X124023389Y-89338379D01*
X124027260Y-89340966D01*
X124027263Y-89340966D01*
X124027264Y-89340967D01*
X124100321Y-89355499D01*
X124100324Y-89355500D01*
X124100326Y-89355500D01*
X125849676Y-89355500D01*
X125849677Y-89355499D01*
X125922740Y-89340966D01*
X126005601Y-89285601D01*
X126060966Y-89202740D01*
X126075500Y-89129674D01*
X126075500Y-88879500D01*
X126095185Y-88812461D01*
X126147989Y-88766706D01*
X126199500Y-88755500D01*
X130418056Y-88755500D01*
X130485095Y-88775185D01*
X130529055Y-88824226D01*
X130535326Y-88836821D01*
X130658237Y-88999581D01*
X130808958Y-89136980D01*
X130808960Y-89136982D01*
X130846236Y-89160062D01*
X130982363Y-89244348D01*
X131172544Y-89318024D01*
X131373024Y-89355500D01*
X131373026Y-89355500D01*
X131576974Y-89355500D01*
X131576976Y-89355500D01*
X131757655Y-89321725D01*
X131827168Y-89328756D01*
X131868119Y-89355933D01*
X132758181Y-90245995D01*
X132791666Y-90307318D01*
X132794500Y-90333676D01*
X132794500Y-92484092D01*
X132774815Y-92551131D01*
X132722011Y-92596886D01*
X132652853Y-92606830D01*
X132589297Y-92577805D01*
X132551523Y-92519027D01*
X132551234Y-92518026D01*
X132505116Y-92355936D01*
X132505113Y-92355930D01*
X132414244Y-92173440D01*
X132336407Y-92070367D01*
X132336406Y-92070367D01*
X131905728Y-92501045D01*
X131875099Y-92447993D01*
X131782007Y-92354901D01*
X131728953Y-92324270D01*
X132161174Y-91892049D01*
X132161173Y-91892048D01*
X132140742Y-91873423D01*
X131967414Y-91766102D01*
X131777321Y-91692460D01*
X131576928Y-91655000D01*
X131373072Y-91655000D01*
X131172678Y-91692460D01*
X130982584Y-91766102D01*
X130809264Y-91873417D01*
X130809262Y-91873419D01*
X130788825Y-91892048D01*
X130788825Y-91892049D01*
X131221046Y-92324270D01*
X131167993Y-92354901D01*
X131074901Y-92447993D01*
X131044270Y-92501046D01*
X130613592Y-92070367D01*
X130535755Y-92173443D01*
X130535750Y-92173450D01*
X130444886Y-92355930D01*
X130444883Y-92355936D01*
X130389097Y-92552007D01*
X130389096Y-92552010D01*
X130370287Y-92754999D01*
X130370287Y-92755000D01*
X130389096Y-92957989D01*
X130389097Y-92957992D01*
X130444883Y-93154063D01*
X130444886Y-93154069D01*
X130535750Y-93336549D01*
X130535754Y-93336556D01*
X130613592Y-93439631D01*
X131044270Y-93008953D01*
X131074901Y-93062007D01*
X131167993Y-93155099D01*
X131221046Y-93185729D01*
X130788825Y-93617949D01*
X130809264Y-93636580D01*
X130982585Y-93743897D01*
X131172678Y-93817539D01*
X131373072Y-93855000D01*
X131576928Y-93855000D01*
X131777321Y-93817539D01*
X131967415Y-93743897D01*
X132140736Y-93636580D01*
X132161174Y-93617949D01*
X131728954Y-93185729D01*
X131782007Y-93155099D01*
X131875099Y-93062007D01*
X131905729Y-93008954D01*
X132336406Y-93439631D01*
X132414245Y-93336556D01*
X132505112Y-93154071D01*
X132551233Y-92991973D01*
X132588513Y-92932880D01*
X132651822Y-92903322D01*
X132721062Y-92912684D01*
X132774248Y-92957993D01*
X132794496Y-93024865D01*
X132794500Y-93025907D01*
X132794500Y-94020891D01*
X132828608Y-94148187D01*
X132854589Y-94193186D01*
X132894500Y-94262314D01*
X132894502Y-94262316D01*
X134612319Y-95980133D01*
X134645804Y-96041456D01*
X134643821Y-96091637D01*
X134646223Y-96092115D01*
X134645034Y-96098089D01*
X134625640Y-96295000D01*
X134645034Y-96491914D01*
X134702474Y-96681269D01*
X134795744Y-96855764D01*
X134795748Y-96855771D01*
X134921274Y-97008725D01*
X135074228Y-97134251D01*
X135074235Y-97134255D01*
X135248730Y-97227525D01*
X135248732Y-97227525D01*
X135248735Y-97227527D01*
X135438084Y-97284965D01*
X135438083Y-97284965D01*
X135455739Y-97286703D01*
X135635000Y-97304360D01*
X135831916Y-97284965D01*
X136021265Y-97227527D01*
X136195770Y-97134252D01*
X136348725Y-97008725D01*
X136474252Y-96855770D01*
X136567527Y-96681265D01*
X136624965Y-96491916D01*
X136644360Y-96295000D01*
X136624965Y-96098084D01*
X136567527Y-95908735D01*
X136567525Y-95908732D01*
X136567525Y-95908730D01*
X136474255Y-95734235D01*
X136474251Y-95734228D01*
X136348725Y-95581274D01*
X136195771Y-95455748D01*
X136195764Y-95455744D01*
X136021269Y-95362474D01*
X135835832Y-95306223D01*
X135831916Y-95305035D01*
X135831914Y-95305034D01*
X135831916Y-95305034D01*
X135635000Y-95285640D01*
X135438089Y-95305034D01*
X135432115Y-95306223D01*
X135431561Y-95303438D01*
X135373783Y-95303877D01*
X135320133Y-95272319D01*
X133831819Y-93784005D01*
X133798334Y-93722682D01*
X133795500Y-93696324D01*
X133795500Y-90382676D01*
X133815185Y-90315637D01*
X133867989Y-90269882D01*
X133937147Y-90259938D01*
X134000703Y-90288963D01*
X134007181Y-90294995D01*
X134612319Y-90900133D01*
X134645804Y-90961456D01*
X134643821Y-91011637D01*
X134646223Y-91012115D01*
X134645034Y-91018089D01*
X134625640Y-91215000D01*
X134645034Y-91411914D01*
X134702474Y-91601269D01*
X134795744Y-91775764D01*
X134795748Y-91775771D01*
X134921274Y-91928725D01*
X135074228Y-92054251D01*
X135074235Y-92054255D01*
X135248730Y-92147525D01*
X135248732Y-92147525D01*
X135248735Y-92147527D01*
X135438084Y-92204965D01*
X135438083Y-92204965D01*
X135455739Y-92206703D01*
X135635000Y-92224360D01*
X135831916Y-92204965D01*
X136021265Y-92147527D01*
X136195770Y-92054252D01*
X136348725Y-91928725D01*
X136356678Y-91919033D01*
X136364646Y-91909326D01*
X136422391Y-91869990D01*
X136492235Y-91868119D01*
X136552004Y-91904305D01*
X136582721Y-91967061D01*
X136584500Y-91987989D01*
X136584500Y-92046323D01*
X136564815Y-92113362D01*
X136548181Y-92134004D01*
X135949866Y-92732318D01*
X135888543Y-92765803D01*
X135838348Y-92763907D01*
X135837888Y-92766223D01*
X135831915Y-92765034D01*
X135654394Y-92747550D01*
X135635000Y-92745640D01*
X135634999Y-92745640D01*
X135438085Y-92765034D01*
X135248730Y-92822474D01*
X135074235Y-92915744D01*
X135074228Y-92915748D01*
X134921274Y-93041274D01*
X134795748Y-93194228D01*
X134795744Y-93194235D01*
X134702474Y-93368730D01*
X134645034Y-93558085D01*
X134625640Y-93755000D01*
X134645034Y-93951914D01*
X134702474Y-94141269D01*
X134795744Y-94315764D01*
X134795748Y-94315771D01*
X134921274Y-94468725D01*
X135074228Y-94594251D01*
X135074235Y-94594255D01*
X135248730Y-94687525D01*
X135248732Y-94687525D01*
X135248735Y-94687527D01*
X135438084Y-94744965D01*
X135438083Y-94744965D01*
X135455739Y-94746703D01*
X135635000Y-94764360D01*
X135831916Y-94744965D01*
X136021265Y-94687527D01*
X136195770Y-94594252D01*
X136348725Y-94468725D01*
X136474252Y-94315770D01*
X136563828Y-94148186D01*
X136567525Y-94141269D01*
X136567525Y-94141268D01*
X136567527Y-94141265D01*
X136624965Y-93951916D01*
X136644360Y-93755000D01*
X136624965Y-93558084D01*
X136624965Y-93558083D01*
X136623777Y-93552111D01*
X136626561Y-93551557D01*
X136626123Y-93493781D01*
X136657679Y-93440133D01*
X137485500Y-92612314D01*
X137520317Y-92552010D01*
X137523113Y-92547167D01*
X137573680Y-92498951D01*
X137642287Y-92485729D01*
X137707152Y-92511697D01*
X137747680Y-92568611D01*
X137754500Y-92609167D01*
X137754500Y-100476003D01*
X137788608Y-100603299D01*
X137806911Y-100635000D01*
X137854500Y-100717426D01*
X137854501Y-100717427D01*
X137854502Y-100717428D01*
X139730866Y-102593791D01*
X139757746Y-102634019D01*
X139784139Y-102697737D01*
X139872379Y-102812733D01*
X139987375Y-102900973D01*
X140121291Y-102956442D01*
X140248280Y-102973160D01*
X140264999Y-102975362D01*
X140265000Y-102975362D01*
X140265001Y-102975362D01*
X140300927Y-102970632D01*
X140408709Y-102956442D01*
X140472427Y-102930049D01*
X140519876Y-102920612D01*
X143220500Y-102920612D01*
X143287539Y-102940297D01*
X143333294Y-102993101D01*
X143344500Y-103044612D01*
X143344500Y-103169678D01*
X143359032Y-103242735D01*
X143359033Y-103242739D01*
X143359034Y-103242740D01*
X143414399Y-103325601D01*
X143457254Y-103354235D01*
X143497260Y-103380966D01*
X143497264Y-103380967D01*
X143570321Y-103395499D01*
X143570324Y-103395500D01*
X143621877Y-103395500D01*
X143688916Y-103415185D01*
X143734671Y-103467989D01*
X143744151Y-103517374D01*
X144214251Y-103987474D01*
X144149394Y-104024920D01*
X144074920Y-104099394D01*
X144037474Y-104164251D01*
X143569261Y-103696038D01*
X143569260Y-103696038D01*
X143517731Y-103758827D01*
X143420233Y-103941233D01*
X143360191Y-104139165D01*
X143339919Y-104345000D01*
X143360191Y-104550834D01*
X143420233Y-104748766D01*
X143517728Y-104931165D01*
X143517732Y-104931171D01*
X143569261Y-104993960D01*
X143569262Y-104993960D01*
X144037474Y-104525748D01*
X144074920Y-104590606D01*
X144149394Y-104665080D01*
X144214251Y-104702525D01*
X143746037Y-105170737D01*
X143808828Y-105222267D01*
X143808834Y-105222271D01*
X143991233Y-105319766D01*
X144189165Y-105379808D01*
X144395000Y-105400080D01*
X144600834Y-105379808D01*
X144798766Y-105319766D01*
X144981166Y-105222271D01*
X144981173Y-105222267D01*
X145043960Y-105170738D01*
X145043961Y-105170737D01*
X144575749Y-104702525D01*
X144640606Y-104665080D01*
X144715080Y-104590606D01*
X144752525Y-104525748D01*
X145220737Y-104993961D01*
X145220738Y-104993960D01*
X145272267Y-104931173D01*
X145272271Y-104931166D01*
X145369766Y-104748766D01*
X145429808Y-104550834D01*
X145450080Y-104345000D01*
X145429808Y-104139165D01*
X145369766Y-103941233D01*
X145272271Y-103758834D01*
X145272267Y-103758828D01*
X145220737Y-103696037D01*
X144752524Y-104164250D01*
X144715080Y-104099394D01*
X144640606Y-104024920D01*
X144575748Y-103987474D01*
X145046377Y-103516845D01*
X145060642Y-103457661D01*
X145111137Y-103409370D01*
X145168122Y-103395500D01*
X145219676Y-103395500D01*
X145219677Y-103395499D01*
X145292740Y-103380966D01*
X145375601Y-103325601D01*
X145430966Y-103242740D01*
X145445500Y-103169674D01*
X145445500Y-101520326D01*
X145445500Y-101520323D01*
X145445499Y-101520321D01*
X145430967Y-101447264D01*
X145430966Y-101447260D01*
X145400252Y-101401293D01*
X145382684Y-101375000D01*
X149865640Y-101375000D01*
X149885034Y-101571914D01*
X149942474Y-101761269D01*
X150035744Y-101935764D01*
X150035748Y-101935771D01*
X150161274Y-102088725D01*
X150314228Y-102214251D01*
X150314235Y-102214255D01*
X150488730Y-102307525D01*
X150488732Y-102307525D01*
X150488735Y-102307527D01*
X150678084Y-102364965D01*
X150678083Y-102364965D01*
X150695739Y-102366703D01*
X150875000Y-102384360D01*
X151071916Y-102364965D01*
X151261265Y-102307527D01*
X151435770Y-102214252D01*
X151588725Y-102088725D01*
X151714252Y-101935770D01*
X151807527Y-101761265D01*
X151864965Y-101571916D01*
X151884360Y-101375000D01*
X151864965Y-101178084D01*
X151807527Y-100988735D01*
X151807525Y-100988732D01*
X151807525Y-100988730D01*
X151714255Y-100814235D01*
X151714251Y-100814228D01*
X151588725Y-100661274D01*
X151435771Y-100535748D01*
X151435764Y-100535744D01*
X151261269Y-100442474D01*
X151117821Y-100398960D01*
X151071916Y-100385035D01*
X151071914Y-100385034D01*
X151071916Y-100385034D01*
X150875000Y-100365640D01*
X150678085Y-100385034D01*
X150488730Y-100442474D01*
X150314235Y-100535744D01*
X150314228Y-100535748D01*
X150161274Y-100661274D01*
X150035748Y-100814228D01*
X150035744Y-100814235D01*
X149942474Y-100988730D01*
X149885034Y-101178085D01*
X149865640Y-101375000D01*
X145382684Y-101375000D01*
X145375601Y-101364399D01*
X145292740Y-101309034D01*
X145292739Y-101309033D01*
X145292735Y-101309032D01*
X145219677Y-101294500D01*
X145219674Y-101294500D01*
X143570326Y-101294500D01*
X143570323Y-101294500D01*
X143497264Y-101309032D01*
X143497260Y-101309033D01*
X143414399Y-101364399D01*
X143359033Y-101447260D01*
X143359032Y-101447264D01*
X143344500Y-101520321D01*
X143344500Y-101795612D01*
X143324815Y-101862651D01*
X143272011Y-101908406D01*
X143220500Y-101919612D01*
X140523675Y-101919612D01*
X140456636Y-101899927D01*
X140435994Y-101883293D01*
X138791819Y-100239117D01*
X138758334Y-100177794D01*
X138755500Y-100151436D01*
X138755500Y-99750000D01*
X139104919Y-99750000D01*
X139125191Y-99955834D01*
X139185233Y-100153766D01*
X139282728Y-100336165D01*
X139282732Y-100336171D01*
X139334261Y-100398960D01*
X139334262Y-100398960D01*
X139802474Y-99930748D01*
X139839920Y-99995606D01*
X139914394Y-100070080D01*
X139979251Y-100107525D01*
X139511037Y-100575737D01*
X139573828Y-100627267D01*
X139573834Y-100627271D01*
X139756233Y-100724766D01*
X139954165Y-100784808D01*
X140160000Y-100805080D01*
X140365834Y-100784808D01*
X140563766Y-100724766D01*
X140746166Y-100627271D01*
X140746173Y-100627267D01*
X140808960Y-100575738D01*
X140808961Y-100575737D01*
X140340749Y-100107525D01*
X140405606Y-100070080D01*
X140480080Y-99995606D01*
X140517525Y-99930748D01*
X140985737Y-100398961D01*
X140985738Y-100398960D01*
X141037267Y-100336173D01*
X141037271Y-100336166D01*
X141134766Y-100153766D01*
X141194808Y-99955834D01*
X141215080Y-99750000D01*
X141194808Y-99544165D01*
X141134766Y-99346233D01*
X141037271Y-99163834D01*
X141037267Y-99163828D01*
X140985737Y-99101037D01*
X140517524Y-99569250D01*
X140480080Y-99504394D01*
X140405606Y-99429920D01*
X140340748Y-99392474D01*
X140811377Y-98921845D01*
X140825642Y-98862661D01*
X140854565Y-98835000D01*
X149865640Y-98835000D01*
X149885034Y-99031914D01*
X149942474Y-99221269D01*
X150035744Y-99395764D01*
X150035748Y-99395771D01*
X150161274Y-99548725D01*
X150314228Y-99674251D01*
X150314235Y-99674255D01*
X150488730Y-99767525D01*
X150488732Y-99767525D01*
X150488735Y-99767527D01*
X150678084Y-99824965D01*
X150678083Y-99824965D01*
X150695739Y-99826703D01*
X150875000Y-99844360D01*
X151071916Y-99824965D01*
X151261265Y-99767527D01*
X151317891Y-99737260D01*
X151435764Y-99674255D01*
X151435770Y-99674252D01*
X151588725Y-99548725D01*
X151714252Y-99395770D01*
X151807527Y-99221265D01*
X151864965Y-99031916D01*
X151884360Y-98835000D01*
X151864965Y-98638084D01*
X151807527Y-98448735D01*
X151807525Y-98448732D01*
X151807525Y-98448730D01*
X151714255Y-98274235D01*
X151714251Y-98274228D01*
X151588725Y-98121274D01*
X151435771Y-97995748D01*
X151435764Y-97995744D01*
X151261269Y-97902474D01*
X151166590Y-97873754D01*
X151071916Y-97845035D01*
X151071914Y-97845034D01*
X151071916Y-97845034D01*
X150875000Y-97825640D01*
X150678085Y-97845034D01*
X150488730Y-97902474D01*
X150314235Y-97995744D01*
X150314228Y-97995748D01*
X150161274Y-98121274D01*
X150035748Y-98274228D01*
X150035744Y-98274235D01*
X149942474Y-98448730D01*
X149885034Y-98638085D01*
X149865640Y-98835000D01*
X140854565Y-98835000D01*
X140876137Y-98814370D01*
X140933122Y-98800500D01*
X140984676Y-98800500D01*
X140984677Y-98800499D01*
X141057740Y-98785966D01*
X141140601Y-98730601D01*
X141195966Y-98647740D01*
X141210500Y-98574674D01*
X141210500Y-98374500D01*
X141230185Y-98307461D01*
X141282989Y-98261706D01*
X141334500Y-98250500D01*
X144535890Y-98250500D01*
X144535892Y-98250500D01*
X144663186Y-98216392D01*
X144777314Y-98150500D01*
X144858681Y-98069131D01*
X144898908Y-98042252D01*
X144962625Y-98015861D01*
X145077621Y-97927621D01*
X145165861Y-97812625D01*
X145221330Y-97678709D01*
X145240250Y-97535000D01*
X145221330Y-97391291D01*
X145165861Y-97257375D01*
X145077621Y-97142379D01*
X144962625Y-97054139D01*
X144962624Y-97054138D01*
X144962622Y-97054137D01*
X144828712Y-96998671D01*
X144828710Y-96998670D01*
X144828709Y-96998670D01*
X144756854Y-96989210D01*
X144685001Y-96979750D01*
X144684999Y-96979750D01*
X144541291Y-96998670D01*
X144541287Y-96998671D01*
X144407377Y-97054137D01*
X144354652Y-97094595D01*
X144292379Y-97142379D01*
X144292378Y-97142380D01*
X144292377Y-97142381D01*
X144247407Y-97200987D01*
X144190979Y-97242189D01*
X144149032Y-97249500D01*
X141334500Y-97249500D01*
X141267461Y-97229815D01*
X141221706Y-97177011D01*
X141210500Y-97125500D01*
X141210500Y-96925323D01*
X141210499Y-96925321D01*
X141195967Y-96852264D01*
X141195966Y-96852260D01*
X141179545Y-96827684D01*
X141140601Y-96769399D01*
X141057740Y-96714034D01*
X141057739Y-96714033D01*
X141057735Y-96714032D01*
X140984677Y-96699500D01*
X140984674Y-96699500D01*
X140824500Y-96699500D01*
X140757461Y-96679815D01*
X140711706Y-96627011D01*
X140700500Y-96575500D01*
X140700500Y-96295000D01*
X149865640Y-96295000D01*
X149885034Y-96491914D01*
X149942474Y-96681269D01*
X150035744Y-96855764D01*
X150035748Y-96855771D01*
X150161274Y-97008725D01*
X150314228Y-97134251D01*
X150314235Y-97134255D01*
X150488730Y-97227525D01*
X150488732Y-97227525D01*
X150488735Y-97227527D01*
X150678084Y-97284965D01*
X150678083Y-97284965D01*
X150695739Y-97286703D01*
X150875000Y-97304360D01*
X151071916Y-97284965D01*
X151261265Y-97227527D01*
X151435770Y-97134252D01*
X151588725Y-97008725D01*
X151714252Y-96855770D01*
X151807527Y-96681265D01*
X151864965Y-96491916D01*
X151884360Y-96295000D01*
X151864965Y-96098084D01*
X151807527Y-95908735D01*
X151807525Y-95908732D01*
X151807525Y-95908730D01*
X151714255Y-95734235D01*
X151714251Y-95734228D01*
X151588725Y-95581274D01*
X151435771Y-95455748D01*
X151435764Y-95455744D01*
X151261269Y-95362474D01*
X151075832Y-95306223D01*
X151071916Y-95305035D01*
X151071914Y-95305034D01*
X151071916Y-95305034D01*
X150875000Y-95285640D01*
X150678085Y-95305034D01*
X150488730Y-95362474D01*
X150314235Y-95455744D01*
X150314228Y-95455748D01*
X150161274Y-95581274D01*
X150035748Y-95734228D01*
X150035744Y-95734235D01*
X149942474Y-95908730D01*
X149885034Y-96098085D01*
X149865640Y-96295000D01*
X140700500Y-96295000D01*
X140700500Y-95299875D01*
X140709939Y-95252422D01*
X140736330Y-95188709D01*
X140755250Y-95045000D01*
X140736330Y-94901291D01*
X140680861Y-94767375D01*
X140592621Y-94652379D01*
X140477625Y-94564139D01*
X140477624Y-94564138D01*
X140477622Y-94564137D01*
X140343712Y-94508671D01*
X140343710Y-94508670D01*
X140343709Y-94508670D01*
X140271854Y-94499210D01*
X140200001Y-94489750D01*
X140199999Y-94489750D01*
X140056291Y-94508670D01*
X140056287Y-94508671D01*
X139922377Y-94564137D01*
X139807379Y-94652379D01*
X139719137Y-94767377D01*
X139663671Y-94901287D01*
X139663670Y-94901291D01*
X139644750Y-95045000D01*
X139663670Y-95188709D01*
X139674203Y-95214139D01*
X139690061Y-95252422D01*
X139699500Y-95299875D01*
X139699500Y-96575500D01*
X139679815Y-96642539D01*
X139627011Y-96688294D01*
X139575500Y-96699500D01*
X139335323Y-96699500D01*
X139262264Y-96714032D01*
X139262260Y-96714033D01*
X139179399Y-96769399D01*
X139124033Y-96852260D01*
X139124032Y-96852264D01*
X139109500Y-96925321D01*
X139109500Y-98574678D01*
X139124032Y-98647735D01*
X139124033Y-98647739D01*
X139124034Y-98647740D01*
X139179399Y-98730601D01*
X139262260Y-98785966D01*
X139262264Y-98785967D01*
X139335321Y-98800499D01*
X139335324Y-98800500D01*
X139386877Y-98800500D01*
X139453916Y-98820185D01*
X139499671Y-98872989D01*
X139509151Y-98922374D01*
X139979251Y-99392474D01*
X139914394Y-99429920D01*
X139839920Y-99504394D01*
X139802474Y-99569251D01*
X139334261Y-99101038D01*
X139334260Y-99101038D01*
X139282731Y-99163827D01*
X139185233Y-99346233D01*
X139125191Y-99544165D01*
X139104919Y-99750000D01*
X138755500Y-99750000D01*
X138755500Y-93866080D01*
X138775185Y-93799041D01*
X138776975Y-93797489D01*
X138755816Y-93740758D01*
X138755500Y-93731912D01*
X138755500Y-93729085D01*
X138775185Y-93662046D01*
X138791819Y-93641404D01*
X139244270Y-93188952D01*
X139274901Y-93242007D01*
X139367993Y-93335099D01*
X139421045Y-93365729D01*
X138988824Y-93797949D01*
X139009261Y-93816578D01*
X139182585Y-93923897D01*
X139372678Y-93997539D01*
X139573072Y-94035000D01*
X139776928Y-94035000D01*
X139977321Y-93997539D01*
X140167415Y-93923897D01*
X140340736Y-93816580D01*
X140361174Y-93797949D01*
X139928954Y-93365729D01*
X139982007Y-93335099D01*
X140075099Y-93242007D01*
X140105729Y-93188954D01*
X140536406Y-93619631D01*
X140614245Y-93516556D01*
X140705113Y-93334069D01*
X140705116Y-93334063D01*
X140760902Y-93137992D01*
X140760903Y-93137989D01*
X140779713Y-92935000D01*
X140779713Y-92934999D01*
X145070287Y-92934999D01*
X145070287Y-92935000D01*
X145089096Y-93137989D01*
X145089097Y-93137992D01*
X145144883Y-93334063D01*
X145144886Y-93334069D01*
X145235750Y-93516549D01*
X145235754Y-93516556D01*
X145313592Y-93619631D01*
X145744270Y-93188953D01*
X145774901Y-93242007D01*
X145867993Y-93335099D01*
X145921046Y-93365729D01*
X145488825Y-93797949D01*
X145509264Y-93816580D01*
X145682585Y-93923897D01*
X145872678Y-93997539D01*
X146073072Y-94035000D01*
X146276928Y-94035000D01*
X146477321Y-93997539D01*
X146667415Y-93923897D01*
X146840736Y-93816580D01*
X146861174Y-93797949D01*
X146818225Y-93755000D01*
X149865640Y-93755000D01*
X149885034Y-93951914D01*
X149942474Y-94141269D01*
X150035744Y-94315764D01*
X150035748Y-94315771D01*
X150161274Y-94468725D01*
X150314228Y-94594251D01*
X150314235Y-94594255D01*
X150488730Y-94687525D01*
X150488732Y-94687525D01*
X150488735Y-94687527D01*
X150678084Y-94744965D01*
X150678083Y-94744965D01*
X150695739Y-94746703D01*
X150875000Y-94764360D01*
X151071916Y-94744965D01*
X151261265Y-94687527D01*
X151435770Y-94594252D01*
X151588725Y-94468725D01*
X151714252Y-94315770D01*
X151803828Y-94148186D01*
X151807525Y-94141269D01*
X151807525Y-94141268D01*
X151807527Y-94141265D01*
X151864965Y-93951916D01*
X151884360Y-93755000D01*
X151864965Y-93558084D01*
X151807527Y-93368735D01*
X151807525Y-93368732D01*
X151807525Y-93368730D01*
X151714255Y-93194235D01*
X151714251Y-93194228D01*
X151624609Y-93084999D01*
X153280287Y-93084999D01*
X153280287Y-93085000D01*
X153299096Y-93287989D01*
X153299097Y-93287992D01*
X153354883Y-93484063D01*
X153354886Y-93484069D01*
X153445750Y-93666549D01*
X153445754Y-93666556D01*
X153523592Y-93769631D01*
X153954270Y-93338953D01*
X153984901Y-93392007D01*
X154077993Y-93485099D01*
X154131046Y-93515729D01*
X153698825Y-93947949D01*
X153719264Y-93966580D01*
X153892585Y-94073897D01*
X154082678Y-94147539D01*
X154283072Y-94185000D01*
X154486928Y-94185000D01*
X154687321Y-94147539D01*
X154877415Y-94073897D01*
X155050736Y-93966580D01*
X155071174Y-93947949D01*
X154638954Y-93515729D01*
X154692007Y-93485099D01*
X154785099Y-93392007D01*
X154815729Y-93338954D01*
X155246406Y-93769631D01*
X155324245Y-93666556D01*
X155415113Y-93484069D01*
X155415116Y-93484063D01*
X155470902Y-93287992D01*
X155470903Y-93287989D01*
X155489713Y-93085000D01*
X155489713Y-93084999D01*
X159780287Y-93084999D01*
X159780287Y-93085000D01*
X159799096Y-93287989D01*
X159799097Y-93287992D01*
X159854883Y-93484063D01*
X159854886Y-93484069D01*
X159945750Y-93666549D01*
X159945754Y-93666556D01*
X160023592Y-93769631D01*
X160454270Y-93338953D01*
X160484901Y-93392007D01*
X160577993Y-93485099D01*
X160631046Y-93515729D01*
X160198825Y-93947949D01*
X160219264Y-93966580D01*
X160392585Y-94073897D01*
X160582678Y-94147539D01*
X160783072Y-94185000D01*
X160986928Y-94185000D01*
X161187321Y-94147539D01*
X161377415Y-94073897D01*
X161550736Y-93966580D01*
X161571174Y-93947949D01*
X161138954Y-93515729D01*
X161192007Y-93485099D01*
X161285099Y-93392007D01*
X161315729Y-93338954D01*
X161746406Y-93769631D01*
X161824245Y-93666556D01*
X161915113Y-93484069D01*
X161915116Y-93484063D01*
X161970902Y-93287992D01*
X161970903Y-93287989D01*
X161989713Y-93085000D01*
X161989713Y-93084999D01*
X161970903Y-92882010D01*
X161970902Y-92882007D01*
X161915116Y-92685936D01*
X161915113Y-92685930D01*
X161824244Y-92503440D01*
X161746407Y-92400367D01*
X161746406Y-92400367D01*
X161315728Y-92831045D01*
X161285099Y-92777993D01*
X161192007Y-92684901D01*
X161138953Y-92654270D01*
X161571174Y-92222049D01*
X161571173Y-92222048D01*
X161550742Y-92203423D01*
X161377414Y-92096102D01*
X161187321Y-92022460D01*
X160986928Y-91985000D01*
X160783072Y-91985000D01*
X160582678Y-92022460D01*
X160392584Y-92096102D01*
X160219264Y-92203417D01*
X160219262Y-92203419D01*
X160198825Y-92222048D01*
X160198825Y-92222049D01*
X160631046Y-92654270D01*
X160577993Y-92684901D01*
X160484901Y-92777993D01*
X160454270Y-92831046D01*
X160023592Y-92400367D01*
X159945755Y-92503443D01*
X159945750Y-92503450D01*
X159854886Y-92685930D01*
X159854883Y-92685936D01*
X159799097Y-92882007D01*
X159799096Y-92882010D01*
X159780287Y-93084999D01*
X155489713Y-93084999D01*
X155470903Y-92882010D01*
X155470902Y-92882007D01*
X155415116Y-92685936D01*
X155415113Y-92685930D01*
X155324244Y-92503440D01*
X155246407Y-92400367D01*
X155246406Y-92400367D01*
X154815728Y-92831045D01*
X154785099Y-92777993D01*
X154692007Y-92684901D01*
X154638953Y-92654270D01*
X155071174Y-92222049D01*
X155071173Y-92222048D01*
X155050742Y-92203423D01*
X154877414Y-92096102D01*
X154687321Y-92022460D01*
X154486928Y-91985000D01*
X154283072Y-91985000D01*
X154082678Y-92022460D01*
X153892584Y-92096102D01*
X153719264Y-92203417D01*
X153719262Y-92203419D01*
X153698825Y-92222048D01*
X153698825Y-92222049D01*
X154131046Y-92654270D01*
X154077993Y-92684901D01*
X153984901Y-92777993D01*
X153954270Y-92831046D01*
X153523592Y-92400367D01*
X153445755Y-92503443D01*
X153445750Y-92503450D01*
X153354886Y-92685930D01*
X153354883Y-92685936D01*
X153299097Y-92882007D01*
X153299096Y-92882010D01*
X153280287Y-93084999D01*
X151624609Y-93084999D01*
X151588725Y-93041274D01*
X151435771Y-92915748D01*
X151435764Y-92915744D01*
X151261269Y-92822474D01*
X151075832Y-92766223D01*
X151071916Y-92765035D01*
X151071914Y-92765034D01*
X151071916Y-92765034D01*
X150875000Y-92745640D01*
X150678085Y-92765034D01*
X150488730Y-92822474D01*
X150314235Y-92915744D01*
X150314228Y-92915748D01*
X150161274Y-93041274D01*
X150035748Y-93194228D01*
X150035744Y-93194235D01*
X149942474Y-93368730D01*
X149885034Y-93558085D01*
X149865640Y-93755000D01*
X146818225Y-93755000D01*
X146428954Y-93365729D01*
X146482007Y-93335099D01*
X146575099Y-93242007D01*
X146605729Y-93188953D01*
X147036406Y-93619631D01*
X147114245Y-93516556D01*
X147205113Y-93334069D01*
X147205116Y-93334063D01*
X147260902Y-93137992D01*
X147260903Y-93137989D01*
X147279713Y-92935000D01*
X147279713Y-92934999D01*
X147260903Y-92732010D01*
X147260902Y-92732007D01*
X147205116Y-92535936D01*
X147205113Y-92535930D01*
X147114244Y-92353440D01*
X147036407Y-92250367D01*
X147036406Y-92250367D01*
X146605728Y-92681045D01*
X146575099Y-92627993D01*
X146482007Y-92534901D01*
X146428953Y-92504270D01*
X146861174Y-92072049D01*
X146861173Y-92072048D01*
X146840742Y-92053423D01*
X146667414Y-91946102D01*
X146477321Y-91872460D01*
X146276928Y-91835000D01*
X146073072Y-91835000D01*
X145872678Y-91872460D01*
X145682584Y-91946102D01*
X145509264Y-92053417D01*
X145509262Y-92053419D01*
X145488825Y-92072048D01*
X145488825Y-92072049D01*
X145921046Y-92504270D01*
X145867993Y-92534901D01*
X145774901Y-92627993D01*
X145744270Y-92681046D01*
X145313592Y-92250367D01*
X145235755Y-92353443D01*
X145235750Y-92353450D01*
X145144886Y-92535930D01*
X145144883Y-92535936D01*
X145089097Y-92732007D01*
X145089096Y-92732010D01*
X145070287Y-92934999D01*
X140779713Y-92934999D01*
X140760903Y-92732010D01*
X140760902Y-92732007D01*
X140705116Y-92535936D01*
X140705113Y-92535930D01*
X140614244Y-92353440D01*
X140536407Y-92250367D01*
X140536406Y-92250367D01*
X140105728Y-92681045D01*
X140075099Y-92627993D01*
X139982007Y-92534901D01*
X139928953Y-92504270D01*
X140361174Y-92072049D01*
X140361173Y-92072048D01*
X140340742Y-92053423D01*
X140167414Y-91946102D01*
X139977321Y-91872460D01*
X139776928Y-91835000D01*
X139573072Y-91835000D01*
X139372678Y-91872460D01*
X139182584Y-91946102D01*
X139009264Y-92053417D01*
X139009262Y-92053419D01*
X138988825Y-92072048D01*
X139421047Y-92504270D01*
X139367993Y-92534901D01*
X139274901Y-92627993D01*
X139244270Y-92681046D01*
X138791819Y-92228594D01*
X138758334Y-92167271D01*
X138755500Y-92140913D01*
X138755500Y-92138085D01*
X138775185Y-92071046D01*
X138775897Y-92070428D01*
X138755539Y-92007035D01*
X138755500Y-92003917D01*
X138755500Y-91215000D01*
X149865640Y-91215000D01*
X149885034Y-91411914D01*
X149942474Y-91601269D01*
X150035744Y-91775764D01*
X150035748Y-91775771D01*
X150161274Y-91928725D01*
X150314228Y-92054251D01*
X150314235Y-92054255D01*
X150488730Y-92147525D01*
X150488732Y-92147525D01*
X150488735Y-92147527D01*
X150678084Y-92204965D01*
X150678083Y-92204965D01*
X150695739Y-92206703D01*
X150875000Y-92224360D01*
X151071916Y-92204965D01*
X151261265Y-92147527D01*
X151435770Y-92054252D01*
X151588725Y-91928725D01*
X151714252Y-91775770D01*
X151807527Y-91601265D01*
X151864965Y-91411916D01*
X151884360Y-91215000D01*
X151864965Y-91018084D01*
X151807527Y-90828735D01*
X151807525Y-90828732D01*
X151807525Y-90828730D01*
X151714255Y-90654235D01*
X151714251Y-90654228D01*
X151588725Y-90501274D01*
X151435771Y-90375748D01*
X151435764Y-90375744D01*
X151261269Y-90282474D01*
X151075832Y-90226223D01*
X151071916Y-90225035D01*
X151071914Y-90225034D01*
X151071916Y-90225034D01*
X150875000Y-90205640D01*
X150678085Y-90225034D01*
X150488730Y-90282474D01*
X150314235Y-90375744D01*
X150314228Y-90375748D01*
X150161274Y-90501274D01*
X150035748Y-90654228D01*
X150035744Y-90654235D01*
X149942474Y-90828730D01*
X149885034Y-91018085D01*
X149865640Y-91215000D01*
X138755500Y-91215000D01*
X138755500Y-89659500D01*
X138775185Y-89592461D01*
X138827989Y-89546706D01*
X138879500Y-89535500D01*
X140549676Y-89535500D01*
X140549677Y-89535499D01*
X140622740Y-89520966D01*
X140705601Y-89465601D01*
X140760966Y-89382740D01*
X140775500Y-89309674D01*
X140775500Y-89059500D01*
X140795185Y-88992461D01*
X140847989Y-88946706D01*
X140899500Y-88935500D01*
X145118056Y-88935500D01*
X145185095Y-88955185D01*
X145229055Y-89004226D01*
X145235326Y-89016821D01*
X145358237Y-89179581D01*
X145508958Y-89316980D01*
X145508960Y-89316982D01*
X145571168Y-89355499D01*
X145682363Y-89424348D01*
X145872544Y-89498024D01*
X146073024Y-89535500D01*
X146073026Y-89535500D01*
X146276974Y-89535500D01*
X146276976Y-89535500D01*
X146477456Y-89498024D01*
X146667637Y-89424348D01*
X146841041Y-89316981D01*
X146991764Y-89179579D01*
X147114673Y-89016821D01*
X147205582Y-88834250D01*
X147250893Y-88675000D01*
X149865640Y-88675000D01*
X149885034Y-88871914D01*
X149942474Y-89061269D01*
X150035744Y-89235764D01*
X150035748Y-89235771D01*
X150161274Y-89388725D01*
X150314228Y-89514251D01*
X150314235Y-89514255D01*
X150488730Y-89607525D01*
X150488732Y-89607525D01*
X150488735Y-89607527D01*
X150678084Y-89664965D01*
X150678083Y-89664965D01*
X150695739Y-89666703D01*
X150875000Y-89684360D01*
X151071916Y-89664965D01*
X151261265Y-89607527D01*
X151289452Y-89592461D01*
X151396018Y-89535500D01*
X151435770Y-89514252D01*
X151588725Y-89388725D01*
X151714252Y-89235770D01*
X151807527Y-89061265D01*
X151864965Y-88871916D01*
X151884360Y-88675000D01*
X151864965Y-88478084D01*
X151807527Y-88288735D01*
X151807525Y-88288732D01*
X151807525Y-88288730D01*
X151714255Y-88114235D01*
X151714251Y-88114228D01*
X151588725Y-87961274D01*
X151435771Y-87835748D01*
X151435764Y-87835744D01*
X151261269Y-87742474D01*
X151155273Y-87710321D01*
X153284500Y-87710321D01*
X153284500Y-89459678D01*
X153299032Y-89532735D01*
X153299033Y-89532739D01*
X153317405Y-89560235D01*
X153354399Y-89615601D01*
X153420100Y-89659500D01*
X153437260Y-89670966D01*
X153437264Y-89670967D01*
X153510321Y-89685499D01*
X153510324Y-89685500D01*
X153510326Y-89685500D01*
X155259676Y-89685500D01*
X155259677Y-89685499D01*
X155332740Y-89670966D01*
X155415601Y-89615601D01*
X155470966Y-89532740D01*
X155485500Y-89459674D01*
X155485500Y-89209500D01*
X155505185Y-89142461D01*
X155557989Y-89096706D01*
X155609500Y-89085500D01*
X159828056Y-89085500D01*
X159895095Y-89105185D01*
X159939055Y-89154226D01*
X159945326Y-89166821D01*
X160068237Y-89329581D01*
X160218958Y-89466980D01*
X160218960Y-89466982D01*
X160315220Y-89526583D01*
X160392363Y-89574348D01*
X160582544Y-89648024D01*
X160783024Y-89685500D01*
X160783026Y-89685500D01*
X160986974Y-89685500D01*
X160986976Y-89685500D01*
X161187456Y-89648024D01*
X161377637Y-89574348D01*
X161551041Y-89466981D01*
X161701764Y-89329579D01*
X161824673Y-89166821D01*
X161915582Y-88984250D01*
X161971397Y-88788083D01*
X161990215Y-88585000D01*
X161978454Y-88458081D01*
X161971397Y-88381917D01*
X161944884Y-88288735D01*
X161915582Y-88185750D01*
X161879969Y-88114230D01*
X161835413Y-88024748D01*
X161824673Y-88003179D01*
X161718068Y-87862011D01*
X161701762Y-87840418D01*
X161551041Y-87703019D01*
X161551039Y-87703017D01*
X161377642Y-87595655D01*
X161377635Y-87595651D01*
X161267583Y-87553017D01*
X161187456Y-87521976D01*
X160986976Y-87484500D01*
X160783024Y-87484500D01*
X160582544Y-87521976D01*
X160582541Y-87521976D01*
X160582541Y-87521977D01*
X160392364Y-87595651D01*
X160392357Y-87595655D01*
X160218960Y-87703017D01*
X160218958Y-87703019D01*
X160068237Y-87840418D01*
X159945326Y-88003178D01*
X159939055Y-88015774D01*
X159891551Y-88067010D01*
X159828056Y-88084500D01*
X155609500Y-88084500D01*
X155542461Y-88064815D01*
X155496706Y-88012011D01*
X155485500Y-87960500D01*
X155485500Y-87710323D01*
X155485499Y-87710321D01*
X155470967Y-87637264D01*
X155470966Y-87637260D01*
X155466449Y-87630500D01*
X155415601Y-87554399D01*
X155332740Y-87499034D01*
X155332739Y-87499033D01*
X155332735Y-87499032D01*
X155259677Y-87484500D01*
X155259674Y-87484500D01*
X153510326Y-87484500D01*
X153510323Y-87484500D01*
X153437264Y-87499032D01*
X153437260Y-87499033D01*
X153354399Y-87554399D01*
X153299033Y-87637260D01*
X153299032Y-87637264D01*
X153284500Y-87710321D01*
X151155273Y-87710321D01*
X151071916Y-87685035D01*
X151071914Y-87685034D01*
X151071916Y-87685034D01*
X150875000Y-87665640D01*
X150678085Y-87685034D01*
X150488730Y-87742474D01*
X150314235Y-87835744D01*
X150314228Y-87835748D01*
X150161274Y-87961274D01*
X150035748Y-88114228D01*
X150035744Y-88114235D01*
X149942474Y-88288730D01*
X149885034Y-88478085D01*
X149865640Y-88675000D01*
X147250893Y-88675000D01*
X147261397Y-88638083D01*
X147280215Y-88435000D01*
X147271846Y-88344687D01*
X147261397Y-88231917D01*
X147227913Y-88114235D01*
X147205582Y-88035750D01*
X147195635Y-88015774D01*
X147138988Y-87902010D01*
X147114673Y-87853179D01*
X146991764Y-87690421D01*
X146991762Y-87690418D01*
X146841041Y-87553019D01*
X146841039Y-87553017D01*
X146667642Y-87445655D01*
X146667635Y-87445651D01*
X146480143Y-87373017D01*
X146477456Y-87371976D01*
X146276976Y-87334500D01*
X146073024Y-87334500D01*
X145872544Y-87371976D01*
X145872541Y-87371976D01*
X145872541Y-87371977D01*
X145682364Y-87445651D01*
X145682357Y-87445655D01*
X145508960Y-87553017D01*
X145508958Y-87553019D01*
X145358237Y-87690418D01*
X145235326Y-87853178D01*
X145229055Y-87865774D01*
X145181551Y-87917010D01*
X145118056Y-87934500D01*
X140899500Y-87934500D01*
X140832461Y-87914815D01*
X140786706Y-87862011D01*
X140775500Y-87810500D01*
X140775500Y-87560323D01*
X140775499Y-87560321D01*
X140760967Y-87487264D01*
X140760966Y-87487260D01*
X140759122Y-87484500D01*
X140705601Y-87404399D01*
X140622740Y-87349034D01*
X140622739Y-87349033D01*
X140622735Y-87349032D01*
X140549677Y-87334500D01*
X140549674Y-87334500D01*
X138879500Y-87334500D01*
X138812461Y-87314815D01*
X138766706Y-87262011D01*
X138755500Y-87210500D01*
X138755500Y-83019110D01*
X138755500Y-83019108D01*
X138721392Y-82891814D01*
X138655500Y-82777686D01*
X138562314Y-82684500D01*
X138562313Y-82684499D01*
X138557983Y-82680169D01*
X138557972Y-82680159D01*
X137842808Y-81964995D01*
X152039592Y-81964995D01*
X152039592Y-81965004D01*
X152059196Y-82226620D01*
X152059197Y-82226625D01*
X152117576Y-82482402D01*
X152117578Y-82482411D01*
X152117580Y-82482416D01*
X152213432Y-82726643D01*
X152344614Y-82953857D01*
X152396650Y-83019108D01*
X152508198Y-83158985D01*
X152627264Y-83269461D01*
X152700521Y-83337433D01*
X152917296Y-83485228D01*
X152917301Y-83485230D01*
X152917302Y-83485231D01*
X152917303Y-83485232D01*
X153042843Y-83545688D01*
X153153673Y-83599061D01*
X153153674Y-83599061D01*
X153153677Y-83599063D01*
X153404385Y-83676396D01*
X153663818Y-83715500D01*
X153926182Y-83715500D01*
X154185615Y-83676396D01*
X154436323Y-83599063D01*
X154672704Y-83485228D01*
X154889479Y-83337433D01*
X155056159Y-83182777D01*
X155081801Y-83158985D01*
X155081801Y-83158983D01*
X155081805Y-83158981D01*
X155245386Y-82953857D01*
X155376568Y-82726643D01*
X155472420Y-82482416D01*
X155530802Y-82226630D01*
X155550408Y-81965000D01*
X155530802Y-81703370D01*
X155472420Y-81447584D01*
X155376568Y-81203357D01*
X155245386Y-80976143D01*
X155081805Y-80771019D01*
X155081804Y-80771018D01*
X155081801Y-80771014D01*
X154889479Y-80592567D01*
X154672704Y-80444772D01*
X154672700Y-80444770D01*
X154672697Y-80444768D01*
X154672696Y-80444767D01*
X154436325Y-80330938D01*
X154436327Y-80330938D01*
X154185623Y-80253606D01*
X154185619Y-80253605D01*
X154185615Y-80253604D01*
X154060823Y-80234794D01*
X153926187Y-80214500D01*
X153926182Y-80214500D01*
X153663818Y-80214500D01*
X153663812Y-80214500D01*
X153502247Y-80238853D01*
X153404385Y-80253604D01*
X153404382Y-80253605D01*
X153404376Y-80253606D01*
X153153673Y-80330938D01*
X152917303Y-80444767D01*
X152917302Y-80444768D01*
X152700520Y-80592567D01*
X152508198Y-80771014D01*
X152344614Y-80976143D01*
X152213432Y-81203356D01*
X152117582Y-81447578D01*
X152117576Y-81447597D01*
X152059197Y-81703374D01*
X152059196Y-81703379D01*
X152039592Y-81964995D01*
X137842808Y-81964995D01*
X136191819Y-80314005D01*
X136158334Y-80252682D01*
X136155500Y-80226324D01*
X136155500Y-79509575D01*
X136175185Y-79442536D01*
X136227989Y-79396781D01*
X136297147Y-79386837D01*
X136360703Y-79415862D01*
X136375354Y-79430912D01*
X136408587Y-79471408D01*
X136455094Y-79509575D01*
X136568550Y-79602685D01*
X136751046Y-79700232D01*
X136949066Y-79760300D01*
X136949065Y-79760300D01*
X136967529Y-79762118D01*
X137155000Y-79780583D01*
X137360934Y-79760300D01*
X137558954Y-79700232D01*
X137741450Y-79602685D01*
X137901410Y-79471410D01*
X138032685Y-79311450D01*
X138130232Y-79128954D01*
X138190300Y-78930934D01*
X138210583Y-78725000D01*
X138190300Y-78519066D01*
X138130232Y-78321046D01*
X138032685Y-78138550D01*
X137934646Y-78019088D01*
X137901410Y-77978589D01*
X137780539Y-77879394D01*
X137741450Y-77847315D01*
X137558954Y-77749768D01*
X137360934Y-77689700D01*
X137360932Y-77689699D01*
X137360934Y-77689699D01*
X137155000Y-77669417D01*
X136949067Y-77689699D01*
X136751043Y-77749769D01*
X136700559Y-77776754D01*
X136568550Y-77847315D01*
X136568548Y-77847316D01*
X136568547Y-77847317D01*
X136408589Y-77978589D01*
X136375354Y-78019088D01*
X136317608Y-78058423D01*
X136247763Y-78060294D01*
X136187995Y-78024107D01*
X136157279Y-77961351D01*
X136155500Y-77940424D01*
X136155500Y-76423946D01*
X136175185Y-76356907D01*
X136227989Y-76311152D01*
X136297147Y-76301208D01*
X136360703Y-76330233D01*
X136375354Y-76345282D01*
X136388589Y-76361410D01*
X136464791Y-76423946D01*
X136548550Y-76492685D01*
X136731046Y-76590232D01*
X136929066Y-76650300D01*
X136929065Y-76650300D01*
X136947529Y-76652118D01*
X137135000Y-76670583D01*
X137340934Y-76650300D01*
X137538954Y-76590232D01*
X137721450Y-76492685D01*
X137881410Y-76361410D01*
X138012685Y-76201450D01*
X138110232Y-76018954D01*
X138170300Y-75820934D01*
X138190583Y-75615000D01*
X138170300Y-75409066D01*
X138163583Y-75386926D01*
X138162959Y-75317060D01*
X138194561Y-75263251D01*
X140610500Y-72847314D01*
X140620549Y-72829907D01*
X140671111Y-72781693D01*
X140739717Y-72768467D01*
X140804583Y-72794432D01*
X140815617Y-72804225D01*
X140894331Y-72882939D01*
X140894335Y-72882942D01*
X141043520Y-72982625D01*
X141043533Y-72982632D01*
X141209295Y-73051292D01*
X141209300Y-73051294D01*
X141209304Y-73051294D01*
X141209305Y-73051295D01*
X141385281Y-73086300D01*
X141385284Y-73086300D01*
X141564718Y-73086300D01*
X141699999Y-73059390D01*
X141740700Y-73051294D01*
X141906473Y-72982629D01*
X141914302Y-72977398D01*
X142018686Y-72907651D01*
X142085363Y-72886773D01*
X142152744Y-72905257D01*
X142175258Y-72923072D01*
X143357686Y-74105500D01*
X143471814Y-74171392D01*
X143599108Y-74205500D01*
X143730893Y-74205500D01*
X147256324Y-74205500D01*
X147323363Y-74225185D01*
X147344005Y-74241819D01*
X147456602Y-74354416D01*
X147490087Y-74415739D01*
X147485103Y-74485431D01*
X147443231Y-74541364D01*
X147377767Y-74565781D01*
X147356768Y-74565500D01*
X147295001Y-74559417D01*
X147295000Y-74559417D01*
X147274718Y-74561414D01*
X147089067Y-74579699D01*
X146891043Y-74639769D01*
X146798671Y-74689144D01*
X146708550Y-74737315D01*
X146708548Y-74737316D01*
X146708547Y-74737317D01*
X146548589Y-74868589D01*
X146417317Y-75028547D01*
X146319769Y-75211043D01*
X146259699Y-75409067D01*
X146239417Y-75615000D01*
X146259699Y-75820932D01*
X146289734Y-75919944D01*
X146319768Y-76018954D01*
X146417315Y-76201450D01*
X146417317Y-76201452D01*
X146548589Y-76361410D01*
X146645530Y-76440966D01*
X146708550Y-76492685D01*
X146728952Y-76503590D01*
X146778796Y-76552549D01*
X146794500Y-76612948D01*
X146794500Y-77737741D01*
X146774815Y-77804780D01*
X146733143Y-77843235D01*
X146733610Y-77843934D01*
X146729179Y-77846893D01*
X146728963Y-77847094D01*
X146728549Y-77847314D01*
X146568589Y-77978589D01*
X146437317Y-78138547D01*
X146339769Y-78321043D01*
X146279699Y-78519067D01*
X146259417Y-78725000D01*
X146279699Y-78930932D01*
X146279700Y-78930934D01*
X146339768Y-79128954D01*
X146437315Y-79311450D01*
X146437317Y-79311452D01*
X146568589Y-79471410D01*
X146615094Y-79509575D01*
X146728550Y-79602685D01*
X146911046Y-79700232D01*
X147109066Y-79760300D01*
X147109065Y-79760300D01*
X147127529Y-79762118D01*
X147315000Y-79780583D01*
X147520934Y-79760300D01*
X147718954Y-79700232D01*
X147901450Y-79602685D01*
X148061410Y-79471410D01*
X148192685Y-79311450D01*
X148290232Y-79128954D01*
X148350300Y-78930934D01*
X148370583Y-78725000D01*
X148350300Y-78519066D01*
X148290232Y-78321046D01*
X148192685Y-78138550D01*
X148094646Y-78019088D01*
X148061410Y-77978589D01*
X147901450Y-77847315D01*
X147861045Y-77825717D01*
X147811201Y-77776754D01*
X147795500Y-77716360D01*
X147795500Y-76612948D01*
X147815185Y-76545909D01*
X147861047Y-76503590D01*
X147881450Y-76492685D01*
X148041410Y-76361410D01*
X148172685Y-76201450D01*
X148270232Y-76018954D01*
X148330300Y-75820934D01*
X148350583Y-75615000D01*
X148344499Y-75553231D01*
X148357518Y-75484587D01*
X148405582Y-75433876D01*
X148473433Y-75417201D01*
X148539528Y-75439857D01*
X148555583Y-75453397D01*
X148907686Y-75805500D01*
X149021814Y-75871392D01*
X149149108Y-75905500D01*
X149280892Y-75905500D01*
X158290500Y-75905500D01*
X158357539Y-75925185D01*
X158403294Y-75977989D01*
X158414500Y-76029500D01*
X158414500Y-76229678D01*
X158429032Y-76302735D01*
X158429033Y-76302739D01*
X158447404Y-76330233D01*
X158484399Y-76385601D01*
X158567260Y-76440966D01*
X158567264Y-76440967D01*
X158640321Y-76455499D01*
X158640324Y-76455500D01*
X158640326Y-76455500D01*
X160289676Y-76455500D01*
X160289677Y-76455499D01*
X160362740Y-76440966D01*
X160445601Y-76385601D01*
X160500966Y-76302740D01*
X160515500Y-76229674D01*
X160515500Y-74580326D01*
X160515500Y-74580323D01*
X160515499Y-74580321D01*
X160500967Y-74507264D01*
X160500966Y-74507260D01*
X160445601Y-74424399D01*
X160362740Y-74369034D01*
X160362739Y-74369033D01*
X160362735Y-74369032D01*
X160283700Y-74353311D01*
X160284162Y-74350985D01*
X160229101Y-74328726D01*
X160188765Y-74271676D01*
X160185676Y-74201874D01*
X160210228Y-74152850D01*
X160249088Y-74105499D01*
X160342685Y-73991450D01*
X160440232Y-73808954D01*
X160500300Y-73610934D01*
X160520583Y-73405000D01*
X160500300Y-73199066D01*
X160440232Y-73001046D01*
X160342685Y-72818550D01*
X160272629Y-72733186D01*
X160211410Y-72658589D01*
X160051452Y-72527317D01*
X160051453Y-72527317D01*
X160051450Y-72527315D01*
X159868954Y-72429768D01*
X159670934Y-72369700D01*
X159670932Y-72369699D01*
X159670934Y-72369699D01*
X159465000Y-72349417D01*
X159259067Y-72369699D01*
X159061043Y-72429769D01*
X158950898Y-72488643D01*
X158878550Y-72527315D01*
X158878548Y-72527316D01*
X158878547Y-72527317D01*
X158718589Y-72658589D01*
X158587315Y-72818548D01*
X158576408Y-72838955D01*
X158527445Y-72888798D01*
X158467051Y-72904500D01*
X148703676Y-72904500D01*
X148636637Y-72884815D01*
X148615995Y-72868181D01*
X147502219Y-71754405D01*
X147468734Y-71693082D01*
X147465900Y-71666724D01*
X147465900Y-70764881D01*
X147430895Y-70588905D01*
X147430894Y-70588904D01*
X147430894Y-70588900D01*
X147430892Y-70588895D01*
X147362232Y-70423133D01*
X147362225Y-70423120D01*
X147262542Y-70273935D01*
X147262539Y-70273931D01*
X147135668Y-70147060D01*
X147135664Y-70147057D01*
X146986479Y-70047374D01*
X146986466Y-70047367D01*
X146820704Y-69978707D01*
X146820694Y-69978704D01*
X146644718Y-69943700D01*
X146644716Y-69943700D01*
X146465284Y-69943700D01*
X146465282Y-69943700D01*
X146289305Y-69978704D01*
X146289295Y-69978707D01*
X146123533Y-70047367D01*
X146123520Y-70047374D01*
X145974335Y-70147057D01*
X145974331Y-70147060D01*
X145847460Y-70273931D01*
X145847457Y-70273935D01*
X145747774Y-70423120D01*
X145747767Y-70423133D01*
X145679107Y-70588895D01*
X145679104Y-70588905D01*
X145644100Y-70764881D01*
X145644100Y-70764884D01*
X145644100Y-72265116D01*
X145644100Y-72265118D01*
X145644099Y-72265118D01*
X145679104Y-72441094D01*
X145679107Y-72441104D01*
X145747767Y-72606866D01*
X145747774Y-72606879D01*
X145847457Y-72756064D01*
X145847460Y-72756068D01*
X145974331Y-72882939D01*
X145974335Y-72882942D01*
X146115697Y-72977398D01*
X146160502Y-73031010D01*
X146169209Y-73100335D01*
X146139054Y-73163363D01*
X146079611Y-73200082D01*
X146046806Y-73204500D01*
X144522294Y-73204500D01*
X144455255Y-73184815D01*
X144409500Y-73132011D01*
X144399556Y-73062853D01*
X144428581Y-72999297D01*
X144453403Y-72977398D01*
X144595345Y-72882554D01*
X144595349Y-72882551D01*
X144722151Y-72755749D01*
X144722154Y-72755745D01*
X144821782Y-72606642D01*
X144821787Y-72606633D01*
X144890413Y-72440954D01*
X144890415Y-72440946D01*
X144925399Y-72265071D01*
X144925400Y-72265068D01*
X144925400Y-71640000D01*
X144402243Y-71640000D01*
X144421400Y-71568504D01*
X144421400Y-71461496D01*
X144402243Y-71390000D01*
X144925400Y-71390000D01*
X144925400Y-70764932D01*
X144925399Y-70764928D01*
X144890415Y-70589053D01*
X144890413Y-70589045D01*
X144821787Y-70423366D01*
X144821782Y-70423357D01*
X144722154Y-70274254D01*
X144722151Y-70274250D01*
X144595349Y-70147448D01*
X144595345Y-70147445D01*
X144446242Y-70047817D01*
X144446233Y-70047812D01*
X144280554Y-69979186D01*
X144280546Y-69979184D01*
X144140000Y-69951227D01*
X144140000Y-71127756D01*
X144068504Y-71108600D01*
X143961496Y-71108600D01*
X143890000Y-71127756D01*
X143890000Y-69951228D01*
X143889999Y-69951227D01*
X143749453Y-69979184D01*
X143749445Y-69979186D01*
X143583766Y-70047812D01*
X143583757Y-70047817D01*
X143434654Y-70147445D01*
X143434650Y-70147448D01*
X143307848Y-70274250D01*
X143307845Y-70274254D01*
X143208217Y-70423357D01*
X143208212Y-70423366D01*
X143139586Y-70589045D01*
X143139584Y-70589053D01*
X143104600Y-70764928D01*
X143104600Y-71390000D01*
X143627757Y-71390000D01*
X143608600Y-71461496D01*
X143608600Y-71568504D01*
X143627757Y-71640000D01*
X143104600Y-71640000D01*
X143104600Y-72137424D01*
X143084915Y-72204463D01*
X143032111Y-72250218D01*
X142962953Y-72260162D01*
X142899397Y-72231137D01*
X142892919Y-72225105D01*
X142422219Y-71754405D01*
X142388734Y-71693082D01*
X142385900Y-71666724D01*
X142385900Y-70764881D01*
X142350895Y-70588905D01*
X142350894Y-70588904D01*
X142350894Y-70588900D01*
X142350892Y-70588895D01*
X142282232Y-70423133D01*
X142282225Y-70423120D01*
X142182542Y-70273935D01*
X142182539Y-70273931D01*
X142055668Y-70147060D01*
X142055664Y-70147057D01*
X141906479Y-70047374D01*
X141906466Y-70047367D01*
X141740704Y-69978707D01*
X141740694Y-69978704D01*
X141564718Y-69943700D01*
X141564716Y-69943700D01*
X141513475Y-69943700D01*
X141446436Y-69924015D01*
X141400681Y-69871211D01*
X141390737Y-69802053D01*
X141419762Y-69738497D01*
X141425794Y-69732019D01*
X143572213Y-67585600D01*
X145854743Y-65303069D01*
X145916064Y-65269586D01*
X145985756Y-65274570D01*
X146011313Y-65287650D01*
X146123520Y-65362625D01*
X146123533Y-65362632D01*
X146248178Y-65414261D01*
X146289300Y-65431294D01*
X146289304Y-65431294D01*
X146289305Y-65431295D01*
X146465281Y-65466300D01*
X146465284Y-65466300D01*
X146644718Y-65466300D01*
X146763110Y-65442749D01*
X146820700Y-65431294D01*
X146986473Y-65362629D01*
X147135665Y-65262942D01*
X147262542Y-65136065D01*
X147362229Y-64986873D01*
X147430894Y-64821100D01*
X147463400Y-64657686D01*
X147465900Y-64645118D01*
X147465900Y-64519500D01*
X147485585Y-64452461D01*
X147538389Y-64406706D01*
X147589900Y-64395500D01*
X155701211Y-64395500D01*
X155768250Y-64415185D01*
X155788892Y-64431819D01*
X158235436Y-66878363D01*
X158268921Y-66939686D01*
X158266416Y-67002037D01*
X158259700Y-67024176D01*
X158259699Y-67024179D01*
X158239417Y-67230113D01*
X158259699Y-67436045D01*
X158319769Y-67634069D01*
X158417317Y-67816566D01*
X158550155Y-67978430D01*
X158577468Y-68042740D01*
X158565677Y-68111608D01*
X158518525Y-68163168D01*
X158476031Y-68177321D01*
X158476350Y-68178924D01*
X158397459Y-68194616D01*
X158397455Y-68194618D01*
X158314760Y-68249873D01*
X158259505Y-68332568D01*
X158259503Y-68332572D01*
X158245000Y-68405484D01*
X158245000Y-69105113D01*
X158914383Y-69105113D01*
X158895000Y-69177452D01*
X158895000Y-69282774D01*
X158914383Y-69355113D01*
X158245000Y-69355113D01*
X158245000Y-70054741D01*
X158259503Y-70127653D01*
X158259505Y-70127657D01*
X158314760Y-70210352D01*
X158397455Y-70265607D01*
X158397459Y-70265609D01*
X158470371Y-70280112D01*
X158470374Y-70280113D01*
X159170000Y-70280113D01*
X159170000Y-69610730D01*
X159242339Y-69630113D01*
X159347661Y-69630113D01*
X159420000Y-69610730D01*
X159420000Y-70280113D01*
X160119626Y-70280113D01*
X160119628Y-70280112D01*
X160192540Y-70265609D01*
X160192544Y-70265607D01*
X160275239Y-70210352D01*
X160330494Y-70127657D01*
X160330496Y-70127653D01*
X160344999Y-70054741D01*
X160345000Y-70054739D01*
X160345000Y-69355113D01*
X159675617Y-69355113D01*
X159695000Y-69282774D01*
X159695000Y-69177452D01*
X159675617Y-69105113D01*
X160345000Y-69105113D01*
X160345000Y-68405486D01*
X160344999Y-68405484D01*
X160330496Y-68332572D01*
X160330494Y-68332568D01*
X160275239Y-68249873D01*
X160192544Y-68194618D01*
X160192540Y-68194616D01*
X160113650Y-68178924D01*
X160114093Y-68176692D01*
X160058718Y-68154307D01*
X160018381Y-68097257D01*
X160015291Y-68027456D01*
X160039844Y-67978430D01*
X160041407Y-67976525D01*
X160041410Y-67976523D01*
X160172685Y-67816563D01*
X160270232Y-67634067D01*
X160330300Y-67436047D01*
X160350583Y-67230113D01*
X160330300Y-67024179D01*
X160270232Y-66826159D01*
X160172685Y-66643663D01*
X160093211Y-66546823D01*
X160041410Y-66483702D01*
X159881452Y-66352430D01*
X159881453Y-66352430D01*
X159881450Y-66352428D01*
X159698954Y-66254881D01*
X159500934Y-66194813D01*
X159500932Y-66194812D01*
X159500934Y-66194812D01*
X159295000Y-66174530D01*
X159089066Y-66194812D01*
X159089063Y-66194813D01*
X159066924Y-66201529D01*
X158997057Y-66202152D01*
X158943250Y-66170549D01*
X156267203Y-63494502D01*
X156267201Y-63494500D01*
X156209465Y-63461166D01*
X156153074Y-63428608D01*
X156089426Y-63411554D01*
X156025779Y-63394500D01*
X156025778Y-63394500D01*
X147589900Y-63394500D01*
X147522861Y-63374815D01*
X147477106Y-63322011D01*
X147465900Y-63270500D01*
X147465900Y-63144881D01*
X147430895Y-62968905D01*
X147430894Y-62968904D01*
X147430894Y-62968900D01*
X147430892Y-62968895D01*
X147362232Y-62803133D01*
X147362225Y-62803120D01*
X147262542Y-62653935D01*
X147262539Y-62653931D01*
X147135668Y-62527060D01*
X147135664Y-62527057D01*
X146986479Y-62427374D01*
X146986466Y-62427367D01*
X146820704Y-62358707D01*
X146820694Y-62358704D01*
X146644718Y-62323700D01*
X146644716Y-62323700D01*
X146465284Y-62323700D01*
X146440317Y-62328666D01*
X146370725Y-62322437D01*
X146315549Y-62279574D01*
X146292305Y-62213684D01*
X146308374Y-62145687D01*
X146328442Y-62119371D01*
X147005500Y-61442314D01*
X147071392Y-61328186D01*
X147105500Y-61200893D01*
X147105500Y-61069108D01*
X147105500Y-60410790D01*
X147125185Y-60343751D01*
X147162119Y-60309757D01*
X147160703Y-60307638D01*
X147165771Y-60304251D01*
X147165774Y-60304249D01*
X147318725Y-60178725D01*
X147444252Y-60025770D01*
X147476737Y-59964995D01*
X152039592Y-59964995D01*
X152039592Y-59965004D01*
X152059196Y-60226620D01*
X152059197Y-60226625D01*
X152117576Y-60482402D01*
X152117578Y-60482411D01*
X152117580Y-60482416D01*
X152213432Y-60726643D01*
X152344614Y-60953857D01*
X152426700Y-61056789D01*
X152508198Y-61158985D01*
X152650590Y-61291104D01*
X152700521Y-61337433D01*
X152917296Y-61485228D01*
X152917301Y-61485230D01*
X152917302Y-61485231D01*
X152917303Y-61485232D01*
X153042843Y-61545688D01*
X153153673Y-61599061D01*
X153153674Y-61599061D01*
X153153677Y-61599063D01*
X153404385Y-61676396D01*
X153663818Y-61715500D01*
X153926182Y-61715500D01*
X154185615Y-61676396D01*
X154436323Y-61599063D01*
X154672704Y-61485228D01*
X154889479Y-61337433D01*
X155057966Y-61181100D01*
X155081801Y-61158985D01*
X155081801Y-61158983D01*
X155081805Y-61158981D01*
X155245386Y-60953857D01*
X155376568Y-60726643D01*
X155472420Y-60482416D01*
X155476689Y-60463711D01*
X157774500Y-60463711D01*
X157774500Y-60706288D01*
X157806161Y-60946785D01*
X157868947Y-61181104D01*
X157961773Y-61405205D01*
X157961777Y-61405214D01*
X157979081Y-61435185D01*
X158083064Y-61615289D01*
X158083066Y-61615292D01*
X158083067Y-61615293D01*
X158230733Y-61807736D01*
X158230739Y-61807743D01*
X158402256Y-61979260D01*
X158402262Y-61979265D01*
X158594711Y-62126936D01*
X158804788Y-62248224D01*
X158987004Y-62323700D01*
X159025546Y-62339665D01*
X159028900Y-62341054D01*
X159263211Y-62403838D01*
X159441935Y-62427367D01*
X159503711Y-62435500D01*
X159503712Y-62435500D01*
X159746289Y-62435500D01*
X159808065Y-62427367D01*
X159986789Y-62403838D01*
X160221100Y-62341054D01*
X160445212Y-62248224D01*
X160655289Y-62126936D01*
X160847738Y-61979265D01*
X161019265Y-61807738D01*
X161166936Y-61615289D01*
X161288224Y-61405212D01*
X161381054Y-61181100D01*
X161443838Y-60946789D01*
X161475500Y-60706288D01*
X161475500Y-60463712D01*
X161443838Y-60223211D01*
X161381054Y-59988900D01*
X161288224Y-59764788D01*
X161166936Y-59554711D01*
X161019265Y-59362262D01*
X161019260Y-59362256D01*
X160847743Y-59190739D01*
X160847736Y-59190733D01*
X160655293Y-59043067D01*
X160655292Y-59043066D01*
X160655289Y-59043064D01*
X160445212Y-58921776D01*
X160445205Y-58921773D01*
X160221104Y-58828947D01*
X159986785Y-58766161D01*
X159746289Y-58734500D01*
X159746288Y-58734500D01*
X159503712Y-58734500D01*
X159503711Y-58734500D01*
X159263214Y-58766161D01*
X159028895Y-58828947D01*
X158804794Y-58921773D01*
X158804785Y-58921777D01*
X158594706Y-59043067D01*
X158402263Y-59190733D01*
X158402256Y-59190739D01*
X158230739Y-59362256D01*
X158230733Y-59362263D01*
X158083067Y-59554706D01*
X157961777Y-59764785D01*
X157961773Y-59764794D01*
X157868947Y-59988895D01*
X157806161Y-60223214D01*
X157774500Y-60463711D01*
X155476689Y-60463711D01*
X155530802Y-60226630D01*
X155545854Y-60025770D01*
X155550408Y-59965004D01*
X155550408Y-59964995D01*
X155530803Y-59703379D01*
X155530802Y-59703374D01*
X155530802Y-59703370D01*
X155472420Y-59447584D01*
X155376568Y-59203357D01*
X155245386Y-58976143D01*
X155081805Y-58771019D01*
X155081804Y-58771018D01*
X155081801Y-58771014D01*
X154889479Y-58592567D01*
X154672704Y-58444772D01*
X154672700Y-58444770D01*
X154672697Y-58444768D01*
X154672696Y-58444767D01*
X154436325Y-58330938D01*
X154436327Y-58330938D01*
X154185623Y-58253606D01*
X154185619Y-58253605D01*
X154185615Y-58253604D01*
X154060823Y-58234794D01*
X153926187Y-58214500D01*
X153926182Y-58214500D01*
X153663818Y-58214500D01*
X153663812Y-58214500D01*
X153502247Y-58238853D01*
X153404385Y-58253604D01*
X153404382Y-58253605D01*
X153404376Y-58253606D01*
X153153673Y-58330938D01*
X152917303Y-58444767D01*
X152917302Y-58444768D01*
X152700520Y-58592567D01*
X152508198Y-58771014D01*
X152344614Y-58976143D01*
X152213432Y-59203356D01*
X152117582Y-59447578D01*
X152117576Y-59447597D01*
X152059197Y-59703374D01*
X152059196Y-59703379D01*
X152039592Y-59964995D01*
X147476737Y-59964995D01*
X147500217Y-59921067D01*
X147537525Y-59851269D01*
X147537525Y-59851268D01*
X147537527Y-59851265D01*
X147594965Y-59661916D01*
X147614360Y-59465000D01*
X147594965Y-59268084D01*
X147537527Y-59078735D01*
X147537525Y-59078732D01*
X147537525Y-59078730D01*
X147444255Y-58904235D01*
X147444251Y-58904228D01*
X147318725Y-58751274D01*
X147165771Y-58625748D01*
X147165764Y-58625744D01*
X146991269Y-58532474D01*
X146803465Y-58475505D01*
X146801916Y-58475035D01*
X146801914Y-58475034D01*
X146801916Y-58475034D01*
X146605000Y-58455640D01*
X146408085Y-58475034D01*
X146218730Y-58532474D01*
X146044235Y-58625744D01*
X146044228Y-58625748D01*
X145891274Y-58751274D01*
X145765748Y-58904228D01*
X145765744Y-58904235D01*
X145672474Y-59078730D01*
X145615034Y-59268085D01*
X145595640Y-59465000D01*
X145615034Y-59661914D01*
X145672474Y-59851269D01*
X145765744Y-60025764D01*
X145765748Y-60025771D01*
X145891274Y-60178725D01*
X146044228Y-60304251D01*
X146049297Y-60307638D01*
X146047669Y-60310074D01*
X146088644Y-60350119D01*
X146104500Y-60410790D01*
X146104500Y-60876324D01*
X146084815Y-60943363D01*
X146068181Y-60964005D01*
X145834005Y-61198181D01*
X145772682Y-61231666D01*
X145746324Y-61234500D01*
X144052676Y-61234500D01*
X143985637Y-61214815D01*
X143939882Y-61162011D01*
X143929938Y-61092853D01*
X143958963Y-61029297D01*
X143964995Y-61022819D01*
X144171526Y-60816288D01*
X144465499Y-60522315D01*
X144531392Y-60408186D01*
X144534205Y-60397685D01*
X144570565Y-60338025D01*
X144595523Y-60320418D01*
X144625770Y-60304252D01*
X144778725Y-60178725D01*
X144904252Y-60025770D01*
X144960217Y-59921067D01*
X144997525Y-59851269D01*
X144997525Y-59851268D01*
X144997527Y-59851265D01*
X145054965Y-59661916D01*
X145074360Y-59465000D01*
X145054965Y-59268084D01*
X144997527Y-59078735D01*
X144997525Y-59078732D01*
X144997525Y-59078730D01*
X144904255Y-58904235D01*
X144904251Y-58904228D01*
X144778725Y-58751274D01*
X144625771Y-58625748D01*
X144625764Y-58625744D01*
X144451269Y-58532474D01*
X144263465Y-58475505D01*
X144261916Y-58475035D01*
X144261914Y-58475034D01*
X144261916Y-58475034D01*
X144065000Y-58455640D01*
X143868085Y-58475034D01*
X143678730Y-58532474D01*
X143504235Y-58625744D01*
X143504228Y-58625748D01*
X143351274Y-58751274D01*
X143225748Y-58904228D01*
X143225744Y-58904235D01*
X143132474Y-59078730D01*
X143075034Y-59268085D01*
X143055640Y-59465000D01*
X143075034Y-59661914D01*
X143132474Y-59851269D01*
X143225744Y-60025764D01*
X143225749Y-60025771D01*
X143298992Y-60115019D01*
X143326305Y-60179329D01*
X143314514Y-60248197D01*
X143290822Y-60281362D01*
X143194003Y-60378182D01*
X143132683Y-60411666D01*
X143106324Y-60414500D01*
X142297990Y-60414500D01*
X142230951Y-60394815D01*
X142185196Y-60342011D01*
X142175252Y-60272853D01*
X142204277Y-60209297D01*
X142219325Y-60194647D01*
X142238725Y-60178725D01*
X142364251Y-60025771D01*
X142364255Y-60025764D01*
X142457525Y-59851269D01*
X142457525Y-59851268D01*
X142457527Y-59851265D01*
X142514965Y-59661916D01*
X142534360Y-59465000D01*
X142514965Y-59268084D01*
X142457527Y-59078735D01*
X142457525Y-59078732D01*
X142457525Y-59078730D01*
X142364255Y-58904235D01*
X142364251Y-58904228D01*
X142238725Y-58751274D01*
X142085771Y-58625748D01*
X142085764Y-58625744D01*
X141911269Y-58532474D01*
X141723465Y-58475505D01*
X141721916Y-58475035D01*
X141721914Y-58475034D01*
X141721916Y-58475034D01*
X141525000Y-58455640D01*
X141328085Y-58475034D01*
X141138730Y-58532474D01*
X140964235Y-58625744D01*
X140964228Y-58625748D01*
X140811274Y-58751274D01*
X140685748Y-58904228D01*
X140685744Y-58904235D01*
X140592474Y-59078730D01*
X140535034Y-59268085D01*
X140515640Y-59465000D01*
X140535034Y-59661914D01*
X140592474Y-59851269D01*
X140685744Y-60025764D01*
X140685748Y-60025771D01*
X140811274Y-60178725D01*
X140830675Y-60194647D01*
X140870009Y-60252393D01*
X140871880Y-60322238D01*
X140835692Y-60382006D01*
X140772936Y-60412722D01*
X140752010Y-60414500D01*
X140106105Y-60414500D01*
X140039066Y-60394815D01*
X139993311Y-60342011D01*
X139983367Y-60272853D01*
X139984488Y-60266307D01*
X139989000Y-60243625D01*
X139989000Y-59590000D01*
X139469144Y-59590000D01*
X139485000Y-59530826D01*
X139485000Y-59399174D01*
X139469144Y-59340000D01*
X139989000Y-59340000D01*
X139989000Y-58686373D01*
X139988999Y-58686371D01*
X139974496Y-58613459D01*
X139974494Y-58613455D01*
X139919239Y-58530760D01*
X139836544Y-58475505D01*
X139836540Y-58475503D01*
X139763627Y-58461000D01*
X139110000Y-58461000D01*
X139110000Y-58980855D01*
X139050826Y-58965000D01*
X138919174Y-58965000D01*
X138860000Y-58980855D01*
X138860000Y-58461000D01*
X138206373Y-58461000D01*
X138133459Y-58475503D01*
X138133455Y-58475505D01*
X138050760Y-58530760D01*
X137995505Y-58613455D01*
X137995503Y-58613459D01*
X137981000Y-58686371D01*
X137981000Y-59340000D01*
X138500856Y-59340000D01*
X138485000Y-59399174D01*
X138485000Y-59530826D01*
X138500856Y-59590000D01*
X137981000Y-59590000D01*
X137981000Y-60243625D01*
X137985512Y-60266307D01*
X137979285Y-60335899D01*
X137936423Y-60391077D01*
X137870534Y-60414322D01*
X137863895Y-60414500D01*
X137749108Y-60414500D01*
X137621812Y-60448608D01*
X137507686Y-60514500D01*
X137507683Y-60514502D01*
X133364502Y-64657683D01*
X133364500Y-64657686D01*
X133298608Y-64771812D01*
X133264500Y-64899108D01*
X133264500Y-80656323D01*
X133244815Y-80723362D01*
X133192011Y-80769117D01*
X133122853Y-80779061D01*
X133059297Y-80750036D01*
X133056159Y-80747222D01*
X132889479Y-80592567D01*
X132672704Y-80444772D01*
X132672700Y-80444770D01*
X132672697Y-80444768D01*
X132672696Y-80444767D01*
X132436325Y-80330938D01*
X132436327Y-80330938D01*
X132185623Y-80253606D01*
X132185619Y-80253605D01*
X132185615Y-80253604D01*
X132060823Y-80234794D01*
X131926187Y-80214500D01*
X131926182Y-80214500D01*
X131663818Y-80214500D01*
X131663812Y-80214500D01*
X131502247Y-80238853D01*
X131404385Y-80253604D01*
X131404382Y-80253605D01*
X131404376Y-80253606D01*
X131153673Y-80330938D01*
X130917303Y-80444767D01*
X130917302Y-80444768D01*
X130700520Y-80592567D01*
X130508198Y-80771014D01*
X130344614Y-80976143D01*
X130213432Y-81203356D01*
X130117582Y-81447578D01*
X130117576Y-81447597D01*
X130059197Y-81703374D01*
X130059196Y-81703379D01*
X130039592Y-81964995D01*
X130039592Y-81965004D01*
X130059196Y-82226620D01*
X130059197Y-82226625D01*
X130117576Y-82482402D01*
X130117578Y-82482411D01*
X130117580Y-82482416D01*
X130213432Y-82726643D01*
X130344614Y-82953857D01*
X130396650Y-83019108D01*
X130508198Y-83158985D01*
X130627264Y-83269461D01*
X130700521Y-83337433D01*
X130917296Y-83485228D01*
X130917301Y-83485230D01*
X130917302Y-83485231D01*
X130917303Y-83485232D01*
X131042843Y-83545688D01*
X131153673Y-83599061D01*
X131153674Y-83599061D01*
X131153677Y-83599063D01*
X131404385Y-83676396D01*
X131663818Y-83715500D01*
X131926182Y-83715500D01*
X132185615Y-83676396D01*
X132436323Y-83599063D01*
X132672704Y-83485228D01*
X132889479Y-83337433D01*
X133056159Y-83182777D01*
X133118691Y-83151609D01*
X133188148Y-83159196D01*
X133242476Y-83203130D01*
X133264428Y-83269461D01*
X133264500Y-83273676D01*
X133264500Y-89037324D01*
X133244815Y-89104363D01*
X133192011Y-89150118D01*
X133122853Y-89160062D01*
X133059297Y-89131037D01*
X133052819Y-89125005D01*
X132574050Y-88646236D01*
X132540565Y-88584913D01*
X132542465Y-88524620D01*
X132561397Y-88458083D01*
X132580215Y-88255000D01*
X132567171Y-88114235D01*
X132561397Y-88051917D01*
X132545408Y-87995723D01*
X132505582Y-87855750D01*
X132504301Y-87853178D01*
X132455166Y-87754500D01*
X132414673Y-87673179D01*
X132355704Y-87595091D01*
X132291762Y-87510418D01*
X132141041Y-87373019D01*
X132141039Y-87373017D01*
X131967642Y-87265655D01*
X131967635Y-87265651D01*
X131825272Y-87210500D01*
X131777456Y-87191976D01*
X131576976Y-87154500D01*
X131373024Y-87154500D01*
X131172544Y-87191976D01*
X131172541Y-87191976D01*
X131172541Y-87191977D01*
X130982364Y-87265651D01*
X130982357Y-87265655D01*
X130808960Y-87373017D01*
X130808958Y-87373019D01*
X130658237Y-87510418D01*
X130535326Y-87673178D01*
X130529055Y-87685774D01*
X130481551Y-87737010D01*
X130418056Y-87754500D01*
X126199500Y-87754500D01*
X126132461Y-87734815D01*
X126086706Y-87682011D01*
X126075500Y-87630500D01*
X126075500Y-87380323D01*
X126075499Y-87380321D01*
X126060967Y-87307264D01*
X126060966Y-87307260D01*
X126005601Y-87224399D01*
X125950235Y-87187405D01*
X125922739Y-87169033D01*
X125922735Y-87169032D01*
X125849677Y-87154500D01*
X125849674Y-87154500D01*
X124100326Y-87154500D01*
X124100323Y-87154500D01*
X124027264Y-87169032D01*
X124027260Y-87169033D01*
X124023390Y-87171620D01*
X123956712Y-87192497D01*
X123889332Y-87174012D01*
X123842642Y-87122032D01*
X123830500Y-87068517D01*
X123830500Y-77138676D01*
X123850185Y-77071637D01*
X123866819Y-77050995D01*
X123892443Y-77025371D01*
X124670000Y-77025371D01*
X124670000Y-77600000D01*
X125214383Y-77600000D01*
X125195000Y-77672339D01*
X125195000Y-77777661D01*
X125214383Y-77850000D01*
X124670000Y-77850000D01*
X124670000Y-78424628D01*
X124684503Y-78497540D01*
X124684505Y-78497544D01*
X124739760Y-78580239D01*
X124822455Y-78635494D01*
X124822459Y-78635496D01*
X124895371Y-78649999D01*
X124895374Y-78650000D01*
X125470000Y-78650000D01*
X125470000Y-78105617D01*
X125542339Y-78125000D01*
X125647661Y-78125000D01*
X125720000Y-78105617D01*
X125720000Y-78650000D01*
X126294626Y-78650000D01*
X126294628Y-78649999D01*
X126367540Y-78635496D01*
X126367544Y-78635494D01*
X126450239Y-78580239D01*
X126505494Y-78497544D01*
X126505496Y-78497540D01*
X126519999Y-78424628D01*
X126520000Y-78424626D01*
X126520000Y-77850000D01*
X125975617Y-77850000D01*
X125995000Y-77777661D01*
X125995000Y-77672339D01*
X125975617Y-77600000D01*
X126520000Y-77600000D01*
X126520000Y-77025373D01*
X126519999Y-77025371D01*
X126505496Y-76952459D01*
X126505494Y-76952455D01*
X126450239Y-76869760D01*
X126367544Y-76814505D01*
X126367540Y-76814503D01*
X126294627Y-76800000D01*
X125720000Y-76800000D01*
X125720000Y-77344382D01*
X125647661Y-77325000D01*
X125542339Y-77325000D01*
X125470000Y-77344382D01*
X125470000Y-76800000D01*
X124895373Y-76800000D01*
X124822459Y-76814503D01*
X124822455Y-76814505D01*
X124739760Y-76869760D01*
X124684505Y-76952455D01*
X124684503Y-76952459D01*
X124670000Y-77025371D01*
X123892443Y-77025371D01*
X125340995Y-75576819D01*
X125402318Y-75543334D01*
X125428676Y-75540500D01*
X126294676Y-75540500D01*
X126294677Y-75540499D01*
X126367740Y-75525966D01*
X126450601Y-75470601D01*
X126505966Y-75387740D01*
X126520500Y-75314674D01*
X126520500Y-73915326D01*
X126520500Y-73915323D01*
X126520499Y-73915321D01*
X126505967Y-73842264D01*
X126505966Y-73842260D01*
X126483712Y-73808954D01*
X126450601Y-73759399D01*
X126367740Y-73704034D01*
X126367739Y-73704033D01*
X126367735Y-73704032D01*
X126294677Y-73689500D01*
X126294674Y-73689500D01*
X124895326Y-73689500D01*
X124895323Y-73689500D01*
X124822264Y-73704032D01*
X124822260Y-73704033D01*
X124739399Y-73759399D01*
X124684033Y-73842260D01*
X124684032Y-73842264D01*
X124669500Y-73915321D01*
X124669500Y-74781324D01*
X124649815Y-74848363D01*
X124633181Y-74869005D01*
X122937181Y-76565005D01*
X122875858Y-76598490D01*
X122806166Y-76593506D01*
X122750233Y-76551634D01*
X122725816Y-76486170D01*
X122725500Y-76477324D01*
X122725500Y-69295000D01*
X125190043Y-69295000D01*
X125209819Y-69483154D01*
X125268278Y-69663072D01*
X125268281Y-69663079D01*
X125362872Y-69826917D01*
X125362877Y-69826924D01*
X125373973Y-69839247D01*
X125373974Y-69839247D01*
X125755775Y-69457446D01*
X125794925Y-69525255D01*
X125864745Y-69595075D01*
X125932552Y-69634223D01*
X125553058Y-70013716D01*
X125642519Y-70078714D01*
X125815355Y-70155665D01*
X126000406Y-70195000D01*
X126189594Y-70195000D01*
X126374644Y-70155665D01*
X126547480Y-70078714D01*
X126636939Y-70013716D01*
X126636940Y-70013716D01*
X126257447Y-69634223D01*
X126325255Y-69595075D01*
X126395075Y-69525255D01*
X126434223Y-69457446D01*
X126816024Y-69839247D01*
X126827127Y-69826917D01*
X126827128Y-69826916D01*
X126921718Y-69663079D01*
X126921721Y-69663072D01*
X126980180Y-69483154D01*
X126999956Y-69295000D01*
X126980180Y-69106845D01*
X126961728Y-69050054D01*
X126959733Y-68980213D01*
X126995813Y-68920380D01*
X127058514Y-68889552D01*
X127105436Y-68890445D01*
X127270354Y-68925500D01*
X127270355Y-68925500D01*
X127459644Y-68925500D01*
X127459646Y-68925500D01*
X127644803Y-68886144D01*
X127817730Y-68809151D01*
X127970871Y-68697888D01*
X128097533Y-68557216D01*
X128192179Y-68393284D01*
X128250674Y-68213256D01*
X128270460Y-68025000D01*
X128250674Y-67836744D01*
X128192179Y-67656716D01*
X128097533Y-67492784D01*
X127970871Y-67352112D01*
X127970870Y-67352111D01*
X127817734Y-67240851D01*
X127817729Y-67240848D01*
X127644807Y-67163857D01*
X127644802Y-67163855D01*
X127499001Y-67132865D01*
X127459646Y-67124500D01*
X127270354Y-67124500D01*
X127145280Y-67151085D01*
X127075613Y-67145768D01*
X127019880Y-67103630D01*
X126995775Y-67038050D01*
X126995500Y-67029794D01*
X126995500Y-66080323D01*
X126995499Y-66080321D01*
X126980967Y-66007264D01*
X126980966Y-66007260D01*
X126925601Y-65924399D01*
X126842740Y-65869034D01*
X126842739Y-65869033D01*
X126842735Y-65869032D01*
X126769677Y-65854500D01*
X126769674Y-65854500D01*
X125420326Y-65854500D01*
X125420323Y-65854500D01*
X125347264Y-65869032D01*
X125347260Y-65869033D01*
X125264399Y-65924399D01*
X125209033Y-66007260D01*
X125209032Y-66007264D01*
X125194500Y-66080321D01*
X125194500Y-67429678D01*
X125209032Y-67502735D01*
X125209033Y-67502739D01*
X125209034Y-67502740D01*
X125264399Y-67585601D01*
X125336935Y-67634067D01*
X125347260Y-67640966D01*
X125347264Y-67640967D01*
X125420321Y-67655499D01*
X125420324Y-67655500D01*
X125420326Y-67655500D01*
X126367544Y-67655500D01*
X126434583Y-67675185D01*
X126480338Y-67727989D01*
X126490282Y-67797147D01*
X126485476Y-67817816D01*
X126479326Y-67836741D01*
X126459540Y-68025000D01*
X126479326Y-68213257D01*
X126497885Y-68270373D01*
X126499880Y-68340215D01*
X126463800Y-68400048D01*
X126401099Y-68430876D01*
X126354173Y-68429982D01*
X126189594Y-68395000D01*
X126000406Y-68395000D01*
X125815353Y-68434334D01*
X125815352Y-68434334D01*
X125642527Y-68511281D01*
X125553059Y-68576282D01*
X125553059Y-68576283D01*
X125932552Y-68955776D01*
X125864745Y-68994925D01*
X125794925Y-69064745D01*
X125755776Y-69132553D01*
X125373974Y-68750751D01*
X125362871Y-68763083D01*
X125362870Y-68763085D01*
X125268283Y-68926915D01*
X125268278Y-68926927D01*
X125209819Y-69106845D01*
X125190043Y-69295000D01*
X122725500Y-69295000D01*
X122725500Y-60573711D01*
X124034500Y-60573711D01*
X124034500Y-60816288D01*
X124066161Y-61056785D01*
X124128947Y-61291104D01*
X124195518Y-61451819D01*
X124221776Y-61515212D01*
X124343064Y-61725289D01*
X124343066Y-61725292D01*
X124343067Y-61725293D01*
X124490733Y-61917736D01*
X124490739Y-61917743D01*
X124662256Y-62089260D01*
X124662262Y-62089265D01*
X124854711Y-62236936D01*
X125064788Y-62358224D01*
X125288900Y-62451054D01*
X125523211Y-62513838D01*
X125703586Y-62537584D01*
X125763711Y-62545500D01*
X125763712Y-62545500D01*
X126006289Y-62545500D01*
X126054388Y-62539167D01*
X126246789Y-62513838D01*
X126481100Y-62451054D01*
X126705212Y-62358224D01*
X126915289Y-62236936D01*
X127107738Y-62089265D01*
X127279265Y-61917738D01*
X127426936Y-61725289D01*
X127548224Y-61515212D01*
X127641054Y-61291100D01*
X127703838Y-61056789D01*
X127735500Y-60816288D01*
X127735500Y-60573712D01*
X127703838Y-60333211D01*
X127641054Y-60098900D01*
X127585589Y-59964995D01*
X130039592Y-59964995D01*
X130039592Y-59965004D01*
X130059196Y-60226620D01*
X130059197Y-60226625D01*
X130117576Y-60482402D01*
X130117578Y-60482411D01*
X130117580Y-60482416D01*
X130213432Y-60726643D01*
X130344614Y-60953857D01*
X130426700Y-61056789D01*
X130508198Y-61158985D01*
X130650590Y-61291104D01*
X130700521Y-61337433D01*
X130917296Y-61485228D01*
X130917301Y-61485230D01*
X130917302Y-61485231D01*
X130917303Y-61485232D01*
X131042843Y-61545688D01*
X131153673Y-61599061D01*
X131153674Y-61599061D01*
X131153677Y-61599063D01*
X131404385Y-61676396D01*
X131663818Y-61715500D01*
X131926182Y-61715500D01*
X132185615Y-61676396D01*
X132436323Y-61599063D01*
X132672704Y-61485228D01*
X132889479Y-61337433D01*
X133057966Y-61181100D01*
X133081801Y-61158985D01*
X133081801Y-61158983D01*
X133081805Y-61158981D01*
X133245386Y-60953857D01*
X133376568Y-60726643D01*
X133472420Y-60482416D01*
X133530802Y-60226630D01*
X133545854Y-60025770D01*
X133550408Y-59965004D01*
X133550408Y-59964995D01*
X133530803Y-59703379D01*
X133530802Y-59703374D01*
X133530802Y-59703370D01*
X133472420Y-59447584D01*
X133376568Y-59203357D01*
X133245386Y-58976143D01*
X133081805Y-58771019D01*
X133081804Y-58771018D01*
X133081801Y-58771014D01*
X132889479Y-58592567D01*
X132672704Y-58444772D01*
X132672700Y-58444770D01*
X132672697Y-58444768D01*
X132672696Y-58444767D01*
X132436325Y-58330938D01*
X132436327Y-58330938D01*
X132185623Y-58253606D01*
X132185619Y-58253605D01*
X132185615Y-58253604D01*
X132060823Y-58234794D01*
X131926187Y-58214500D01*
X131926182Y-58214500D01*
X131663818Y-58214500D01*
X131663812Y-58214500D01*
X131502247Y-58238853D01*
X131404385Y-58253604D01*
X131404382Y-58253605D01*
X131404376Y-58253606D01*
X131153673Y-58330938D01*
X130917303Y-58444767D01*
X130917302Y-58444768D01*
X130700520Y-58592567D01*
X130508198Y-58771014D01*
X130344614Y-58976143D01*
X130213432Y-59203356D01*
X130117582Y-59447578D01*
X130117576Y-59447597D01*
X130059197Y-59703374D01*
X130059196Y-59703379D01*
X130039592Y-59964995D01*
X127585589Y-59964995D01*
X127548224Y-59874788D01*
X127426936Y-59664711D01*
X127279265Y-59472262D01*
X127279260Y-59472256D01*
X127107743Y-59300739D01*
X127107736Y-59300733D01*
X126915293Y-59153067D01*
X126915292Y-59153066D01*
X126915289Y-59153064D01*
X126724769Y-59043067D01*
X126705214Y-59031777D01*
X126705205Y-59031773D01*
X126481104Y-58938947D01*
X126246785Y-58876161D01*
X126006289Y-58844500D01*
X126006288Y-58844500D01*
X125763712Y-58844500D01*
X125763711Y-58844500D01*
X125523214Y-58876161D01*
X125288895Y-58938947D01*
X125064794Y-59031773D01*
X125064785Y-59031777D01*
X124854706Y-59153067D01*
X124662263Y-59300733D01*
X124662256Y-59300739D01*
X124490739Y-59472256D01*
X124490733Y-59472263D01*
X124343067Y-59664706D01*
X124221777Y-59874785D01*
X124221773Y-59874794D01*
X124128947Y-60098895D01*
X124066161Y-60333214D01*
X124034500Y-60573711D01*
X122725500Y-60573711D01*
X122725500Y-57469500D01*
X122745185Y-57402461D01*
X122797989Y-57356706D01*
X122849500Y-57345500D01*
X162730500Y-57345500D01*
X162797539Y-57365185D01*
G37*
%TD.AperFunction*%
%TD*%
M02*
