%TF.GenerationSoftware,KiCad,Pcbnew,8.0.5*%
%TF.CreationDate,2026-02-13T21:56:33+07:00*%
%TF.ProjectId,Temperature_sensor,54656d70-6572-4617-9475-72655f73656e,rev?*%
%TF.SameCoordinates,Original*%
%TF.FileFunction,Soldermask,Top*%
%TF.FilePolarity,Negative*%
%FSLAX46Y46*%
G04 Gerber Fmt 4.6, Leading zero omitted, Abs format (unit mm)*
G04 Created by KiCad (PCBNEW 8.0.5) date 2026-02-13 21:56:33*
%MOMM*%
%LPD*%
G01*
G04 APERTURE LIST*
G04 Aperture macros list*
%AMRoundRect*
0 Rectangle with rounded corners*
0 $1 Rounding radius*
0 $2 $3 $4 $5 $6 $7 $8 $9 X,Y pos of 4 corners*
0 Add a 4 corners polygon primitive as box body*
4,1,4,$2,$3,$4,$5,$6,$7,$8,$9,$2,$3,0*
0 Add four circle primitives for the rounded corners*
1,1,$1+$1,$2,$3*
1,1,$1+$1,$4,$5*
1,1,$1+$1,$6,$7*
1,1,$1+$1,$8,$9*
0 Add four rect primitives between the rounded corners*
20,1,$1+$1,$2,$3,$4,$5,0*
20,1,$1+$1,$4,$5,$6,$7,0*
20,1,$1+$1,$6,$7,$8,$9,0*
20,1,$1+$1,$8,$9,$2,$3,0*%
G04 Aperture macros list end*
%ADD10R,1.700000X1.700000*%
%ADD11C,1.700000*%
%ADD12R,1.600000X1.600000*%
%ADD13C,1.600000*%
%ADD14O,1.524800X2.845600*%
%ADD15C,3.200000*%
%ADD16R,1.350000X1.350000*%
%ADD17RoundRect,0.237500X0.237500X-0.287500X0.237500X0.287500X-0.237500X0.287500X-0.237500X-0.287500X0*%
%ADD18RoundRect,0.237500X0.287500X0.237500X-0.287500X0.237500X-0.287500X-0.237500X0.287500X-0.237500X0*%
%ADD19C,1.612000*%
%ADD20RoundRect,0.250000X-0.250000X-0.475000X0.250000X-0.475000X0.250000X0.475000X-0.250000X0.475000X0*%
%ADD21RoundRect,0.100500X0.986500X0.301500X-0.986500X0.301500X-0.986500X-0.301500X0.986500X-0.301500X0*%
%ADD22RoundRect,0.102000X1.206500X1.651000X-1.206500X1.651000X-1.206500X-1.651000X1.206500X-1.651000X0*%
%ADD23RoundRect,0.250000X-0.475000X0.250000X-0.475000X-0.250000X0.475000X-0.250000X0.475000X0.250000X0*%
%ADD24RoundRect,0.237500X-0.287500X-0.237500X0.287500X-0.237500X0.287500X0.237500X-0.287500X0.237500X0*%
%ADD25R,1.300000X1.300000*%
%ADD26C,1.300000*%
%ADD27RoundRect,0.250000X0.250000X0.475000X-0.250000X0.475000X-0.250000X-0.475000X0.250000X-0.475000X0*%
%ADD28C,1.712000*%
%ADD29RoundRect,0.102000X-0.754000X-0.754000X0.754000X-0.754000X0.754000X0.754000X-0.754000X0.754000X0*%
%ADD30O,1.600000X1.600000*%
%ADD31C,3.204000*%
G04 APERTURE END LIST*
D10*
%TO.C,SW2*%
X139675000Y-88435000D03*
D11*
X146175000Y-88435000D03*
X139675000Y-92935000D03*
X146175000Y-92935000D03*
%TD*%
D12*
%TO.C,C4*%
X159295000Y-69230113D03*
D13*
X159295000Y-67230113D03*
%TD*%
D14*
%TO.C,TC7660*%
X138935000Y-71515000D03*
X141475000Y-71515000D03*
X144015000Y-71515000D03*
X146555000Y-71515000D03*
X146555000Y-63895000D03*
X144015000Y-63895000D03*
X141475000Y-63895000D03*
X138935000Y-63895000D03*
%TD*%
D15*
%TO.C,H2*%
X159625000Y-60585000D03*
%TD*%
D12*
%TO.C,C3*%
X159465000Y-75405000D03*
D13*
X159465000Y-73405000D03*
%TD*%
D16*
%TO.C,-*%
X125595000Y-77725000D03*
%TD*%
D17*
%TO.C,R1*%
X132195000Y-98240000D03*
X132195000Y-96490000D03*
%TD*%
D18*
%TO.C,R2*%
X126605000Y-101545000D03*
X124855000Y-101545000D03*
%TD*%
D19*
%TO.C,OFF                   ON*%
X145555000Y-110255000D03*
X143055000Y-110255000D03*
X140555000Y-110255000D03*
X145555000Y-106955000D03*
X143055000Y-106955000D03*
X140555000Y-106955000D03*
%TD*%
D20*
%TO.C,C8*%
X156445000Y-96685000D03*
X158345000Y-96685000D03*
%TD*%
D21*
%TO.C,TP4056*%
X129975000Y-99505000D03*
X129975000Y-98235000D03*
X129975000Y-96965000D03*
X129975000Y-95695000D03*
X125025000Y-95695000D03*
X125025000Y-96965000D03*
X125025000Y-98235000D03*
X125025000Y-99505000D03*
D22*
X127500000Y-97600000D03*
%TD*%
D12*
%TO.C,C9*%
X156315000Y-100635000D03*
D13*
X158315000Y-100635000D03*
%TD*%
D10*
%TO.C,SW1*%
X124975000Y-88255000D03*
D11*
X131475000Y-88255000D03*
X124975000Y-92755000D03*
X131475000Y-92755000D03*
%TD*%
D15*
%TO.C,H1*%
X125885000Y-60695000D03*
%TD*%
D16*
%TO.C,+*%
X125595000Y-74615000D03*
%TD*%
D23*
%TO.C,C1*%
X144685000Y-97535000D03*
X144685000Y-99435000D03*
%TD*%
D24*
%TO.C,D1*%
X128500000Y-101545000D03*
X130250000Y-101545000D03*
%TD*%
D12*
%TO.C,C11*%
X144395000Y-102345000D03*
D13*
X144395000Y-104345000D03*
%TD*%
D15*
%TO.C,H4*%
X126265000Y-108385000D03*
%TD*%
D25*
%TO.C,LM35DZ*%
X126095000Y-66755000D03*
D26*
X127365000Y-68025000D03*
X126095000Y-69295000D03*
%TD*%
D23*
%TO.C,C10*%
X140265000Y-102420112D03*
X140265000Y-104320112D03*
%TD*%
D12*
%TO.C,C2*%
X140160000Y-97750000D03*
D13*
X140160000Y-99750000D03*
%TD*%
D15*
%TO.C,H3*%
X159545000Y-108345000D03*
%TD*%
D24*
%TO.C,R6*%
X140200000Y-95045000D03*
X141950000Y-95045000D03*
%TD*%
D27*
%TO.C,C6*%
X144025000Y-85985000D03*
X142125000Y-85985000D03*
%TD*%
D20*
%TO.C,C7*%
X156805000Y-86165000D03*
X158705000Y-86165000D03*
%TD*%
D24*
%TO.C,R7*%
X144512500Y-95065000D03*
X146262500Y-95065000D03*
%TD*%
D10*
%TO.C,SW3*%
X154385000Y-88585000D03*
D11*
X160885000Y-88585000D03*
X154385000Y-93085000D03*
X160885000Y-93085000D03*
%TD*%
D18*
%TO.C,R3*%
X126537500Y-103635000D03*
X124787500Y-103635000D03*
%TD*%
D27*
%TO.C,C5*%
X129355000Y-85785000D03*
X127455000Y-85785000D03*
%TD*%
D24*
%TO.C,D2*%
X128542500Y-103645000D03*
X130292500Y-103645000D03*
%TD*%
D28*
%TO.C,esp32s3zero*%
X135635000Y-101375000D03*
X135635000Y-98835000D03*
X135635000Y-96295000D03*
X135635000Y-103915000D03*
X135635000Y-93755000D03*
X135635000Y-91215000D03*
D29*
X135635000Y-108995000D03*
D28*
X135635000Y-88675000D03*
X150875000Y-88675000D03*
X150875000Y-91215000D03*
X150875000Y-93755000D03*
X150875000Y-96295000D03*
X150875000Y-98835000D03*
X150875000Y-101375000D03*
X150875000Y-103915000D03*
X135635000Y-106455000D03*
X150875000Y-106455000D03*
X150875000Y-108995000D03*
%TD*%
D13*
%TO.C,R4*%
X137155000Y-78725000D03*
D30*
X147315000Y-78725000D03*
%TD*%
D13*
%TO.C,R5*%
X147295000Y-75615000D03*
D30*
X137135000Y-75615000D03*
%TD*%
D29*
%TO.C,OLED*%
X138985000Y-59465000D03*
D28*
X141525000Y-59465000D03*
X144065000Y-59465000D03*
X146605000Y-59465000D03*
D31*
X131795000Y-59965000D03*
X153795000Y-59965000D03*
X153795000Y-81965000D03*
X131795000Y-81965000D03*
%TD*%
M02*
